<svg width="136" height="69" viewBox="0 0 136 69" fill="none" xmlns="http://www.w3.org/2000/svg">
<mask id="mask0_1_145" style="mask-type:luminance" maskUnits="userSpaceOnUse" x="2" y="21" width="131" height="26">
<path d="M133 21.5H2V46.5H133V21.5Z" fill="white"/>
</mask>
<g mask="url(#mask0_1_145)">
<path d="M51.2335 39.9507C50.9271 39.254 50.6366 38.5506 50.3441 37.8481C48.9334 34.48 47.525 31.1094 46.119 27.7362C46.0275 27.516 45.915 27.4536 45.6842 27.4546C43.5539 27.463 41.4239 27.463 39.2943 27.4546C39.0376 27.4546 38.9093 27.4916 38.9252 27.7869C38.9511 28.2692 38.9441 28.7534 38.9252 29.2357C38.9173 29.4764 38.9998 29.5426 39.2376 29.5378C39.8862 29.5232 40.5359 29.5436 41.1835 29.528C41.5039 29.5202 41.5277 29.6108 41.4123 29.8817C40.6354 31.7125 39.8713 33.5492 39.1043 35.3839C38.4397 36.975 37.7772 38.5671 37.0837 40.2294C38.1452 40.2294 39.1451 40.2226 40.1459 40.2294C40.3588 40.2294 40.3966 40.1115 40.4523 39.9634C40.709 39.2813 40.9816 38.5993 41.2283 37.9114C41.3109 37.6844 41.4133 37.5811 41.677 37.583C43.3284 37.5947 44.9792 37.5947 46.6293 37.583C46.8651 37.583 46.9765 37.6512 47.0561 37.8753C47.2969 38.5525 47.5645 39.2209 47.8222 39.8932C47.8908 40.0725 47.9415 40.2381 48.2151 40.2323C49.1602 40.2157 50.1054 40.2196 51.0505 40.2323C51.3121 40.2372 51.327 40.1641 51.2335 39.9507ZM45.6743 35.2816C44.6476 35.2621 43.6199 35.2738 42.5902 35.2767C42.3913 35.2767 42.251 35.2767 42.3525 35.0127C42.9156 33.5609 43.4687 32.1052 44.0278 30.6534C44.0635 30.5853 44.1048 30.5202 44.1512 30.4585C44.4357 31.1747 44.7053 31.8509 44.9719 32.5281C45.2833 33.3251 45.5857 34.125 45.9031 34.9201C46.0016 35.1657 46.0205 35.2894 45.6743 35.2816Z" fill="black"/>
<path d="M62.3637 31.1556C62.3637 30.913 62.2742 30.8516 62.0424 30.8546C61.2963 30.8663 60.5501 30.8682 59.801 30.8546C59.5523 30.8546 59.4826 30.9432 59.4956 31.1703C59.5105 31.4392 59.4956 31.711 59.4956 32.0998C57.8501 30.0001 54.3313 30.2826 52.8977 32.3921C52.08 33.5906 51.9099 34.9254 52.1078 36.3168C52.5058 39.1317 55.2187 40.7628 57.9108 39.8118C58.4729 39.617 58.9225 39.2525 59.3901 38.74C59.3901 39.085 59.3901 39.3149 59.3901 39.5439C59.3762 40.7131 58.8101 41.4293 57.6581 41.7342C56.5697 42.0217 55.5082 41.8589 54.4587 41.5394C53.9364 41.3796 53.4638 41.1116 52.9216 40.8047C52.9216 41.4867 52.9445 42.085 52.9137 42.6862C52.8967 43.0175 53.0201 43.186 53.3176 43.3137C55.1721 44.1392 57.2675 44.2858 59.223 43.7268C61.157 43.1919 62.307 41.7303 62.3379 39.7699C62.3816 36.8946 62.3538 34.0261 62.3637 31.1556ZM59.0419 37.3204C58.4854 37.7058 57.8137 37.8988 57.1328 37.869C55.8146 37.8066 54.969 36.7611 55.0168 35.2781C55.0576 34.0553 55.6137 33.2096 56.6205 32.9709C57.5775 32.7419 58.456 32.9631 59.2339 33.5652C59.2927 33.6113 59.3387 33.6712 59.3674 33.7394C59.3961 33.8075 59.4066 33.8817 59.3981 33.955C59.3921 34.4227 59.3981 34.8913 59.3981 35.359C59.3981 35.7868 59.3732 36.2155 59.407 36.6403C59.4289 36.9628 59.2926 37.1538 59.0419 37.3204Z" fill="black"/>
<path d="M95.6365 32.8124C94.7063 30.9806 92.4798 30.1865 90.516 30.8754C89.9784 31.0791 89.5001 31.409 89.1232 31.8361C88.9909 31.6724 89.0416 31.5302 89.0406 31.3986C89.0406 30.0599 89.0336 28.7211 89.0406 27.3823C89.0406 27.1485 89.0058 27.0345 88.7233 27.0413C87.9343 27.0598 87.1444 27.0559 86.3545 27.0413C86.1098 27.0413 86.0471 27.1193 86.0481 27.3492C86.0541 31.5467 86.0541 35.7433 86.0481 39.9388C86.0481 40.1337 86.076 40.2389 86.3177 40.2311C87.093 40.2162 87.8683 40.2162 88.6437 40.2311C88.8804 40.2311 88.9282 40.1425 88.9173 39.9388C88.9033 39.6709 88.9173 39.401 88.9173 39.0395C89.1451 39.2665 89.2883 39.4293 89.4515 39.5686C91.1159 41.0126 94.0626 40.6404 95.341 38.7482C96.6194 36.856 96.6542 34.8196 95.6365 32.8124ZM92.4918 37.6608C91.6033 38.4403 90.0046 38.2454 89.1093 37.4425C88.9988 37.3451 89.0317 37.2136 89.0307 37.0937C89.0307 36.5685 89.0307 36.0434 89.0307 35.5201C89.0307 35.0641 89.0585 34.6062 89.0217 34.156C88.9939 33.8043 89.1401 33.6007 89.4197 33.4107C90.4354 32.714 91.8779 32.7812 92.644 33.5763C93.6169 34.5857 93.5403 36.7332 92.4918 37.6608Z" fill="black"/>
<path d="M14.5541 46.3242C14.5471 46.372 14.5401 46.4217 14.5322 46.4665C14.3929 46.4752 14.2526 46.4908 14.1123 46.4908C10.2324 46.4908 6.3525 46.4908 2.47954 46.4996C2.13333 46.4996 1.99803 46.4548 2.00002 46.0602C2.01892 42.2504 2.01096 38.4397 2.01196 34.629C2.01196 34.5053 2.02091 34.3806 2.02589 34.2568L2.24575 34.2627C2.32036 34.325 2.39796 34.3845 2.4676 34.4517C6.43175 38.3368 10.3956 42.2225 14.3591 46.1089C14.4287 46.1771 14.4894 46.2482 14.5541 46.3242Z" fill="#00CD69"/>
<path d="M14.5512 21.6949C14.4766 21.7777 14.4069 21.8634 14.3273 21.9414C10.3751 25.8141 6.42224 29.6878 2.46871 33.5625C2.39907 33.6288 2.32147 33.6892 2.24685 33.7515H2.026L2.01107 23.0794C2.01008 22.6692 2.02898 22.2512 2.00013 21.8381C1.98819 21.5565 2.09962 21.5 2.36226 21.5C4.26441 21.5097 6.16656 21.5 8.06872 21.5058C10.2236 21.5058 12.3791 21.5104 14.5352 21.5195C14.5402 21.576 14.5452 21.6335 14.5512 21.6949Z" fill="#00CD69"/>
<path d="M27.1908 46.4986C23.159 46.4888 19.1265 46.4856 15.0934 46.4888C15.0514 46.4856 15.0097 46.4784 14.9691 46.4674C14.9631 46.4226 14.9581 46.3778 14.9521 46.3329C15.0158 46.2608 15.0775 46.1848 15.1451 46.1166L27.0406 34.4585C27.1202 34.3815 27.2077 34.3114 27.2913 34.2393L27.4753 34.3367C27.48 36.3796 27.4846 38.4225 27.4893 40.4654C27.4893 42.3566 27.4893 44.2478 27.4893 46.139C27.4932 46.3554 27.4922 46.4996 27.1908 46.4986Z" fill="#00CD69"/>
<path d="M27.4961 21.799C27.4815 25.7841 27.4742 29.7689 27.4742 33.7533L27.2912 33.7679C27.2076 33.6958 27.1191 33.6266 27.0405 33.5497C23.0863 29.6737 19.1331 25.7977 15.1809 21.9217C15.1013 21.8447 15.0316 21.759 14.958 21.6762C14.958 21.6245 14.963 21.5719 14.967 21.5193C17.8262 21.5141 20.685 21.5092 23.5436 21.5047C24.7374 21.5047 25.9372 21.5047 27.134 21.5047C27.3558 21.4998 27.4971 21.5086 27.4961 21.799Z" fill="#00CD69"/>
<path d="M132.895 40.156C132.696 40.3908 132.179 40.2213 131.8 40.2281C131.166 40.2398 130.53 40.2203 129.896 40.2369C129.793 40.2464 129.69 40.2263 129.599 40.1788C129.508 40.1313 129.433 40.0587 129.384 39.9699C128.677 38.9059 127.94 37.8614 127.25 36.7886C127.025 36.4378 126.776 36.316 126.363 36.3336C125.608 36.3677 125.607 36.3433 125.607 37.0741C125.607 38.0134 125.597 38.9527 125.614 39.8919C125.614 40.1628 125.541 40.2437 125.264 40.2369C124.502 40.22 123.739 40.22 122.976 40.2369C122.716 40.2369 122.611 40.193 122.612 39.9036C122.622 35.7327 122.622 31.5622 122.612 27.3919C122.612 27.123 122.682 27.0344 122.965 27.0412C123.697 27.0597 124.431 27.0655 125.164 27.0412C125.51 27.0285 125.613 27.1191 125.611 27.4689C125.594 29.595 125.611 31.7229 125.593 33.848C125.593 34.2027 125.706 34.2475 126.038 34.2816C126.692 34.3488 127.085 34.1277 127.425 33.5693C127.937 32.7295 128.565 31.9597 129.124 31.1481C129.266 30.9425 129.409 30.8499 129.667 30.8558C130.514 30.8733 131.359 30.8616 132.303 30.8616C131.57 31.8847 130.885 32.8405 130.201 33.7954C130.087 33.9542 129.971 34.1101 129.859 34.2689C129.304 35.0562 129.303 35.0572 129.869 35.862C130.333 36.5197 130.82 37.1628 131.262 37.836C131.478 38.1654 131.721 38.2862 132.121 38.2706C132.956 38.2375 132.959 38.2599 132.955 39.0842C132.96 39.4505 133.085 39.9368 132.895 40.156Z" fill="black"/>
<path d="M108.076 38.4467C107.336 38.5062 107.145 38.3132 107.142 37.5854C107.142 36.4162 107.161 35.2382 107.128 34.066C107.094 32.9085 106.584 31.9478 105.542 31.4012C103.259 30.2027 100.956 30.4668 98.6778 31.4869C98.6207 31.5113 98.5728 31.5526 98.5409 31.6051C98.5089 31.6575 98.4946 31.7184 98.4997 31.7792C98.5057 32.4418 98.4997 33.1034 98.4997 33.8098C98.5572 33.7974 98.6137 33.7811 98.6689 33.7611C98.7813 33.7026 98.8907 33.6402 99.0012 33.5798C100.195 32.929 101.47 32.663 102.828 32.889C103.668 33.0283 104.169 33.5808 104.245 34.3593C104.276 34.6701 104.251 34.789 103.857 34.713C102.365 34.4207 100.882 34.4353 99.4598 35.0414C97.5129 35.8715 97.0811 38.0619 98.5644 39.4825C99.9333 40.7871 102.949 40.755 104.108 39.464C104.284 39.2691 104.375 39.236 104.517 39.499C104.674 39.7804 104.921 40.0043 105.219 40.1372C106.183 40.5971 107.156 40.5124 108.132 40.1752C108.3 40.1168 108.319 39.996 108.317 39.8479C108.317 39.4581 108.317 39.0752 108.317 38.6874C108.33 38.5179 108.32 38.4282 108.076 38.4467ZM103.726 38.0414C102.993 38.5013 102.211 38.6065 101.391 38.321C100.96 38.17 100.686 37.8631 100.686 37.3915C100.686 36.9433 100.935 36.6354 101.347 36.4707C102.265 36.1044 103.199 36.2096 104.119 36.459C104.438 36.5458 104.176 36.8751 104.259 37.067C104.388 37.5601 104.084 37.8163 103.726 38.0414Z" fill="black"/>
<path d="M120.188 39.947C120.188 40.1565 120.132 40.2393 119.903 40.2393C119.099 40.2286 118.295 40.2228 117.491 40.2393C117.177 40.2452 117.202 40.0727 117.202 39.8701C117.202 38.2536 117.196 36.6381 117.202 35.0226C117.202 34.249 117.096 33.5143 116.267 33.1987C115.36 32.8537 114.476 32.9668 113.662 33.5368C113.463 33.6741 113.463 33.8466 113.463 34.0424C113.463 35.9619 113.456 37.8824 113.473 39.8019C113.473 40.139 113.395 40.2549 113.035 40.2403C112.317 40.213 111.596 40.214 110.878 40.2403C110.548 40.253 110.486 40.1429 110.487 39.8457C110.5 37.6495 110.487 35.4543 110.505 33.2581C110.505 32.8732 110.388 32.7894 110.032 32.8148C109.624 32.844 109.214 32.8148 108.805 32.8245C108.597 32.8303 108.493 32.7846 108.501 32.5527C108.516 32.084 108.513 31.6134 108.501 31.1447C108.501 30.9343 108.563 30.8524 108.789 30.8524C110.088 30.8602 111.386 30.8602 112.683 30.8524C112.904 30.8524 112.969 30.9382 113.004 31.132C113.064 31.4701 113.155 31.8034 113.245 32.1892C114.567 30.7394 116.144 30.3379 117.958 30.8592C119.271 31.2373 120.125 32.3081 120.147 33.6488C120.203 35.7485 120.179 37.8493 120.188 39.947Z" fill="black"/>
<path d="M83.9013 33.0765C82.8706 31.3227 81.1783 30.6933 79.4145 30.6465C78.6753 30.6572 78.157 30.6972 77.6486 30.8267C75.8519 31.2886 74.5645 32.3233 74.0671 34.1045C73.5538 35.9431 73.8572 37.6667 75.3057 39.0308C76.6756 40.3208 78.3898 40.6463 80.2163 40.3696C84.4733 39.7206 85.4015 35.6284 83.9013 33.0765ZM81.5554 35.5874C81.5275 36.5462 81.2301 37.3734 80.3277 37.884C79.2125 38.5154 77.7083 38.0642 77.1542 36.9272C76.6806 35.9528 76.7045 34.9785 77.2308 34.0285C77.7043 33.173 78.7489 32.7618 79.7766 32.9966C80.7356 33.2129 81.4599 34.0986 81.5544 35.1753C81.5653 35.3117 81.5554 35.4501 81.5554 35.5874Z" fill="black"/>
<path d="M72.9332 31.2437C72.9011 31.8226 72.8987 32.4028 72.9263 32.9819C72.9342 33.2742 72.9263 33.4184 72.5283 33.3492C71.6131 33.1904 70.7018 33.243 69.8512 33.6747C69.2612 33.9728 68.92 34.3733 68.9449 35.1021C68.9976 36.6874 68.9538 38.2766 68.9668 39.8628C68.9668 40.1454 68.9001 40.2525 68.5937 40.2409C67.8615 40.2194 67.1273 40.2184 66.3951 40.2409C66.0668 40.2516 65.9703 40.1678 65.9732 39.8345C65.9892 37.6403 65.9732 35.45 65.9902 33.2518C65.9902 32.9137 65.9165 32.789 65.5554 32.8153C65.1356 32.8465 64.7108 32.8153 64.288 32.826C64.0691 32.8338 63.9895 32.7646 63.9895 32.5454C64.0024 32.0767 64.0014 31.6071 63.9895 31.1384C63.9895 30.9231 64.0621 30.8461 64.288 30.852C65.5839 30.8604 66.8806 30.8604 68.1778 30.852C68.4057 30.852 68.4673 30.9494 68.5042 31.1336C68.5907 31.5525 68.6902 31.9686 68.7738 32.3876C68.7956 32.4996 68.8126 32.6029 68.917 32.6691C69.5826 31.3197 70.5088 30.6016 72.3851 30.6756C72.7651 30.6922 72.9691 30.8081 72.9332 31.2437Z" fill="black"/>
<path d="M14.9669 21.52C14.9669 21.5726 14.961 21.6252 14.958 21.6769C14.8167 21.5327 14.6824 21.5707 14.5511 21.6954C14.5451 21.6389 14.5401 21.5814 14.5342 21.5249L14.9669 21.52Z" fill="black"/>
<path d="M14.9689 46.4684H14.5352C14.5431 46.4217 14.5501 46.371 14.557 46.3262C14.6874 46.4577 14.8187 46.4879 14.955 46.3349C14.958 46.3788 14.9629 46.4236 14.9689 46.4684Z" fill="black"/>
<path d="M2.24694 33.7515C2.22207 33.7992 2.1962 33.8489 2.16934 33.8947C2.00917 33.959 1.99027 33.8849 2.02608 33.7554L2.24694 33.7515Z" fill="black"/>
<path d="M2.24589 34.2637L2.02603 34.2579C2.00513 34.177 1.99618 34.101 2.09765 34.063L2.24589 34.2637Z" fill="black"/>
<path d="M27.4753 34.3383L27.2913 34.2408L27.4047 34.0723C27.534 34.1346 27.4922 34.2399 27.4753 34.3383Z" fill="black"/>
<path d="M27.4047 33.9381L27.2913 33.7685L27.4743 33.7539C27.4992 33.8328 27.5101 33.9069 27.4047 33.9381Z" fill="black"/>
</g>
</svg>
