<svg width="136" height="69" viewBox="0 0 136 69" fill="none" xmlns="http://www.w3.org/2000/svg">
<path fill-rule="evenodd" clip-rule="evenodd" d="M41.0132 29.829L45.949 24.8935C44.0539 22.8639 41.5919 21.4514 38.8832 20.8398C36.1745 20.2282 33.3445 20.4457 30.7611 21.4642C28.1777 22.4826 25.9606 24.2548 24.3981 26.5503C22.8356 28.8458 22 31.5583 22 34.335C22 37.1117 22.8356 39.8242 24.3981 42.1197C25.9606 44.4152 28.1777 46.1874 30.7611 47.2058C33.3445 48.2243 36.1745 48.4418 38.8832 47.8302C41.5919 47.2186 44.0539 45.8061 45.949 43.7765L41.0132 38.8424C39.5631 40.5075 37.935 41.2269 35.7171 41.1799C34.9375 41.1651 34.1714 40.9737 33.4764 40.6201C32.7556 40.254 32.7314 39.1743 33.5818 39.0632C34.3666 38.9566 35.1235 38.6998 35.8111 38.3069C36.2755 38.5804 37.3994 38.9293 38.0404 39.0675C38.7732 38.7738 39.429 38.3163 39.9577 37.73C39.2127 38.0149 37.2327 37.646 36.5319 37.2657V35.6988L38.0176 34.2374H34.3952V31.1693C34.3959 30.9092 34.2999 30.658 34.1259 30.4646C33.952 30.2712 33.7124 30.1492 33.4536 30.1224L30.6688 29.8261C31.312 29.0859 32.1065 28.4923 32.9988 28.0856C33.8911 27.6788 34.8604 27.4683 35.841 27.4683C36.8216 27.4683 37.7909 27.6788 38.6832 28.0856C39.5755 28.4923 40.37 29.0859 41.0132 29.8261L38.066 32.7732V31.1351C38.065 30.8795 38.1576 30.6323 38.3264 30.4403C38.4951 30.2482 38.7283 30.1245 38.9819 30.0925L41.0132 29.8261V29.829ZM32.4095 34.9567H34.3382L35.0946 35.7003C35.0946 36.0877 35.0946 36.7073 35.0946 37.2671C34.3909 37.6488 32.3682 38.0163 31.6232 37.7243C30.7685 37.3725 30.0962 34.8442 32.4109 34.961L32.4095 34.9567ZM32.7912 33.6933C31.5591 33.6933 30.1175 32.6464 30.1175 31.3374L32.7927 31.6223L32.7912 33.6933Z" fill="url(#paint0_linear_1_314)"/>
<path fill-rule="evenodd" clip-rule="evenodd" d="M54.0755 35.1178C54.697 35.1257 55.3115 34.9866 55.8689 34.7119C56.3772 34.4746 56.8208 34.1184 57.1623 33.6735L55.8689 32.4186C55.3874 32.9755 54.8405 33.249 54.208 33.249C53.9854 33.254 53.7641 33.2131 53.558 33.1288C53.3519 33.0445 53.1653 32.9186 53.01 32.759C52.7006 32.4236 52.5288 31.984 52.5288 31.5277C52.5288 31.0713 52.7006 30.6317 53.01 30.2963C53.1662 30.1344 53.3541 30.0065 53.5619 29.9205C53.7697 29.8345 53.9931 29.7922 54.218 29.7963C54.7877 29.7963 55.3404 30.0598 55.8404 30.5883L57.0669 29.2579C56.4159 28.4375 55.3305 27.9176 54.0855 27.9176C53.6107 27.9058 53.1384 27.9909 52.6976 28.1678C52.2567 28.3446 51.8566 28.6094 51.5215 28.946C50.832 29.6254 50.483 30.4943 50.483 31.5512C50.483 32.6081 50.8221 33.457 51.5015 34.1264C51.8414 34.4544 52.2432 34.7114 52.6834 34.8826C53.1235 35.0537 53.5934 35.1356 54.0655 35.1235L54.0755 35.1178ZM64.3188 35.0138L61.9129 28.0344H59.997L57.5142 35.0138H59.5255L59.8745 33.8743H61.9784L62.3089 35.0138H64.3188ZM60.346 32.1836L60.95 30.2578L61.5354 32.1836H60.346ZM67.37 35.0138V31.9984L68.9554 34.1791H69.7203L71.3058 31.9984V35.0181H73.2502V28.0386H71.7203L69.3429 31.423L66.9555 28.0443H65.4398V35.0238L67.37 35.0138ZM79.5007 31.1823C79.7865 31.0701 80.0315 30.874 80.2034 30.6196C80.3754 30.3653 80.4661 30.0648 80.4636 29.7579C80.4645 29.5289 80.4159 29.3025 80.3213 29.0941C80.2267 28.8856 80.0881 28.7 79.9152 28.55C79.5477 28.211 79.0382 28.041 78.3868 28.0401H74.9994V35.0195H78.5605C79.2315 35.0195 79.7785 34.8315 80.2029 34.4498C80.4102 34.2619 80.5741 34.0313 80.6833 33.7737C80.7925 33.5162 80.8444 33.238 80.8354 32.9585C80.8354 32.091 80.3724 31.3916 79.505 31.1936L79.5007 31.1823ZM78.0093 29.6824C78.0775 29.6774 78.1461 29.6867 78.2105 29.7097C78.275 29.7327 78.334 29.7689 78.3837 29.8159C78.4334 29.863 78.4728 29.9198 78.4993 29.9829C78.5258 30.046 78.5389 30.1139 78.5377 30.1823C78.5377 30.4473 78.3497 30.6738 77.9252 30.6738H76.9281V29.6767L78.0093 29.6824ZM76.9238 33.353V32.2135H78.1888C78.5947 32.2135 78.8112 32.467 78.8112 32.7833C78.8112 33.0995 78.6047 33.353 78.1232 33.353H76.9238ZM88.13 35.0138L86.7056 32.4941C87.5275 32.0796 87.905 31.2862 87.905 30.4088C87.9148 30.0946 87.8604 29.7817 87.745 29.4892C87.6297 29.1968 87.4558 28.931 87.2341 28.7081C86.7911 28.2651 86.1301 28.0472 85.2626 28.0472H82.2228V35.0267H84.1857V32.8388H84.7883L85.8937 35.0181L88.13 35.0138ZM85.2398 29.8277C85.3264 29.8226 85.413 29.836 85.494 29.8671C85.5749 29.8982 85.6482 29.9463 85.7091 30.0081C85.7699 30.0699 85.8168 30.1439 85.8467 30.2253C85.8766 30.3067 85.8887 30.3936 85.8823 30.48C85.8823 30.8475 85.6558 31.1395 85.1928 31.1395H84.1857V29.8277H85.2398ZM89.4434 35.0181H91.4248V28.0386H89.4448V35.0181H89.4434ZM96.0629 35.0181C97.1749 35.0181 98.0429 34.7066 98.6668 34.0837C99.2992 33.4613 99.6112 32.6123 99.6112 31.5369C99.6112 30.4615 99.2992 29.6012 98.6767 28.973C98.0543 28.3449 97.1953 28.0386 96.0814 28.0386H93.1755V35.0181H96.0629ZM95.1384 29.9316H96.1569C96.3567 29.9195 96.5564 29.9562 96.7388 30.0386C96.9213 30.121 97.0809 30.2466 97.2038 30.4045C97.454 30.7242 97.5846 31.1212 97.5728 31.527C97.5859 31.9381 97.4555 32.341 97.2038 32.6665C97.0808 32.8242 96.9212 32.9496 96.7387 33.0318C96.5563 33.1139 96.3566 33.1504 96.1569 33.1379H95.1398V29.9316H95.1384ZM104.439 35.1178C105.637 35.1178 106.704 34.6834 107.637 33.8245V30.725H104.47V32.3859H105.876V32.8003C105.602 33.0368 105.036 33.2533 104.47 33.2533C104.232 33.2663 103.995 33.2275 103.773 33.1397C103.552 33.0519 103.352 32.9172 103.188 32.7448C102.879 32.4077 102.711 31.9655 102.717 31.5084C102.711 31.2851 102.751 31.0629 102.834 30.8554C102.917 30.6478 103.041 30.4591 103.198 30.3006C103.363 30.1351 103.561 30.0054 103.779 29.9194C103.996 29.8334 104.229 29.7929 104.463 29.8006C105.013 29.803 105.544 29.9998 105.963 30.3561L107.189 28.8748C106.434 28.237 105.471 27.898 104.483 27.9218C103.397 27.9218 102.501 28.2623 101.776 28.9417C101.051 29.6211 100.701 30.48 100.701 31.5369C100.687 32.0146 100.772 32.4899 100.951 32.933C101.13 33.3762 101.398 33.7776 101.739 34.1122C102.437 34.7831 103.333 35.1221 104.429 35.1221L104.439 35.1178ZM114.342 35.0138V33.2063H111.124V32.4329H114.115V30.631H111.124V29.8562H114.36V28.0443H109.141V35.0238L114.342 35.0138Z" fill="#2C1F82"/>
<path fill-rule="evenodd" clip-rule="evenodd" d="M53.2336 40.6257V39.9349H51.8405V37.7556H51.1097V40.6257H53.2336ZM55.8304 40.6257V39.9605H54.49V39.5332H55.7321V38.8652H54.49V38.4379H55.8332V37.7655H53.7592V40.6357L55.8304 40.6257ZM58.9799 40.6257L57.9585 37.7556H57.2833L56.2349 40.6257H56.9842L57.1551 40.1015H58.0682L58.2349 40.6257H58.9799ZM57.3375 39.472L57.6224 38.6173L57.8944 39.472H57.3375ZM61.8174 40.6257L61.1949 39.5617C61.3567 39.4867 61.4928 39.3655 61.586 39.2135C61.6793 39.0615 61.7256 38.8853 61.7191 38.7071C61.7234 38.5815 61.7018 38.4564 61.6557 38.3395C61.6097 38.2227 61.5401 38.1165 61.4513 38.0276C61.3462 37.9312 61.2224 37.8574 61.0877 37.8106C60.953 37.7638 60.8101 37.7451 60.6679 37.7556H59.4713V40.6257H60.1978V39.6756H60.4827L60.9869 40.6271L61.8174 40.6257ZM60.6593 38.4208C61.0639 38.3894 61.098 39.0646 60.6322 39.0418H60.1978V38.4208H60.6593ZM64.2333 39.3124L62.9057 37.7556H62.3858V40.6257H63.098V39.0874L64.4028 40.6257H64.9512V37.7556H64.239V39.3124H64.2333ZM65.7062 40.6257H66.4369V37.7556H65.7062V40.6257ZM69.0437 39.3124L67.7189 37.7556H67.199V40.6257H67.9112V39.0874L69.2146 40.6257H69.763V37.7556H69.0508V39.3124H69.0437ZM71.8926 40.6684C72.1375 40.6698 72.3802 40.622 72.6063 40.5278C72.8324 40.4336 73.0373 40.2949 73.2088 40.12V38.878H71.8997V39.499H72.5521V39.7483C72.3708 39.8974 72.1431 39.9786 71.9083 39.9776C71.8022 39.9812 71.6965 39.9622 71.5983 39.9219C71.5001 39.8817 71.4115 39.821 71.3385 39.744C71.1963 39.5932 71.1186 39.3929 71.122 39.1857C71.1188 39.0811 71.1371 38.977 71.1759 38.8799C71.2146 38.7827 71.273 38.6946 71.3473 38.621C71.4215 38.5474 71.5102 38.4898 71.6077 38.4519C71.7052 38.4141 71.8094 38.3967 71.914 38.4008C72.1641 38.4009 72.4051 38.4949 72.5892 38.6643L73.0507 38.1245C72.739 37.8499 72.3365 37.7007 71.9211 37.7057C71.5126 37.6939 71.1162 37.8445 70.8186 38.1245C70.5402 38.4078 70.383 38.7882 70.38 39.1853C70.3771 39.5825 70.5287 39.9652 70.8029 40.2525C70.9484 40.3916 71.1203 40.5001 71.3084 40.5715C71.4966 40.643 71.6972 40.6759 71.8983 40.6684H71.8926ZM75.9537 40.6684C76.2081 40.6723 76.4596 40.6151 76.6873 40.5018C76.8952 40.4019 77.0775 40.2558 77.2201 40.0745L76.7386 39.613C76.6515 39.7262 76.5398 39.8182 76.412 39.8821C76.2842 39.946 76.1436 39.9801 76.0007 39.9819C75.8986 39.9841 75.7971 39.9655 75.7023 39.9273C75.6076 39.8891 75.5215 39.8321 75.4495 39.7597C75.377 39.6863 75.32 39.599 75.2821 39.503C75.2442 39.4071 75.226 39.3045 75.2287 39.2013C75.2253 39.0964 75.2432 38.9919 75.2811 38.894C75.319 38.7961 75.3763 38.7069 75.4495 38.6316C75.5216 38.5578 75.6082 38.4998 75.7037 38.4611C75.7993 38.4223 75.9019 38.4038 76.005 38.4065C76.1438 38.4116 76.28 38.4461 76.4045 38.5077C76.529 38.5694 76.639 38.6567 76.7272 38.764L77.1887 38.2783C77.0408 38.0955 76.853 37.9491 76.6396 37.8504C76.4262 37.7516 76.1931 37.7031 75.958 37.7086C75.7614 37.7048 75.5661 37.741 75.3839 37.815C75.2017 37.8889 75.0364 37.9991 74.898 38.1388C74.7597 38.2785 74.6511 38.4448 74.5789 38.6277C74.5067 38.8106 74.4724 39.0062 74.478 39.2027C74.4715 39.3996 74.5061 39.5957 74.5797 39.7784C74.6533 39.9611 74.7642 40.1265 74.9053 40.2639C75.0449 40.398 75.2097 40.503 75.3901 40.5729C75.5706 40.6429 75.7631 40.6763 75.9566 40.6713L75.9537 40.6684ZM79.8197 40.6257V39.9605H78.4793V39.5332H79.7228V38.8652H78.4793V38.4379H79.8226V37.7655H77.7457V40.6357L79.8197 40.6257ZM82.3495 39.3124L81.0205 37.7556H80.4963V40.6257H81.2086V39.0874L82.5134 40.6257H83.0604V37.7556H82.3481V39.3124H82.3495ZM84.3851 40.6257H85.1187V38.4549H85.9107V37.7556H83.5888V38.4549H84.3851V40.6257ZM88.516 40.6257V39.9605H87.1756V39.5332H88.4192V38.8652H87.1756V38.4379H88.516V37.7655H86.4406V40.6357L88.516 40.6257ZM91.543 40.6257L90.9205 39.5617C91.0824 39.4868 91.2186 39.3657 91.3119 39.2136C91.4051 39.0616 91.4514 38.8853 91.4447 38.7071C91.449 38.5815 91.4274 38.4564 91.3813 38.3395C91.3353 38.2227 91.2657 38.1165 91.1769 38.0276C91.0718 37.9312 90.9481 37.8574 90.8133 37.8106C90.6786 37.7638 90.5357 37.7451 90.3935 37.7556H89.1969V40.6257H89.9234V39.6756H90.2083L90.7125 40.6271L91.543 40.6257ZM90.3849 38.4208C90.7895 38.3894 90.8236 39.0646 90.3578 39.0418H89.9305V38.4208H90.3849Z" fill="#2C1F82"/>
<defs>
<linearGradient id="paint0_linear_1_314" x1="33.9208" y1="36.5278" x2="43.5439" y2="25.5012" gradientUnits="userSpaceOnUse">
<stop stop-color="#2C1F82"/>
<stop offset="1" stop-color="#00A6E8"/>
</linearGradient>
</defs>
</svg>
