<svg width="48" height="49" viewBox="0 0 48 49" fill="none" xmlns="http://www.w3.org/2000/svg">
<path d="M42.9231 2.80859H5.07694C2.27747 2.80859 0 5.11846 0 7.95755V29.0213V32.298C0 35.1371 2.27747 37.4469 5.07694 37.4469H17.3356L15.8587 44.9363H11.0769C10.5671 44.9363 10.1539 45.3554 10.1539 45.8724C10.1539 46.3895 10.5671 46.8086 11.0769 46.8086H36.9231C37.4329 46.8086 37.8461 46.3895 37.8461 45.8724C37.8461 45.3554 37.4329 44.9363 36.9231 44.9363H32.1413L30.6644 37.4469H42.9231C45.7224 37.4469 48 35.1372 48 32.298V29.0213V7.95755C48 5.11846 45.7225 2.80859 42.9231 2.80859ZM17.7413 44.9363L19.2183 37.4469H28.7817L30.2587 44.9363H17.7413ZM46.1539 32.298C46.1539 34.1047 44.7046 35.5746 42.9231 35.5746H5.07694C3.2955 35.5746 1.84612 34.1048 1.84612 32.298V29.9576H46.1538L46.1539 32.298ZM46.1539 28.0853H1.84612V26.213H7.38459C7.89441 26.213 8.30766 25.7939 8.30766 25.2768C8.30766 24.7598 7.89441 24.3407 7.38459 24.3407H1.84612V7.95755C1.84612 6.15084 3.29541 4.68091 5.07694 4.68091H42.9231C44.7045 4.68091 46.1539 6.15074 46.1539 7.95755V28.0853Z" fill="#4E6575"/>
<path d="M43 6.55469H5V21.7675H43V6.55469Z" fill="#EFF2F3"/>
<path d="M23.9999 30.5C22.982 30.5 22.1538 31.3282 22.1538 32.3461C22.1538 33.3641 22.982 34.1923 23.9999 34.1923C25.0179 34.1923 25.8461 33.3641 25.8461 32.3461C25.8461 31.3282 25.0179 30.5 23.9999 30.5Z" fill="#4E6575"/>
<path d="M31.5575 20.4871L29.5994 18.5289L31.2312 16.8972C31.4685 16.6599 31.5583 16.3126 31.4657 15.99C31.3732 15.6675 31.113 15.4206 30.786 15.345L22.3006 13.3869C21.9906 13.3155 21.6655 13.4085 21.4403 13.6336C21.2153 13.8587 21.122 14.1837 21.1936 14.4939L23.1519 22.9792C23.2274 23.3061 23.4743 23.5664 23.7969 23.6589C24.1196 23.7514 24.4667 23.6616 24.7041 23.4244L26.3358 21.7926L28.294 23.7507C28.4743 23.931 28.7105 24.0211 28.9467 24.0211C29.1828 24.0211 29.4192 23.931 29.5994 23.7507L31.5575 21.7926C31.9179 21.4321 31.9179 20.8477 31.5575 20.4871ZM28.9467 21.7926L26.9885 19.8344C26.8082 19.6541 26.572 19.564 26.3358 19.564C26.0997 19.564 25.8633 19.6541 25.6831 19.8344L24.5763 20.9413L23.3248 15.518L28.7481 16.7694L27.6412 17.8763C27.2807 18.2367 27.2807 18.8213 27.6412 19.1817L29.5994 21.1399L28.9467 21.7926Z" fill="#4E6575"/>
<path d="M20.2005 11.0879L19.2775 10.1649C18.917 9.80441 18.3325 9.80441 17.972 10.1649C17.6115 10.5254 17.6115 11.1098 17.972 11.4704L18.8952 12.3934C19.0754 12.5737 19.3117 12.6638 19.5479 12.6638C19.784 12.6638 20.0204 12.5737 20.2005 12.3934C20.561 12.033 20.561 11.4485 20.2005 11.0879Z" fill="#4E6575"/>
<path d="M18.4008 13.5859H17.0954C16.5856 13.5859 16.1724 13.9992 16.1724 14.509C16.1724 15.0188 16.5856 15.4321 17.0954 15.4321H18.4008C18.9106 15.4321 19.3239 15.0188 19.3239 14.509C19.3239 13.9992 18.9106 13.5859 18.4008 13.5859Z" fill="#4E6575"/>
<path d="M20.2004 16.6258C19.8401 16.2654 19.2556 16.2654 18.8951 16.6258L17.972 17.5489C17.6115 17.9094 17.6115 18.4939 17.972 18.8544C18.1523 19.0346 18.3885 19.1247 18.6247 19.1247C18.8609 19.1247 19.0972 19.0346 19.2774 18.8544L20.2004 17.9313C20.5609 17.5709 20.5609 16.9864 20.2004 16.6258Z" fill="#4E6575"/>
<path d="M26.662 10.1649C26.3015 9.80441 25.7171 9.80441 25.3565 10.1649L24.4334 11.0879C24.073 11.4484 24.073 12.0329 24.4334 12.3934C24.6137 12.5737 24.85 12.6638 25.0862 12.6638C25.3225 12.6638 25.5587 12.5737 25.7389 12.3934L26.662 11.4704C27.0224 11.11 27.0224 10.5254 26.662 10.1649Z" fill="#4E6575"/>
<path d="M22.3171 8.36328C21.8073 8.36328 21.394 8.77653 21.394 9.28634V10.5917C21.394 11.1015 21.8073 11.5148 22.3171 11.5148C22.8269 11.5148 23.2402 11.1015 23.2402 10.5917V9.28634C23.2402 8.77653 22.8269 8.36328 22.3171 8.36328Z" fill="#4E6575"/>
<path d="M11.0586 24.7817C11.0476 24.7227 11.0291 24.6646 11.006 24.6082C10.983 24.5528 10.9544 24.4993 10.9211 24.4494C10.8879 24.3986 10.8491 24.3515 10.8066 24.3091C10.7641 24.2666 10.7171 24.2279 10.6663 24.1946C10.6164 24.1614 10.5629 24.1327 10.5066 24.1097C10.4512 24.0866 10.3931 24.0681 10.334 24.0571C10.215 24.0331 10.0931 24.0331 9.97402 24.0571C9.91496 24.0681 9.85683 24.0866 9.80143 24.1097C9.74508 24.1327 9.69155 24.1613 9.64177 24.1946C9.59096 24.2278 9.54389 24.2666 9.50143 24.3091C9.45896 24.3515 9.42024 24.3986 9.38696 24.4494C9.35377 24.4993 9.32508 24.5528 9.30202 24.6082C9.27896 24.6646 9.26049 24.7227 9.24943 24.7817C9.23743 24.8408 9.23096 24.9018 9.23096 24.9618C9.23096 25.0218 9.23743 25.0827 9.24943 25.1417C9.26049 25.2008 9.27896 25.2589 9.30202 25.3143C9.32508 25.3707 9.35368 25.4242 9.38696 25.474C9.42014 25.5248 9.45896 25.5719 9.50143 25.6143C9.54389 25.6568 9.59096 25.6955 9.64177 25.7288C9.69164 25.762 9.74518 25.7907 9.80143 25.8137C9.85683 25.8368 9.91496 25.8553 9.97402 25.8673C10.0331 25.8793 10.094 25.8848 10.154 25.8848C10.214 25.8848 10.275 25.8793 10.334 25.8673C10.3931 25.8553 10.4512 25.8368 10.5066 25.8137C10.563 25.7907 10.6165 25.7621 10.6663 25.7288C10.7171 25.6956 10.7641 25.6568 10.8066 25.6143C10.8491 25.5719 10.8878 25.5248 10.9211 25.474C10.9543 25.4241 10.983 25.3706 11.006 25.3143C11.0291 25.2589 11.0476 25.2008 11.0586 25.1417C11.0706 25.0827 11.0771 25.0218 11.0771 24.9618C11.0771 24.9018 11.0706 24.8408 11.0586 24.7817Z" fill="#4E6575"/>
</svg>
