<svg width="136" height="69" viewBox="0 0 136 69" fill="none" xmlns="http://www.w3.org/2000/svg">
<mask id="mask0_1_170" style="mask-type:luminance" maskUnits="userSpaceOnUse" x="2" y="21" width="131" height="27">
<path d="M132.599 21.5H2.56445V47.4153H132.599V21.5Z" fill="white"/>
</mask>
<g mask="url(#mask0_1_170)">
<path d="M32.8553 41.8506C31.0404 43.651 29.2327 45.4592 27.4323 47.2752C27.2405 47.467 27.1337 47.452 26.9486 47.2668C25.9294 46.236 24.8952 45.2168 23.866 44.1926C20.6999 41.0432 17.5306 37.8972 14.3579 34.7545C14.0743 34.4743 14.081 34.3359 14.3579 34.0673C15.8592 32.6277 17.3471 31.1682 18.8384 29.7153C18.9151 29.6402 18.9952 29.5685 19.0902 29.4834C19.1787 29.5618 19.2571 29.6202 19.3138 29.6852C19.7158 30.0856 20.1061 30.4993 20.5231 30.8846C20.7366 31.0798 20.6899 31.1932 20.5048 31.3683C19.5356 32.3191 18.5831 33.285 17.609 34.2291C17.3905 34.4409 17.3805 34.5627 17.609 34.7779C20.6849 37.8383 23.7536 40.907 26.8151 43.984C27.0387 44.2076 27.1488 44.1926 27.3689 43.9757C28.6083 42.718 29.8711 41.4736 31.1071 40.2175C31.344 39.974 31.4774 39.984 31.6959 40.2175C32.0546 40.6145 32.4416 40.9898 32.8302 41.3568C33.0137 41.5386 33.0621 41.6487 32.8553 41.8506Z" fill="#2D9A44"/>
<path d="M28.4631 34.7597C26.9407 36.2242 25.4283 37.6983 23.926 39.1818C23.7091 39.3969 23.5923 39.4236 23.3721 39.1818C23.0135 38.7831 22.6299 38.4044 22.2362 38.0441C22.0193 37.8473 22.0227 37.7355 22.2362 37.532C23.1987 36.5979 24.1361 35.6371 25.1053 34.7113C25.3738 34.4544 25.3338 34.3276 25.0919 34.0874C22.0482 31.0682 19.0112 28.0401 15.9809 25.0031C15.8825 24.9046 15.7757 24.8112 15.6473 24.6928C15.5505 24.7862 15.4604 24.8596 15.377 24.9513C14.126 26.1991 12.8749 27.4435 11.6322 28.7045C11.412 28.928 11.2769 28.9814 11.045 28.7195C10.678 28.3092 10.276 27.9255 9.87735 27.5519C9.71054 27.3851 9.67551 27.2867 9.86234 27.1015C11.6894 25.2833 13.5077 23.4612 15.317 21.6352C15.4971 21.4534 15.6106 21.4684 15.764 21.6352C15.8574 21.7453 15.9725 21.8337 16.0759 21.9338L26.2012 32.019C26.9485 32.7646 27.7025 33.5203 28.4581 34.2442C28.66 34.4377 28.6883 34.5445 28.4631 34.7597Z" fill="#076DA3"/>
<path d="M99.6352 36.548C99.5418 35.4304 98.8262 34.6214 97.6152 34.2661C97.5118 34.236 97.39 34.2661 97.2716 34.1126C97.3717 34.0659 97.4551 34.0225 97.5385 33.9842C98.581 33.5004 99.0764 32.6497 99.013 31.4737C98.958 30.4178 98.3909 29.6888 97.32 29.3252C97.0527 29.2322 96.7765 29.1668 96.4959 29.13C94.8278 28.9315 93.1598 29.085 91.4917 29.0333C91.2015 29.0333 91.2548 29.2134 91.2548 29.3769C91.2548 32.7531 91.2548 36.1276 91.2548 39.5055C91.2548 39.8391 91.3599 39.8942 91.6568 39.8925C93.0764 39.8808 94.4926 39.8925 95.9154 39.8825C96.627 39.8898 97.3318 39.7442 97.9822 39.4555C99.1465 38.915 99.7453 37.8708 99.6352 36.548ZM92.7511 31.8857C92.7511 31.4287 92.7511 30.9716 92.7511 30.5129C92.7511 30.3678 92.7511 30.2226 92.9613 30.2276C94.0455 30.2593 95.1381 30.1225 96.2123 30.3461C97.0981 30.5312 97.4884 30.9933 97.5001 31.7823C97.5151 32.7231 97.1381 33.2619 96.2724 33.4954C95.3733 33.7373 94.4525 33.5972 93.5418 33.6205C92.7511 33.6405 92.7511 33.6205 92.7511 32.8315V31.8857ZM98.0239 37.4454C97.797 38.1127 97.2816 38.458 96.6277 38.5797C95.4117 38.8033 94.1773 38.6598 92.9579 38.6965C92.7344 38.6965 92.7578 38.553 92.7561 38.4113V36.7565C92.7561 36.206 92.7561 35.6539 92.7561 35.1034C92.7561 34.9633 92.7294 34.8065 92.9529 34.8149C94.179 34.8616 95.415 34.6831 96.6227 34.9316C97.8304 35.1802 98.4292 36.2444 98.0239 37.4454Z" fill="#076DA3"/>
<path d="M81.8453 35.2413L82.2073 35.1312C83.7086 34.6708 84.5093 33.5565 84.4509 31.9835C84.3958 30.5073 83.5318 29.5064 81.9955 29.1728C81.6124 29.0851 81.2207 29.0409 80.8278 29.041C79.2198 29.041 77.6101 29.0577 76.002 29.041C75.62 29.041 75.5016 29.1144 75.5016 29.5214C75.5199 32.6291 75.5116 35.735 75.5116 38.8443C75.5116 39.9203 75.5116 39.9052 76.5992 39.9102C76.9478 39.9102 77.0162 39.7918 77.0129 39.4749C76.9979 38.2455 77.0129 37.0145 76.9995 35.7851C76.9995 35.4715 77.0879 35.3847 77.3965 35.3914C78.2473 35.4114 79.0997 35.4164 79.9504 35.3914C80.0802 35.3792 80.2106 35.4076 80.3236 35.4727C80.4366 35.5379 80.5265 35.6365 80.5809 35.7551C81.3616 37.0328 82.1606 38.2972 82.9579 39.5633C83.053 39.7167 83.1131 39.9102 83.36 39.8969C83.8437 39.8969 84.3258 39.8969 84.9013 39.8969L81.8453 35.2413ZM77.2164 34.1887C77.0095 34.1887 77.0045 34.0486 77.0045 33.9001C77.0045 32.7825 77.0045 31.6632 77.0045 30.544C77.0045 30.2904 77.0963 30.2187 77.3382 30.2237C77.967 30.2354 78.5976 30.2237 79.3399 30.2237C79.932 30.237 80.6443 30.1686 81.3416 30.3154C82.4192 30.544 82.9446 31.1611 82.9446 32.162C82.9446 33.1979 82.3691 33.9619 81.3216 34.1103C79.9637 34.3055 78.5859 34.162 77.2164 34.1887Z" fill="#076DA3"/>
<path d="M121.042 30.0322C121.042 28.9362 121.042 28.9429 119.934 29.0313C119.724 29.048 119.669 29.1181 119.671 29.3149C119.706 32.0289 119.61 34.7412 119.724 37.4535C119.724 37.6003 119.819 37.8155 119.649 37.8772C119.479 37.9389 119.424 37.7104 119.347 37.5886C117.771 35.0965 116.161 32.6311 114.66 30.0972C114.159 29.2498 113.612 28.8945 112.658 29.018C112.294 29.063 112.196 29.1331 112.198 29.4984C112.213 32.6677 112.206 35.8371 112.206 39.0065C112.206 39.8839 112.206 39.8605 113.062 39.8922C113.464 39.9056 113.55 39.7805 113.549 39.3918C113.529 37.0248 113.539 34.6578 113.539 32.2908V30.8562C113.675 31.0497 113.766 31.1665 113.846 31.2932C115.414 33.7854 117.015 36.2575 118.525 38.7896C119.025 39.637 119.565 40.0574 120.563 39.9072C120.93 39.8522 121.063 39.8088 121.063 39.4068C121.033 36.2825 121.042 33.1565 121.042 30.0322ZM119.677 38.1007C119.657 38.0599 119.639 38.0182 119.624 37.9756C119.624 37.9756 119.671 37.9539 119.694 37.9406C119.713 37.978 119.729 38.017 119.741 38.0573C119.741 38.0573 119.704 38.084 119.677 38.1007Z" fill="#076DA3"/>
<path d="M53.6562 33.9371C53.5745 31.3115 51.898 29.4583 49.2858 29.1297C47.7145 28.9312 45.6994 29.0329 44.5601 29.0329C44.3033 29.0329 44.2899 29.158 44.2899 29.3549C44.2899 32.7466 44.2899 36.1384 44.2899 39.5302C44.2899 39.8388 44.4 39.8955 44.6752 39.8955C45.2357 39.8955 45.9997 39.8955 46.6619 39.8955C47.2941 39.8955 47.9247 39.9155 48.5552 39.8955C50.6453 39.8204 52.2584 38.9647 53.1575 36.9997C53.5928 36.0205 53.6879 34.9896 53.6562 33.9371ZM51.6362 36.7261C50.9789 37.9889 49.8847 38.5894 48.5002 38.6711C47.6995 38.7211 46.8921 38.6711 46.0881 38.7028C45.8129 38.7028 45.7895 38.5844 45.7912 38.3692C45.7912 37.0764 45.7912 35.782 45.7912 34.4875C45.7912 33.1931 45.8012 31.9337 45.7912 30.651C45.7912 30.3374 45.8462 30.2039 46.1965 30.2189C47.1557 30.2623 48.1215 30.1639 49.0723 30.344C50.8705 30.6776 51.888 31.7502 52.1149 33.5935C52.245 34.6777 52.1499 35.7386 51.6362 36.7261Z" fill="#076DA3"/>
<path d="M132.6 39.8492C132.498 39.8726 132.47 39.8809 132.433 39.8859C131.265 40.0978 130.445 39.6824 129.742 38.6849C128.827 37.3888 127.729 36.2195 126.725 34.9818C126.523 34.7332 126.416 34.7399 126.131 34.9C125.162 35.4488 125.035 36.0677 125.034 37.0935C125.034 37.6924 125.033 38.6716 125.06 39.4589C125.06 39.7691 125.01 39.8993 124.657 39.8959C123.551 39.8959 123.551 39.9059 123.551 38.7883C123.551 35.7124 123.551 32.6348 123.542 29.5571C123.542 29.1685 123.591 29.005 124.043 29.0234C125.044 29.0634 125.044 29.035 125.044 30.0242V34.1611C125.836 33.4271 126.712 32.6598 127.531 31.8524C128.395 31 129.215 30.1026 130.051 29.2219C130.093 29.1654 130.147 29.1193 130.21 29.0869C130.272 29.0546 130.341 29.0368 130.411 29.035C130.912 29.035 131.412 29.035 132.008 29.035C131.352 29.7139 130.768 30.3211 130.173 30.925C129.369 31.749 128.573 32.583 127.746 33.3821C127.459 33.6573 127.434 33.8124 127.707 34.126C129.25 35.8975 130.767 37.6941 132.291 39.4822C132.401 39.5907 132.483 39.7008 132.6 39.8492Z" fill="#076DA3"/>
<path d="M40.0396 34.6682C38.1492 36.5453 36.2648 38.4291 34.3865 40.3196C34.2047 40.5014 34.0913 40.5431 33.8961 40.338C33.4824 39.9043 33.0537 39.4839 32.61 39.0819C32.3965 38.8867 32.5016 38.7833 32.6501 38.6349C33.9161 37.3838 35.1789 36.1327 36.4416 34.87C36.5167 34.7949 36.6301 34.7516 36.6635 34.5948C36.5834 34.5097 36.4966 34.4046 36.3949 34.3062C35.1255 33.0351 33.8611 31.7573 32.5767 30.508C32.3248 30.2594 32.3098 30.121 32.5767 29.8824C33.0454 29.4621 33.4891 29.01 33.9261 28.548C34.0929 28.3811 34.1763 28.3811 34.3398 28.548C36.2303 30.4385 38.1291 32.3289 40.0363 34.2194C40.2098 34.3929 40.2198 34.4897 40.0396 34.6682Z" fill="#2D9A44"/>
<path d="M10.1876 39.0314C9.71223 39.4451 9.27352 39.8988 8.82981 40.3475C8.663 40.5143 8.54791 40.5143 8.37276 40.3475C6.48226 38.4403 4.58677 36.5421 2.68626 34.6527C2.51946 34.4859 2.51946 34.4008 2.68626 34.2407C4.60678 32.3446 6.51896 30.4447 8.4228 28.5408C8.47785 28.4858 8.54123 28.4407 8.60963 28.374C8.68803 28.4474 8.75809 28.5091 8.82314 28.5742C9.21347 28.9645 9.58879 29.3715 9.9908 29.7419C10.231 29.9604 10.2427 30.0838 10.0008 30.3223C8.78144 31.5117 7.59543 32.7327 6.37439 33.9204C6.09249 34.1973 6.04078 34.3391 6.35938 34.6443C7.65715 35.9021 8.90321 37.1932 10.1843 38.4576C10.4128 38.6811 10.4529 38.8012 10.1876 39.0314Z" fill="#076DA3"/>
<path d="M64.719 39.4263C63.4813 36.3804 62.253 33.3306 61.0342 30.2769C60.5204 29.0058 60.6572 29.0058 59.2794 29.0292C59.1549 29.0278 59.0324 29.0606 58.9253 29.1242C58.8182 29.1877 58.7306 29.2795 58.6722 29.3895C57.2994 32.7857 55.9432 36.1269 54.5504 39.5147C54.4453 39.7716 54.4086 39.9201 54.7756 39.8851C55.0586 39.8592 55.3433 39.8592 55.6263 39.8851C55.8999 39.9101 56.0133 39.7866 56.1017 39.5514C56.417 38.7174 56.7689 37.8834 57.0709 37.0493C57.0958 36.9369 57.1631 36.8384 57.2588 36.7744C57.3545 36.7104 57.4712 36.6858 57.5846 36.7057C58.2635 36.724 58.9424 36.7057 59.6197 36.7057C60.3303 36.7057 61.0409 36.7207 61.7498 36.7057C61.8639 36.6871 61.9808 36.7135 62.0758 36.7795C62.1707 36.8455 62.2363 36.9459 62.2586 37.0593C62.4754 37.6832 62.7273 38.2937 62.9659 38.9109C63.3479 39.8951 63.3495 39.8767 64.4154 39.9001C64.8541 39.9051 64.8641 39.785 64.719 39.4263ZM61.3245 35.5597C60.2202 35.5514 59.1159 35.5597 58.0116 35.5597C57.8182 35.5597 57.653 35.5597 57.7631 35.2845C58.4037 33.6281 59.0859 31.9867 59.6664 30.2335C60.2285 31.9783 60.9258 33.5947 61.5513 35.2378C61.6547 35.5113 61.5847 35.5614 61.3245 35.5597Z" fill="#076DA3"/>
<path d="M110.745 39.3897C109.463 36.2092 108.185 33.0298 106.908 29.8515C106.574 29.0359 106.574 29.0359 105.692 29.0359C105.358 29.0359 104.871 29.0142 104.714 29.4112C103.483 32.5605 102.169 35.6782 100.896 38.8108C100.761 39.1444 100.504 39.6449 100.563 39.79C100.631 39.9685 101.498 39.9018 101.625 39.8884C101.93 39.8534 102.061 39.7933 102.164 39.5131C102.473 38.679 102.831 37.845 103.138 37.011C103.161 36.9134 103.219 36.8278 103.302 36.7713C103.385 36.7148 103.486 36.6914 103.585 36.7057C105.003 36.7168 106.421 36.7168 107.84 36.7057C107.94 36.6912 108.04 36.7147 108.123 36.7717C108.205 36.8287 108.263 36.9148 108.284 37.0126C108.523 37.6615 108.785 38.3021 109.033 38.9476C109.402 39.8951 109.402 39.8951 110.409 39.8934C110.941 39.8851 110.945 39.8851 110.745 39.3897ZM107.36 35.5531C106.258 35.5397 105.155 35.5397 104.051 35.5531C103.707 35.5531 103.749 35.4313 103.84 35.1944C104.464 33.568 105.143 31.965 105.709 30.2219C106.124 31.4929 106.594 32.6573 107.055 33.8233C107.233 34.277 107.4 34.7357 107.584 35.1861C107.682 35.4346 107.694 35.5664 107.36 35.5614V35.5531Z" fill="#076DA3"/>
<path d="M32.8168 27.5216C32.3564 27.952 31.8943 28.384 31.469 28.8561C31.2371 29.1063 31.112 29.0379 30.9102 28.8344C29.7025 27.605 28.4764 26.399 27.2704 25.1696C27.0436 24.9378 26.9168 24.9194 26.6816 25.1696C25.7475 26.1305 24.7916 27.0713 23.8458 28.0187C23.7591 28.1055 23.669 28.1855 23.5706 28.2789C23.4822 28.2005 23.4038 28.1388 23.3454 28.0738C22.9868 27.7168 22.6515 27.3348 22.2662 27.0112C21.9442 26.7426 22.0593 26.5758 22.2912 26.344C23.3143 25.3342 24.3301 24.3195 25.3388 23.2997C25.8842 22.7509 26.433 22.2071 26.9618 21.645C27.152 21.4415 27.2621 21.4648 27.4472 21.645C29.2376 23.4476 31.0342 25.2436 32.8368 27.0329C33.0353 27.2364 33.0003 27.3482 32.8168 27.5216Z" fill="#2D9A44"/>
<path d="M20.5798 42.4427C18.9562 44.0497 17.3437 45.6688 15.7423 47.3002C15.5755 47.467 15.4821 47.4437 15.3303 47.2902C13.5132 45.4731 11.6939 43.6599 9.87235 41.8506C9.78895 41.7688 9.65884 41.7004 9.80563 41.552C10.3394 41.0165 10.8665 40.4744 11.3986 39.9373C11.4415 39.9008 11.4872 39.8679 11.5354 39.8389C11.6255 39.9223 11.7172 40.0057 11.8023 40.0891C13.0317 41.3118 14.2677 42.5261 15.4838 43.7589C15.7206 44.0007 15.8424 43.9857 16.0693 43.7589C17.0017 42.798 17.9625 41.8639 18.905 40.9064C19.1102 40.6979 19.2386 40.6446 19.4588 40.8931C19.8024 41.2834 20.1828 41.6404 20.5598 41.999C20.7182 42.1492 20.7666 42.2543 20.5798 42.4427Z" fill="#076DA3"/>
<path d="M74.1903 29.0362C74.0235 29.4649 73.8734 29.8519 73.7166 30.2373C72.4555 33.3266 71.1967 36.4192 69.9401 39.5151C69.9056 39.6413 69.8262 39.7504 69.7168 39.822C69.6074 39.8936 69.4756 39.9227 69.3462 39.9038C68.2303 39.8888 68.2286 39.9038 67.8133 38.8879C66.54 35.7686 65.2666 32.6504 63.9933 29.5333C63.935 29.3899 63.8883 29.2414 63.8165 29.0446C64.2919 29.0446 65.166 29.0446 65.166 29.0446C65.3795 29.0446 65.4262 29.1663 65.4846 29.3181C66.5772 32.1756 67.7866 34.9913 68.7874 37.8938C68.8425 38.0506 68.8541 38.2274 69.0443 38.3742C69.4863 37.0247 69.9884 35.7286 70.5005 34.4325C71.1594 32.7644 71.8183 31.0963 72.4555 29.4199C72.569 29.1213 72.7057 29.0379 73.031 29.0296C73.1945 29.0246 73.76 29.0362 74.1903 29.0362Z" fill="#076DA3"/>
<path d="M119.679 38.1006C119.659 38.06 119.641 38.0182 119.626 37.9755C119.648 37.9626 119.671 37.9509 119.694 37.9404C119.713 37.9777 119.729 38.0168 119.741 38.0572C119.741 38.0572 119.704 38.0839 119.679 38.1006Z" fill="#076DA3"/>
</g>
</svg>
