<svg width="136" height="69" viewBox="0 0 136 69" fill="none" xmlns="http://www.w3.org/2000/svg">
<path d="M98.1531 42.452C98.1531 43.1704 98.0133 43.4192 97.2364 43.4093C94.7638 43.3794 94.7638 43.4093 94.7638 40.9395C94.7638 35.5355 94.7638 30.1322 94.7638 24.7295C94.7638 22.8866 93.9649 22.2916 92.1674 22.7792C91.8179 22.8747 91.4844 23.0319 91.1429 23.1593C90.332 23.4618 90.0484 23.9912 90.0544 24.9007C90.1043 30.7339 90.0544 36.5671 90.1003 42.4022C90.1003 43.1983 89.8626 43.3814 89.1017 43.3675C86.7889 43.3237 86.7889 43.3675 86.7889 41.0449C86.7889 35.641 86.7889 30.2383 86.7889 24.837C86.7889 22.8608 85.99 22.2637 84.0966 22.7991C82.3371 23.2966 82.1094 23.5951 82.1094 25.3962C82.1094 31.0324 82.0854 36.6666 82.1333 42.3007C82.1333 43.2102 81.8777 43.3933 81.0229 43.3695C78.746 43.3097 78.744 43.3515 78.744 41.1265C78.744 34.3301 78.76 27.5357 78.7261 20.7412C78.7261 19.9173 78.9258 19.5849 79.7626 19.7143C80.0609 19.7432 80.3612 19.7432 80.6594 19.7143C81.5601 19.6765 82.5328 19.5392 82.0794 21.1671C83.6173 19.8855 85.1192 19.2844 86.8728 19.5053C87.8294 19.6247 88.7162 19.9571 89.2475 20.7969C89.629 21.394 89.8806 21.2089 90.306 20.8785C91.73 19.77 93.3298 19.2307 95.1533 19.5571C96.6992 19.8377 97.6378 20.7711 97.9694 22.2796C98.0816 22.8317 98.1351 23.3941 98.1292 23.9573C98.1392 30.1229 98.1232 36.2884 98.1531 42.452Z" fill="#464648"/>
<path d="M63.1968 23.458C62.9971 20.6717 60.9819 19.1035 58.2037 19.5194C57.2448 19.6616 56.3381 20.0452 55.5694 20.6339C55.2678 20.8608 54.8803 21.032 54.9123 20.4508C54.9562 19.6548 54.5128 19.6985 53.9776 19.7165C53.4797 19.7563 52.9795 19.7563 52.4816 19.7165C51.6828 19.613 51.483 19.9155 51.483 20.7115C51.521 25.3526 51.501 29.9937 51.501 34.6427V46.9818C51.501 49.6108 51.501 49.5889 54.1833 49.5372C54.7825 49.5272 54.8903 49.3262 54.8823 48.7948C54.8544 46.9062 54.8663 45.0135 54.8823 43.1248C54.8823 42.8442 54.7385 42.4581 55.0281 42.3049C55.3177 42.1516 55.5334 42.5298 55.7711 42.679C57.4987 43.7597 59.3281 44.0602 61.1736 43.1308C62.9212 42.2512 63.2287 40.5675 63.2407 38.8022C63.2407 38.5375 63.2407 38.2728 63.2407 38.0061C63.2407 34.3256 63.2407 30.6451 63.2407 26.9647C63.2387 25.7765 63.2807 24.6123 63.1968 23.458ZM59.8994 38.1852C59.8994 40.05 59.1264 40.6889 57.265 40.3744C56.8744 40.3 56.4924 40.1867 56.1246 40.0361C55.2458 39.6998 54.7904 39.1684 54.8404 38.1036C54.9402 35.9144 54.8703 33.7253 54.8703 31.546C54.8703 29.2295 54.8923 26.9089 54.8544 24.5924C54.8284 24.332 54.8845 24.07 55.0147 23.8429C55.145 23.6157 55.3431 23.4345 55.5813 23.3246C56.2966 22.8987 57.1092 22.6617 57.9421 22.636C59.2503 22.636 59.8614 23.1714 59.8874 24.4789C59.9233 26.3338 59.9014 28.1886 59.9014 30.0514C59.9014 32.7521 59.9073 35.4687 59.8994 38.1832V38.1852Z" fill="#464648"/>
<path d="M76.7 24.5634C76.6601 21.1224 74.8745 19.4746 71.4473 19.4507C66.8097 19.4188 65.2839 20.9334 65.2819 25.5705C65.2819 28.0701 65.2819 28.0502 67.7724 28.0263C68.3716 28.0263 68.6013 27.8791 68.5713 27.2522C68.5234 26.3267 68.5314 25.3953 68.5713 24.4659C68.6332 23.0847 69.3422 22.5096 70.9021 22.5076C72.4619 22.5056 73.1829 23.0668 73.2388 24.45C73.2868 25.6083 73.2208 26.7725 73.2728 27.9308C73.2987 28.5099 73.073 28.7408 72.5458 28.908C71.0578 29.3836 69.5759 29.8851 68.1119 30.4245C66.4263 31.0434 65.3757 32.2475 65.3278 34.0605C65.2532 36.2105 65.2925 38.3629 65.4456 40.5087C65.5914 42.3754 66.7998 43.3884 68.6652 43.5835C70.3888 43.7626 71.8607 43.1854 73.4286 41.9336C72.8693 43.6113 73.8699 43.3586 74.6748 43.3486C75.1422 43.3486 75.6095 43.3168 76.0729 43.3486C76.6181 43.3964 76.738 43.1496 76.736 42.6581C76.728 36.6318 76.7699 30.5956 76.7 24.5634ZM72.4759 39.8599C71.8273 40.2015 71.1186 40.415 70.3888 40.4888C69.2504 40.5684 68.6232 40.0131 68.6013 38.8688C68.5753 37.5433 68.6013 36.2159 68.6013 34.8884C68.5793 34.4529 68.697 34.0217 68.9371 33.6571C69.1773 33.2926 69.5276 33.0136 69.9374 32.8604C70.8222 32.4823 71.7349 32.1719 72.6317 31.8156C73.121 31.6166 73.2808 31.7818 73.2708 32.2873C73.2488 33.3819 73.2708 34.4765 73.2708 35.5691C73.2708 36.5642 73.2228 37.5592 73.2868 38.5543C73.3207 39.229 73.0511 39.5832 72.4759 39.8599Z" fill="#464648"/>
<path d="M47.1458 35.692C46.315 35.6721 45.8996 35.8154 46.0394 36.7527C46.0947 37.3145 46.098 37.8801 46.0494 38.4424C45.9994 39.9549 45.3503 40.5002 43.6307 40.4962C41.9111 40.4923 41.282 39.933 41.26 38.3946C41.238 36.8562 41.292 35.276 41.236 33.7197C41.2101 32.9814 41.4977 32.846 42.1588 32.858C44.2539 32.8938 46.3529 32.8401 48.448 32.8898C49.173 32.9057 49.3268 32.6669 49.3168 31.9903C49.2769 29.602 49.3168 27.2138 49.2969 24.8256C49.2689 21.1637 47.5673 19.4681 43.9063 19.4502H43.3072C39.6942 19.4601 37.9147 21.1896 37.8687 24.8237C37.8428 26.5133 37.8507 28.2069 37.8547 29.8926C37.8547 30.4897 37.8547 31.0867 37.8547 31.6838C37.8547 32.0559 37.8547 32.4281 37.8547 32.8022C37.8547 34.882 37.8288 36.9637 37.8667 39.0434C37.9147 41.5888 39.3786 43.1869 41.9011 43.5551C43.0212 43.7243 44.1604 43.7243 45.2804 43.5551C47.5053 43.2148 48.8754 41.8774 49.199 39.6643C49.2732 39.0703 49.3053 38.4718 49.2949 37.8732C49.3128 35.7099 49.3048 35.7477 47.1458 35.692ZM41.292 24.547C41.3359 23.1081 42.0549 22.5807 43.8045 22.6026C45.3423 22.6225 45.9835 23.1997 46.0214 24.6406C46.0394 25.3351 46.0214 26.0337 46.0214 26.7243C46.0214 27.4845 45.9954 28.2467 46.0214 29.007C46.0454 29.5304 45.8476 29.6996 45.3344 29.6876C44.2079 29.6598 43.0775 29.6598 41.9391 29.6876C41.4338 29.6996 41.234 29.5443 41.244 29.013C41.298 27.5144 41.248 26.0178 41.292 24.5371V24.547Z" fill="#464648"/>
<path d="M33.6314 41.034C33.196 41.034 33.0522 40.7256 32.8485 40.5365C30.4678 38.3194 28.107 36.0785 25.7104 33.8774C25.225 33.4316 25.1272 32.952 25.0453 32.331C24.8196 30.6215 25.4447 29.4413 26.7529 28.3228C29.0657 26.3326 31.2167 24.1654 33.6214 21.8926C33.6214 23.435 33.6334 24.7644 33.6214 26.0938C33.6214 26.4182 33.2998 26.5834 33.0881 26.7844C31.6701 28.1357 30.27 29.507 28.8121 30.8145C28.1969 31.3638 28.0451 31.6862 28.7721 32.3091C30.2521 33.5808 31.6302 34.974 33.0801 36.2954C33.271 36.4491 33.4219 36.6464 33.5199 36.8706C33.618 37.0947 33.6603 37.3391 33.6434 37.5831C33.6054 38.7274 33.6314 39.8738 33.6314 41.034Z" fill="#39C2D7"/>
<path d="M109.191 34.988C107.016 36.7234 105.087 38.7693 103.045 40.66C102.886 40.8073 102.772 41.0441 102.39 41.0302C102.39 39.7246 102.39 38.4171 102.39 37.1115C102.39 36.7135 102.698 36.5443 102.932 36.3154C104.431 34.9044 105.927 33.4834 107.449 32.1062C107.913 31.6883 107.911 31.4475 107.449 31.0296C105.935 29.6364 104.469 28.1876 102.961 26.7905C102.757 26.623 102.596 26.4091 102.492 26.1666C102.387 25.9242 102.343 25.6604 102.362 25.3974C102.408 24.3127 102.374 23.2261 102.374 21.8608C105.266 24.5933 107.967 27.1447 110.663 29.6882C110.91 29.923 110.904 30.1977 110.94 30.4982C111.168 32.3252 110.747 33.7461 109.191 34.988Z" fill="#39C2D7"/>
</svg>
