<svg width="136" height="69" viewBox="0 0 136 69" fill="none" xmlns="http://www.w3.org/2000/svg">
<mask id="mask0_1_253" style="mask-type:luminance" maskUnits="userSpaceOnUse" x="32" y="13" width="72" height="43">
<path d="M103.824 13.5H32.1768V55.5H103.824V13.5Z" fill="white"/>
</mask>
<g mask="url(#mask0_1_253)">
<path d="M59.3671 55.5002C58.9382 55.3897 58.5072 55.2872 58.0805 55.1677C56.9494 54.8501 56.0683 54.1966 55.7868 53.043C55.3858 51.4003 56.2285 49.5141 57.896 48.9796C58.4435 48.8038 59.0332 48.728 59.6098 48.6806C60.2445 48.6282 60.8863 48.6502 61.5248 48.6611C61.8428 48.6663 61.9696 48.5665 61.923 48.2352C61.8284 47.5459 61.4264 47.1133 60.7117 47.1224C60.0105 47.1312 59.3098 47.2416 58.6098 47.3177C58.2459 47.3569 57.8832 47.4111 57.5223 47.4725C57.2573 47.5176 57.1087 47.4172 57.0526 47.1628C56.9552 46.7193 56.8247 46.2806 56.7748 45.8307C56.7561 45.6634 56.8869 45.3534 57.0128 45.3153C59.0537 44.7005 61.1179 44.3568 63.1843 45.1797C64.1116 45.549 64.6346 46.2818 64.7666 47.2635C64.8421 47.7966 64.8858 48.3337 64.8974 48.8719C64.9195 50.4624 64.9155 52.0534 64.9198 53.6445C64.9219 54.4214 64.8113 54.6386 64.0764 54.8753C63.4361 55.0816 62.7631 55.1862 62.1053 55.3392C61.8979 55.3876 61.693 55.4472 61.4868 55.5017L59.3671 55.5002ZM61.912 51.7811H61.9135C61.9135 51.4991 61.9368 51.2141 61.9019 50.936C61.8887 50.8302 61.7414 50.6552 61.6568 50.6568C60.9963 50.6689 60.3309 50.675 59.6787 50.7654C59.1662 50.8365 58.8111 51.3242 58.7817 51.828C58.7486 52.3905 58.9753 52.8155 59.5516 52.9502C60.065 53.0719 60.6217 53.0823 61.1513 53.0415C61.912 52.984 61.9089 52.9454 61.9108 52.1836C61.9123 52.0501 61.912 51.9156 61.912 51.7811Z" fill="black"/>
<path d="M89.8004 55.4999C89.4542 55.394 89.1068 55.2915 88.7619 55.182C87.1348 54.6648 86.247 53.4991 85.9649 51.8886C85.8178 51.0492 85.8117 50.1807 85.7973 49.3246C85.7667 47.2365 87.4084 45.2804 89.4717 44.8746C90.8123 44.6108 92.114 44.6312 93.3495 45.2883C94.6022 45.9551 95.282 47.0464 95.5246 48.3867C95.6744 49.2118 95.7198 50.0651 95.7185 50.9056C95.7158 52.9913 94.3139 54.7467 92.2803 55.2915C92.0242 55.36 91.7687 55.4302 91.5126 55.4999H89.8004ZM88.7689 50.0934C88.8388 50.5424 88.9052 50.992 88.9797 51.4405C89.1142 52.2478 89.7523 52.8882 90.4664 52.939C91.3971 53.005 92.1244 52.518 92.4001 51.6638C92.7466 50.5902 92.72 49.5154 92.3802 48.4555C92.1887 47.8574 91.8288 47.3527 91.1367 47.2605C90.3843 47.1601 89.7364 47.3701 89.3075 48.0418C88.9077 48.6672 88.8152 49.3651 88.7689 50.0934Z" fill="black"/>
<path d="M81.1512 55.4997C80.8477 55.3959 80.5437 55.2931 80.2408 55.1879C79.4749 54.9223 78.9369 54.424 78.8747 53.6038C78.7672 52.1822 78.7136 50.7557 78.6667 49.3305C78.6471 48.7391 78.6946 48.144 78.728 47.5523C78.7433 47.2816 78.6272 47.1928 78.3714 47.1955C78.0611 47.1989 77.7418 47.2223 77.4425 47.1608C76.8167 47.0327 77.0648 46.5025 77.0385 46.1289C77.0155 45.8086 76.9144 45.3988 77.456 45.3188C77.7075 45.2823 77.9425 45.1363 78.1937 45.0982C78.7111 45.0198 78.8466 44.6991 78.8438 44.24C78.8416 43.8899 78.8401 43.5331 78.9051 43.192C78.9406 43.0095 79.0843 42.7661 79.2421 42.7053C79.8453 42.4698 80.4714 42.2903 81.0933 42.1042C81.4365 42.0013 81.6405 42.1002 81.6356 42.5045C81.6282 43.164 81.658 43.8245 81.6451 44.484C81.6374 44.868 81.7722 45.0103 82.1723 44.989C82.7002 44.961 83.2323 44.982 83.7601 45.0194C83.8717 45.0271 84.0564 45.1831 84.0637 45.2814C84.0999 45.763 84.0898 46.2485 84.0913 46.7325C84.0913 47.054 83.9195 47.1888 83.6011 47.183C83.0849 47.1751 82.5681 47.1885 82.0519 47.1776C81.756 47.1712 81.6445 47.2859 81.6463 47.5849C81.6555 49.0147 81.642 50.4445 81.6494 51.8743C81.6531 52.6547 81.9637 52.9449 82.7608 52.9114C83.1254 52.8959 83.4869 52.8165 83.8514 52.7897C84.4271 52.7462 84.5141 52.7897 84.6455 53.3373C84.7451 53.7529 84.7772 54.1867 84.8112 54.615C84.8358 54.9217 84.6887 55.1298 84.36 55.1821C84.0392 55.2329 83.7185 55.2858 83.4008 55.3509C83.2191 55.3883 83.0433 55.4522 82.8647 55.503L81.1512 55.4997Z" fill="black"/>
<path d="M57.841 35.0302C58.17 34.5161 58.476 34.0457 58.7747 33.5699C61.4496 29.3144 64.1237 25.0581 66.7972 20.8011C68.0805 18.7586 69.3739 16.7219 70.6422 14.6702C71.0157 14.0658 71.5613 13.7323 72.2046 13.5246C72.6335 13.3858 73.4221 13.8562 73.6932 14.391C74.4417 15.8658 75.1872 17.3422 75.9296 18.8201C77.6498 22.2285 79.3703 25.6369 81.091 29.0453C82.5786 31.9987 84.0631 34.9537 85.5445 37.9105C85.7436 38.306 85.9675 38.6923 86.1412 39.0991C86.3149 39.5058 86.2175 39.7154 85.7773 39.733C84.7473 39.7738 83.7146 39.7677 82.6831 39.744C82.2597 39.734 81.9604 39.4626 81.7702 39.089C81.2825 38.1309 80.7959 37.1725 80.3104 36.2136C78.554 32.7477 76.7976 29.2818 75.0411 25.8158C74.0982 23.9579 73.1418 22.1071 72.204 20.2462C72.0407 19.9216 71.9261 19.9724 71.7681 20.2264C71.0048 21.4482 70.2403 22.67 69.4744 23.8919C67.7131 26.6988 65.9515 29.5063 64.1898 32.3144C62.8183 34.5078 61.4633 36.7116 60.0884 38.9019C59.8825 39.2296 59.6203 39.5317 59.3436 39.8048C58.9181 40.2253 58.3743 40.2916 57.8802 39.9995C57.2907 39.65 56.7356 39.2308 56.2109 38.7885C53.6543 36.6331 51.1134 34.4604 48.5658 32.2935C48.0821 31.8825 48.0144 31.8922 47.7197 32.4742C46.9489 33.9977 46.1946 35.5294 45.4254 37.0538C44.3293 39.2256 43.2197 41.3916 42.126 43.564C40.3767 47.0347 38.6305 50.5069 36.8873 53.9807C36.7809 54.1977 36.6628 54.4089 36.5338 54.6134C36.3092 54.9615 36.0044 55.1787 35.5627 55.1747C34.5983 55.1662 33.6326 55.1863 32.6695 55.1586C32.1686 55.1443 32.0745 55.0065 32.2767 54.5547C32.6943 53.6247 33.1446 52.7081 33.6032 51.7967C35.0296 48.962 36.4617 46.13 37.8995 43.3006C39.5091 40.1236 41.1195 36.9471 42.7307 33.7713C43.7074 31.8414 44.6736 29.9078 45.6524 27.9779C45.7813 27.7258 45.9347 27.4869 46.1104 27.2645C46.7277 26.4811 47.5334 26.3558 48.3115 26.9782C49.3682 27.8239 50.3905 28.7122 51.4219 29.589C53.4426 31.3066 55.4614 33.0266 57.4782 34.7491C57.5689 34.8276 57.6682 34.8972 57.841 35.0302Z" fill="#FF0000"/>
<path d="M70.4414 48.3448C70.5455 48.1903 70.6381 48.0266 70.7554 47.883C71.3191 47.1919 71.9146 46.525 72.4492 45.8144C72.887 45.2312 73.4182 44.9531 74.1535 44.9957C74.7355 45.0292 75.3216 44.993 75.9055 45.0064C76.0694 45.0103 76.2318 45.0806 76.5066 45.1481C76.195 45.5524 75.9551 45.8865 75.6917 46.2019C75.1032 46.908 74.4969 47.5983 73.9173 48.3123C73.8318 48.4179 73.7947 48.6469 73.8517 48.7686C74.5337 50.2431 75.2392 51.7073 75.9349 53.1764C76.1761 53.6861 76.4102 54.199 76.6371 54.7151C76.7713 55.0193 76.6536 55.1909 76.3258 55.1961C75.5651 55.2079 74.8042 55.2049 74.0435 55.2119C73.7145 55.2149 73.5184 55.0479 73.3928 54.7589C72.9388 53.7136 72.4804 52.67 72.0176 51.6279C71.9156 51.3986 71.7817 51.1832 71.6193 50.882C70.9947 51.5933 70.1761 52.0824 70.2214 53.1372C70.2438 53.6622 70.2383 54.1891 70.2352 54.7151C70.2334 55.0437 70.0934 55.2575 69.7236 55.253C69.1256 55.246 68.527 55.2557 67.9296 55.2335C67.3475 55.2119 67.2556 55.0954 67.2538 54.5283C67.2446 50.3873 67.2344 46.2464 67.2232 42.1054C67.2232 41.9165 67.2176 41.7275 67.2232 41.5389C67.2323 41.256 67.3843 41.0625 67.6658 41.0558C68.4127 41.0385 69.1602 41.0415 69.9074 41.0558C70.2337 41.0616 70.2349 41.3229 70.2352 41.5587C70.2364 42.7863 70.2364 44.0139 70.2352 45.2415C70.2352 46.1049 70.2352 46.9683 70.2374 47.8316C70.2374 47.9688 70.2591 48.1054 70.2711 48.2429L70.4414 48.3448Z" fill="black"/>
<path d="M45.4825 51.2651C45.435 49.8244 45.3367 48.4359 45.36 47.0511C45.379 45.9687 45.4739 44.8748 45.6731 43.8113C45.8964 42.619 47.0418 41.7167 48.3736 41.6793C50.5042 41.6185 52.638 41.6574 54.7702 41.6458C55.0505 41.6443 55.174 41.7715 55.1798 42.0264C55.1933 42.6044 55.2028 43.1846 55.2012 43.7635C55.2012 44.0409 55.0631 44.225 54.765 44.2502C54.4669 44.2755 54.1707 44.3166 53.8738 44.3144C52.5966 44.305 51.3197 44.2651 50.0444 44.2688C48.7691 44.2724 48.5203 44.5325 48.5151 45.7899C48.5151 46.0865 48.5325 46.3843 48.5114 46.6794C48.4897 46.9857 48.6324 47.0947 48.9152 47.0928C49.6354 47.088 50.355 47.0794 51.0756 47.0849C52.0253 47.0925 52.975 47.1202 53.9262 47.1223C54.2571 47.1223 54.4194 47.3003 54.4237 47.5808C54.4335 48.1448 54.413 48.7089 54.3624 49.2707C54.3514 49.3897 54.1694 49.5634 54.042 49.588C53.6956 49.6513 53.3437 49.6806 52.9915 49.6753C51.7823 49.668 50.5732 49.6263 49.3643 49.6291C48.5145 49.6312 48.5234 49.654 48.5243 50.4979C48.5243 51.8997 48.5053 53.3022 48.5148 54.704C48.5172 55.0481 48.3922 55.2136 48.0531 55.2099C47.2835 55.2023 46.5137 55.1986 45.7453 55.1621C45.6534 55.1579 45.4975 54.9611 45.496 54.8515C45.4758 53.6389 45.4825 52.426 45.4825 51.2651Z" fill="black"/>
<path d="M100.582 51.568C100.582 52.5649 100.577 53.5618 100.584 54.5588C100.588 54.9679 100.466 55.2232 99.9932 55.228C99.4384 55.2329 98.8839 55.3016 98.33 55.2965C97.7761 55.2913 97.6422 55.1626 97.5715 54.6147C97.5271 54.271 97.5335 53.9196 97.5347 53.5716C97.5378 52.6428 97.55 51.714 97.5601 50.785C97.5724 49.6271 97.5295 48.4647 97.6159 47.312C97.6983 46.2169 98.3554 45.4581 99.3756 45.0374C100.697 44.4923 102.069 44.4634 103.448 44.7454C103.607 44.7779 103.822 45.0657 103.822 45.2349C103.822 45.8631 103.756 46.4931 103.676 47.1173C103.665 47.2086 103.442 47.3303 103.312 47.3358C102.662 47.3695 102.01 47.3577 101.36 47.386C100.858 47.4079 100.62 47.5962 100.603 48.0969C100.569 49.1185 100.596 50.1418 100.598 51.1643C100.598 51.299 100.598 51.4337 100.598 51.5686L100.582 51.568Z" fill="black"/>
</g>
</svg>
