<svg width="136" height="69" viewBox="0 0 136 69" fill="none" xmlns="http://www.w3.org/2000/svg">
<path fill-rule="evenodd" clip-rule="evenodd" d="M9.02344 30.7141H16.5158V28.9312C16.5158 26.7587 18.2835 24.9923 20.4547 24.9923H30.8327V17.5H20.4547C14.1519 17.5 9.02344 22.627 9.02344 28.9299V30.7141ZM9.02344 49.5H16.5158V41.4625C16.5158 39.29 18.2835 37.5236 20.4547 37.5236H30.8327V30.0313H20.4547C14.1519 30.0313 9.02344 35.1597 9.02344 41.4625V49.5ZM42.6094 23.0993H44.0288V31.7233H46.1532V23.0993H48.2073V21.4444H46.1229V20.4752C46.1229 19.5651 46.5538 19.1053 47.4735 19.1053C47.7585 19.1053 48.0421 19.126 48.2472 19.1645V17.5977C47.9732 17.5496 47.4941 17.5 47.0632 17.5C44.9691 17.5 44.0288 18.4403 44.0288 20.4366V21.4444H42.6094V23.0993ZM50.7102 17.5C50.0343 17.5 49.4863 18.0383 49.4863 18.7143C49.4863 19.3793 50.0343 19.9176 50.7102 19.919C51.3959 19.919 51.9438 19.3793 51.9438 18.7143C51.9438 18.0383 51.3959 17.5 50.7102 17.5ZM49.6529 21.4251V31.7233H51.7676V21.4251H49.6529ZM52.8691 26.5744C52.8691 23.3252 54.5915 21.2587 57.1756 21.2587C58.6543 21.2587 59.8287 22.0022 60.4055 23.138H60.4441V17.5979H62.5684V31.7221H60.5143V29.9708H60.4757C59.8686 31.1452 58.6942 31.8997 57.1963 31.8997C54.5915 31.8997 52.8691 29.8235 52.8691 26.5744ZM55.032 26.5744C55.032 28.7469 56.0797 30.1085 57.7539 30.1085C59.3785 30.1085 60.4647 28.729 60.4647 26.5744C60.4647 24.4404 59.3785 23.0402 57.7539 23.0402C56.0797 23.0402 55.032 24.4115 55.032 26.5744ZM68.5546 21.2399C65.6179 21.2399 63.6698 23.2665 63.6698 26.5749C63.6698 29.8929 65.6083 31.9195 68.5546 31.9195C71.5008 31.9195 73.4393 29.8929 73.4393 26.5749C73.4393 23.2665 71.4912 21.2399 68.5546 21.2399ZM68.5546 22.9829C70.2094 22.9829 71.2861 24.2936 71.2861 26.5749C71.2861 28.8644 70.2191 30.1765 68.5546 30.1765C66.8997 30.1765 65.8231 28.8658 65.8231 26.5749C65.8231 24.295 66.8997 22.9829 68.5546 22.9829ZM81.7812 21.2399C84.0722 21.2399 85.6775 22.5217 85.7449 24.3528H83.7583C83.6605 23.4235 82.9061 22.8452 81.722 22.8452C80.5766 22.8452 79.8139 23.4028 79.8139 24.2151C79.8139 24.8512 80.3233 25.2821 81.3903 25.5464L83.1222 25.9484C85.197 26.4482 85.9804 27.2302 85.9804 28.7474C85.9804 30.6267 84.2277 31.9195 81.7028 31.9195C79.2659 31.9195 77.651 30.657 77.4844 28.768H79.5784C79.745 29.7566 80.5078 30.3045 81.8005 30.3045C83.0726 30.3045 83.856 29.7758 83.856 28.9443C83.856 28.2889 83.465 27.9268 82.3884 27.6529L80.5477 27.2027C78.6877 26.7525 77.7487 25.7832 77.7487 24.3445C77.7473 22.5024 79.3733 21.2399 81.7812 21.2399ZM89.7649 21.4258V18.9889H87.6406V21.4258H86.1427V23.0999H87.6406V29.0103C87.6406 30.997 88.4543 31.79 90.5387 31.79C91.0081 31.79 91.4776 31.7515 91.713 31.6923V30.0181C91.5754 30.0484 91.2326 30.0677 91.0178 30.0677C90.1559 30.0677 89.7649 29.6671 89.7649 28.7763V23.0999H91.7227V21.4258H89.7649ZM101.68 31.7236H99.6545V29.9806H99.6049C99.0377 31.2142 97.99 31.9094 96.4136 31.9094C94.1722 31.9094 92.801 30.4514 92.801 28.0917V21.4254H94.9157V27.68C94.9157 29.2468 95.6591 30.088 97.1185 30.088C98.6453 30.088 99.565 29.0306 99.565 27.4253V21.4254H101.68V31.7236ZM107.012 21.2587C104.427 21.2587 102.705 23.3252 102.705 26.5744C102.705 29.8235 104.427 31.8997 107.031 31.8997C108.529 31.8997 109.703 31.1452 110.31 29.9708H110.349V31.7221H112.404V17.5979H110.28V23.138H110.241C109.665 22.0022 108.49 21.2587 107.012 21.2587ZM107.59 30.1085C105.916 30.1085 104.868 28.7469 104.868 26.5744C104.868 24.4115 105.916 23.0402 107.59 23.0402C109.214 23.0402 110.301 24.4404 110.301 26.5744C110.301 28.729 109.214 30.1085 107.59 30.1085ZM113.869 18.7143C113.869 18.0383 114.417 17.5 115.093 17.5C115.779 17.5 116.327 18.0383 116.327 18.7143C116.327 19.3793 115.779 19.919 115.093 19.919C114.417 19.9176 113.869 19.3793 113.869 18.7143ZM116.15 21.4251V31.7233H114.036V21.4251H116.15ZM122.137 21.2399C119.2 21.2399 117.252 23.2665 117.252 26.5749C117.252 29.8929 119.191 31.9195 122.137 31.9195C125.083 31.9195 127.022 29.8929 127.022 26.5749C127.022 23.2665 125.074 21.2399 122.137 21.2399ZM122.136 22.9829C123.79 22.9829 124.867 24.2936 124.867 26.5749C124.867 28.8644 123.8 30.1765 122.136 30.1765C120.481 30.1765 119.404 28.8658 119.404 26.5749C119.404 24.295 120.481 22.9829 122.136 22.9829ZM82.5447 38.4118C82.5447 38.2273 82.6948 38.08 82.8779 38.08C83.0651 38.08 83.2138 38.2273 83.2138 38.4118C83.2138 38.5936 83.0638 38.7409 82.8779 38.7409C82.6948 38.7409 82.5447 38.5936 82.5447 38.4118ZM82.5902 39.1511H83.167V41.9597H82.5902V39.1511ZM79.5101 39.1057C78.8052 39.1057 78.3358 39.6688 78.3358 40.5554C78.3358 41.442 78.8066 42.0079 79.5156 42.0079C79.9245 42.0079 80.2453 41.8028 80.4105 41.482H80.4215V41.9597H80.9819V38.1062H80.4023V39.6178H80.3913C80.2343 39.3081 79.9135 39.1057 79.5101 39.1057ZM79.6685 41.5191C79.2127 41.5191 78.9264 41.1488 78.9264 40.5554C78.9264 39.9662 79.2114 39.5917 79.6685 39.5917C80.1118 39.5917 80.4078 39.973 80.4078 40.5554C80.4078 41.1433 80.1118 41.5191 79.6685 41.5191ZM44.952 41.9598H45.5178L46.3507 39.0548H46.3769L47.2098 41.9598H47.7729L48.8138 38.1062H48.1915L47.4783 41.1241H47.4563L46.6399 38.1062H46.085L45.27 41.1241H45.2493L44.5362 38.1062H43.9139L44.952 41.9598ZM50.0549 42.0134C50.6992 42.0134 51.1852 41.6472 51.265 41.135V41.1337H50.7157C50.6386 41.3801 50.3963 41.5453 50.0673 41.5453C49.6047 41.5453 49.3114 41.2218 49.3114 40.733V40.6986H51.2953V40.5017C51.2953 39.6509 50.8093 39.1002 50.0301 39.1002C49.2371 39.1002 48.7304 39.6881 48.7304 40.5692C48.7304 41.4558 49.2302 42.0134 50.0549 42.0134ZM50.7198 40.2966H49.3155C49.3445 39.8726 49.6294 39.5655 50.0315 39.5655C50.4335 39.5655 50.7061 39.8671 50.7198 40.2966ZM52.6287 41.1633C52.6287 40.6718 53.0046 40.3702 53.6723 40.3331L54.4405 40.2876V40.0715C54.4405 39.759 54.2299 39.5717 53.8774 39.5717C53.5443 39.5717 53.335 39.7314 53.2841 39.9834H52.7389C52.7705 39.4767 53.2028 39.1022 53.8981 39.1022C54.5796 39.1022 55.0146 39.463 55.0146 40.0261V41.9618H54.4626V41.4992H54.4488C54.2863 41.8117 53.9311 42.0086 53.5622 42.0086C53.0128 42.0086 52.6287 41.6671 52.6287 41.1633ZM54.4419 40.9086V40.6869L53.7508 40.7296C53.4066 40.753 53.2111 40.9058 53.2111 41.1467C53.2111 41.3918 53.4135 41.5529 53.7232 41.5529C54.1266 41.5529 54.4419 41.2748 54.4419 40.9086ZM56.072 39.1516H55.5227V41.9615H56.0995V40.2792C56.0995 39.8813 56.3281 39.6335 56.6998 39.6335C56.8113 39.6335 56.9132 39.6458 56.9586 39.6651V39.1282C56.916 39.1199 56.8444 39.1062 56.7618 39.1062C56.43 39.1062 56.1794 39.3003 56.0858 39.6293H56.072V39.1516ZM59.5483 41.135C59.4685 41.6472 58.9825 42.0134 58.3382 42.0134C57.5135 42.0134 57.0137 41.4558 57.0137 40.5692C57.0137 39.6881 57.5204 39.1002 58.3134 39.1002C59.0926 39.1002 59.5786 39.6509 59.5786 40.5017V40.6986H57.5947V40.733C57.5947 41.2218 57.888 41.5453 58.3505 41.5453C58.6796 41.5453 58.9219 41.3801 58.999 41.1337H59.5483V41.135ZM57.5988 40.2966H59.0031C58.9894 39.8671 58.7168 39.5655 58.3148 39.5655C57.9127 39.5655 57.6278 39.8726 57.5988 40.2966ZM62.2266 42.0135C62.8709 42.0135 63.3569 41.6473 63.4368 41.1351V41.1338H62.8874C62.8103 41.3802 62.568 41.5454 62.239 41.5454C61.7764 41.5454 61.4831 41.2219 61.4831 40.7331V40.6987H63.4671V40.5018C63.4671 39.651 62.9811 39.1003 62.2018 39.1003C61.4088 39.1003 60.9022 39.6882 60.9022 40.5693C60.9022 41.4559 61.4019 42.0135 62.2266 42.0135ZM62.8916 40.2967H61.4873C61.5162 39.8727 61.8012 39.5656 62.2032 39.5656C62.6052 39.5656 62.8778 39.8671 62.8916 40.2967ZM63.8586 39.1514H64.4079V39.6209H64.4217C64.5745 39.3001 64.8733 39.1032 65.3056 39.1032C65.9251 39.1032 66.2803 39.4984 66.2803 40.1413V41.96H65.7007V40.2542C65.7007 39.8329 65.5025 39.6002 65.1032 39.6002C64.6971 39.6002 64.4355 39.888 64.4355 40.3244V41.9614H63.8586V39.1514ZM67.3362 42.1791H66.7566C66.8282 42.6665 67.3197 43.0175 67.9833 43.0175C68.7845 43.0175 69.3022 42.5797 69.3022 41.9092V39.1516H68.7419V39.6321H68.7308C68.5601 39.3072 68.2338 39.1062 67.8359 39.1062C67.1145 39.1062 66.6561 39.661 66.6561 40.5449C66.6561 41.4205 67.1173 41.9712 67.8222 41.9712C68.2228 41.9712 68.5546 41.7702 68.7116 41.4659H68.7226V41.9285C68.7226 42.3126 68.4555 42.5687 68.0039 42.5687C67.6749 42.5687 67.4188 42.4145 67.3362 42.1791ZM67.9764 39.5935C68.428 39.5935 68.724 39.9721 68.724 40.549C68.724 41.1272 68.428 41.4935 67.9764 41.4948C67.5331 41.4948 67.2453 41.1369 67.2453 40.549C67.2453 39.9653 67.5331 39.5935 67.9764 39.5935ZM69.7029 41.1633C69.7029 40.6718 70.0788 40.3702 70.7465 40.3331L71.5148 40.2876V40.0715C71.5148 39.759 71.3041 39.5717 70.9517 39.5717C70.6185 39.5717 70.4092 39.7314 70.3583 39.9834H69.8131C69.8447 39.4767 70.277 39.1022 70.9723 39.1022C71.6538 39.1022 72.0889 39.463 72.0889 40.0261V41.9618H71.5368V41.4992H71.523C71.3606 41.8117 71.0054 42.0086 70.6364 42.0086C70.0884 42.0086 69.7029 41.6671 69.7029 41.1633ZM71.5161 40.9086V40.6869L70.825 40.7296C70.4808 40.753 70.2853 40.9058 70.2853 41.1467C70.2853 41.3918 70.4877 41.5529 70.7975 41.5529C71.2009 41.5529 71.5161 41.2748 71.5161 40.9086ZM73.1485 42.1792H72.5689C72.6419 42.6665 73.1334 43.0176 73.7956 43.0176C74.5969 43.0176 75.1145 42.5798 75.1145 41.9093V39.1517H74.5542V39.6322H74.5432C74.3725 39.3072 74.0462 39.1062 73.6483 39.1062C72.9269 39.1062 72.4684 39.6611 72.4684 40.545C72.4684 41.4206 72.9296 41.9713 73.6345 41.9713C74.0352 41.9713 74.367 41.7703 74.5239 41.466H74.5349V41.9286C74.5349 42.3127 74.2678 42.5688 73.8163 42.5688C73.4872 42.5688 73.2311 42.4146 73.1485 42.1792ZM73.7901 39.5936C74.2417 39.5936 74.5377 39.9722 74.5377 40.5491C74.5377 41.1273 74.2417 41.4935 73.7901 41.4949C73.3468 41.4949 73.059 41.137 73.059 40.5491C73.059 39.9653 73.3468 39.5936 73.7901 39.5936ZM78.0383 41.1351C77.9585 41.6473 77.4725 42.0135 76.8282 42.0135C76.0035 42.0135 75.5037 41.4559 75.5037 40.5693C75.5037 39.6882 76.0104 39.1003 76.8034 39.1003C77.5826 39.1003 78.0686 39.651 78.0686 40.5018V40.6987H76.0847V40.7331C76.0847 41.2219 76.378 41.5454 76.8405 41.5454C77.1696 41.5454 77.4119 41.3802 77.489 41.1338H78.0383V41.1351ZM76.0888 40.2967H77.4931C77.4794 39.8671 77.2068 39.5656 76.8047 39.5656C76.4027 39.5656 76.1178 39.8727 76.0888 40.2967ZM84.2536 39.1514H83.7043V41.9614H84.2812V40.3244C84.2812 39.888 84.5428 39.6002 84.9489 39.6002C85.3482 39.6002 85.5464 39.8329 85.5464 40.2542V41.96H86.126V40.1413C86.126 39.4984 85.7708 39.1032 85.1513 39.1032C84.719 39.1032 84.4202 39.3001 84.2674 39.6209H84.2536V39.1514ZM88.4258 38.4863V39.1513H88.96V39.6083H88.4258V41.1572C88.4258 41.4009 88.5332 41.5096 88.7673 41.5096C88.8265 41.5096 88.9201 41.5041 88.9573 41.4959V41.953C88.8925 41.9695 88.7645 41.9791 88.6365 41.9791C88.0679 41.9791 87.8462 41.763 87.8462 41.2205V39.6083H87.4373V39.1513H87.8462V38.4863H88.4258ZM89.9698 38.1072H89.3998V41.9608H89.9766V40.3376C89.9766 39.8943 90.2382 39.601 90.665 39.601C91.0712 39.601 91.2791 39.8488 91.2791 40.2633V41.9608H91.8587V40.1504C91.8587 39.5157 91.4897 39.104 90.8729 39.104C90.4461 39.104 90.1377 39.2926 89.9835 39.6217H89.9698V38.1072ZM94.7688 41.1351C94.6889 41.6473 94.203 42.0135 93.5586 42.0135C92.7339 42.0135 92.2342 41.4559 92.2342 40.5693C92.2342 39.6882 92.7408 39.1003 93.5338 39.1003C94.3131 39.1003 94.7991 39.651 94.7991 40.5018V40.6987H92.8152V40.7331C92.8152 41.2219 93.1084 41.5454 93.571 41.5454C93.9001 41.5454 94.1424 41.3802 94.2195 41.1338H94.7688V41.1351ZM92.8193 40.2967H94.2236C94.2098 39.8671 93.9372 39.5656 93.5352 39.5656C93.1332 39.5656 92.8482 39.8727 92.8193 40.2967ZM97.1762 40.3331C96.5085 40.3702 96.1326 40.6718 96.1326 41.1633C96.1326 41.6671 96.5181 42.0086 97.0661 42.0086C97.435 42.0086 97.7903 41.8117 97.9527 41.4992H97.9665V41.9618H98.5186V40.0261C98.5186 39.463 98.0835 39.1022 97.402 39.1022C96.7067 39.1022 96.2744 39.4767 96.2428 39.9834H96.788C96.8389 39.7314 97.0482 39.5717 97.3813 39.5717C97.7338 39.5717 97.9444 39.759 97.9444 40.0715V40.2876L97.1762 40.3331ZM97.9458 40.6869V40.9086C97.9458 41.2748 97.6305 41.5529 97.2271 41.5529C96.9174 41.5529 96.715 41.3918 96.715 41.1467C96.715 40.9058 96.9105 40.753 97.2547 40.7296L97.9458 40.6869ZM99.0266 39.1514H99.5759V39.6209H99.5897C99.7425 39.3001 100.041 39.1032 100.474 39.1032C101.093 39.1032 101.448 39.4984 101.448 40.1413V41.96H100.869V40.2542C100.869 39.8329 100.67 39.6002 100.271 39.6002C99.865 39.6002 99.6034 39.888 99.6034 40.3244V41.9614H99.0266V39.1514ZM102.877 40.3331C102.21 40.3702 101.834 40.6718 101.834 41.1633C101.834 41.6671 102.219 42.0086 102.767 42.0086C103.136 42.0086 103.491 41.8117 103.654 41.4992H103.668V41.9618H104.22V40.0261C104.22 39.463 103.785 39.1022 103.103 39.1022C102.408 39.1022 101.976 39.4767 101.944 39.9834H102.489C102.54 39.7314 102.749 39.5717 103.083 39.5717C103.435 39.5717 103.646 39.759 103.646 40.0715V40.2876L102.877 40.3331ZM103.647 40.6869V40.9086C103.647 41.2748 103.332 41.5529 102.928 41.5529C102.619 41.5529 102.416 41.3918 102.416 41.1467C102.416 40.9058 102.612 40.753 102.956 40.7296L103.647 40.6869ZM105.473 38.4863V39.1513H106.007V39.6083H105.473V41.1572C105.473 41.4009 105.58 41.5096 105.814 41.5096C105.873 41.5096 105.967 41.5041 106.004 41.4959V41.953C105.939 41.9695 105.811 41.9791 105.683 41.9791C105.115 41.9791 104.893 41.763 104.893 41.2205V39.6083H104.484V39.1513H104.893V38.4863H105.473ZM107.565 39.1003C106.764 39.1003 106.232 39.6524 106.232 40.5555C106.232 41.4614 106.761 42.0135 107.565 42.0135C108.369 42.0135 108.898 41.4601 108.898 40.5555C108.898 39.6524 108.366 39.1003 107.565 39.1003ZM107.565 39.5753C108.017 39.5753 108.31 39.9332 108.31 40.5555C108.31 41.1806 108.018 41.5385 107.565 41.5385C107.113 41.5385 106.82 41.1806 106.82 40.5555C106.82 39.9332 107.113 39.5753 107.565 39.5753ZM109.291 39.1514H109.842V39.6236H109.855C109.981 39.3111 110.274 39.1032 110.654 39.1032C111.043 39.1032 111.327 39.3042 111.439 39.6539H111.452C111.597 39.3125 111.927 39.1032 112.328 39.1032C112.883 39.1032 113.246 39.4722 113.246 40.0298V41.96H112.667V40.1688C112.667 39.8054 112.471 39.5975 112.13 39.5975C111.788 39.5975 111.55 39.8508 111.55 40.206V41.96H110.984V40.1262C110.984 39.8026 110.779 39.5975 110.453 39.5975C110.111 39.5975 109.868 39.8646 109.868 40.2253V41.9614H109.291V39.1514ZM113.786 42.526V42.9927C113.829 43.001 113.976 43.0065 114.023 43.0079C114.608 43.0079 114.882 42.789 115.123 42.1075L116.178 39.1516H115.569L114.856 41.437H114.848L114.135 39.1516H113.51L114.524 41.9629C114.524 41.9629 114.516 41.9931 114.505 42.0271C114.491 42.0751 114.473 42.1332 114.473 42.1364C114.385 42.4255 114.243 42.537 113.974 42.537C113.925 42.537 113.829 42.537 113.786 42.526ZM43.9549 47.0372C43.9549 46.1354 44.4863 45.582 45.2876 45.582C46.0889 45.582 46.6203 46.1341 46.6203 47.0372C46.6203 47.9417 46.0916 48.4952 45.2876 48.4952C44.4836 48.4952 43.9549 47.9431 43.9549 47.0372ZM46.0324 47.0372C46.0324 46.4149 45.7392 46.057 45.2876 46.057C44.836 46.057 44.5428 46.4149 44.5428 47.0372C44.5428 47.6623 44.836 48.0202 45.2876 48.0202C45.7419 48.0202 46.0324 47.6623 46.0324 47.0372ZM46.7929 46.0891H47.1798V48.4406H47.7594V46.0877H48.3197V45.6361H47.7511V45.3718C47.7511 45.1226 47.8695 44.9973 48.1201 44.9973C48.1972 44.9973 48.2743 45.0028 48.3308 45.0139V44.5871C48.255 44.5747 48.1242 44.5609 48.0072 44.5609C47.4359 44.5609 47.1798 44.817 47.1798 45.3622V45.6375H46.7929V46.0891ZM52.1813 48.4421H51.6292V47.9671H51.6154C51.4613 48.303 51.1749 48.493 50.7453 48.493C50.1341 48.493 49.7596 48.0951 49.7596 47.4522V45.6335H50.3364V47.3393C50.3364 47.7661 50.5388 47.996 50.9367 47.996C51.3539 47.996 51.6044 47.7083 51.6044 47.2705V45.6335H52.1813V48.4421ZM54.8258 46.4314C54.8079 45.9317 54.3701 45.582 53.7451 45.582C53.0884 45.582 52.645 45.9262 52.6423 46.4259C52.6423 46.8183 52.8997 47.0827 53.4064 47.2052L53.9089 47.3277C54.2022 47.4021 54.3095 47.5012 54.3095 47.6802C54.3095 47.9073 54.0961 48.0519 53.7492 48.0519C53.3968 48.0519 53.1889 47.9032 53.1434 47.6334H52.5721C52.6175 48.1496 53.0581 48.4938 53.723 48.4938C54.4114 48.4938 54.8892 48.1414 54.8892 47.6292C54.8892 47.2148 54.6758 47.0014 54.1099 46.8651L53.6377 46.7564C53.3472 46.6834 53.2081 46.5664 53.2081 46.3929C53.2081 46.1726 53.416 46.0198 53.7286 46.0198C54.0507 46.0198 54.2572 46.1781 54.2834 46.4314H54.8258ZM57.6926 47.6168C57.6128 48.129 57.1268 48.4952 56.4825 48.4952C55.6578 48.4952 55.158 47.9376 55.158 47.051C55.158 46.1699 55.6647 45.582 56.4577 45.582C57.2369 45.582 57.7229 46.1327 57.7229 46.9835V47.1804H55.739V47.2148C55.739 47.7036 56.0323 48.0271 56.4949 48.0271C56.8239 48.0271 57.0662 47.8619 57.1433 47.6155H57.6926V47.6168ZM55.7431 46.7784H57.1474C57.1337 46.3488 56.8611 46.0473 56.4591 46.0473C56.057 46.0473 55.772 46.3543 55.7431 46.7784ZM58.6677 45.6325H58.1184V48.4425H58.6952V46.7601C58.6952 46.3622 58.9238 46.1144 59.2955 46.1144C59.407 46.1144 59.5089 46.1268 59.5543 46.1461V45.6091C59.5117 45.6009 59.4401 45.5871 59.3575 45.5871C59.0257 45.5871 58.7751 45.7812 58.6815 46.1103H58.6677V45.6325ZM60.8846 44.8928C60.8846 44.7083 61.0346 44.561 61.2178 44.561C61.405 44.561 61.5537 44.7083 61.5537 44.8928C61.5537 45.0745 61.4036 45.2218 61.2178 45.2218C61.0333 45.2218 60.8846 45.0745 60.8846 44.8928ZM60.93 45.6321H61.5069V48.4407H60.93V45.6321ZM62.5935 45.6324H62.0442V48.4423H62.621V46.8054C62.621 46.3689 62.8826 46.0812 63.2887 46.0812C63.688 46.0812 63.8863 46.3139 63.8863 46.7352V48.441H64.4659V46.6223C64.4659 45.9793 64.1107 45.5842 63.4911 45.5842C63.0588 45.5842 62.7601 45.7811 62.6073 46.1018H62.5935V45.6324ZM65.711 44.9672V45.6322H66.2452V46.0893H65.711V47.6381C65.711 47.8818 65.8184 47.9906 66.0524 47.9906C66.1116 47.9906 66.2052 47.9851 66.2424 47.9768V48.4339C66.1777 48.4504 66.0497 48.4601 65.9216 48.4601C65.353 48.4601 65.1314 48.2439 65.1314 47.7015V46.0893H64.7225V45.6322H65.1314V44.9672H65.711ZM67.7948 48.4953C68.4392 48.4953 68.9252 48.1291 69.005 47.6169V47.6155H68.4571C68.38 47.862 68.1377 48.0272 67.8086 48.0272C67.346 48.0272 67.0528 47.7037 67.0528 47.2149V47.1805H69.0353V46.9836C69.0353 46.1328 68.5493 45.5821 67.7701 45.5821C66.9771 45.5821 66.4704 46.1699 66.4704 47.0511C66.4704 47.9377 66.9702 48.4953 67.7948 48.4953ZM68.4598 46.7785H67.0555C67.0844 46.3544 67.3694 46.0474 67.7714 46.0474C68.1735 46.0474 68.4461 46.3489 68.4598 46.7785ZM69.4309 45.6325H69.9802V46.1103H69.994C70.0876 45.7812 70.3382 45.5871 70.67 45.5871C70.7526 45.5871 70.8242 45.6009 70.8668 45.6091V46.1461C70.8214 46.1268 70.7195 46.1144 70.608 46.1144C70.2363 46.1144 70.0077 46.3622 70.0077 46.7601V48.4425H69.4309V45.6325ZM70.949 46.0892H71.3359V48.4407H71.9155V46.0878H72.4759V45.6362H71.9073V45.3719C71.9073 45.1227 72.0257 44.9974 72.2762 44.9974C72.3533 44.9974 72.4304 45.0029 72.4869 45.0139V44.5871C72.4112 44.5748 72.2804 44.561 72.1633 44.561C71.592 44.561 71.3359 44.8171 71.3359 45.3623V45.6376H70.949V46.0892ZM72.609 47.6441C72.609 47.1526 72.9849 46.8511 73.6526 46.8139L74.4208 46.7685V46.5523C74.4208 46.2398 74.2102 46.0526 73.8577 46.0526C73.5246 46.0526 73.3153 46.2123 73.2644 46.4642H72.7192C72.7508 45.9576 73.1831 45.5831 73.8784 45.5831C74.5599 45.5831 74.995 45.9438 74.995 46.5069V48.4426H74.4429V47.98H74.4291C74.2666 48.2925 73.9114 48.4894 73.5425 48.4894C72.9931 48.4894 72.609 48.148 72.609 47.6441ZM74.4222 47.3894V47.1677L73.7311 47.2104C73.3869 47.2338 73.1914 47.3866 73.1914 47.6276C73.1914 47.8726 73.3938 48.0337 73.7036 48.0337C74.1069 48.0337 74.4222 47.7556 74.4222 47.3894ZM76.7019 46.0626C77.0777 46.0626 77.3021 46.3007 77.3613 46.5995H77.9107C77.8611 46.046 77.4205 45.5821 76.6964 45.5821C75.8978 45.5821 75.3747 46.1452 75.3747 47.0373C75.3747 47.9446 75.8978 48.4953 76.7019 48.4953C77.3765 48.4953 77.8542 48.0891 77.9162 47.4916H77.3613C77.2952 47.8166 77.0626 48.0121 76.7074 48.0121C76.2585 48.0121 75.9625 47.6541 75.9625 47.0373C75.9625 46.4343 76.2558 46.0626 76.7019 46.0626ZM80.679 47.6168C80.5991 48.129 80.1131 48.4952 79.4688 48.4952C78.6441 48.4952 78.1443 47.9376 78.1443 47.051C78.1443 46.1699 78.651 45.582 79.444 45.582C80.2233 45.582 80.7092 46.1327 80.7092 46.9835V47.1804H78.7253V47.2148C78.7253 47.7036 79.0186 48.0271 79.4812 48.0271C79.8102 48.0271 80.0525 47.8619 80.1296 47.6155H80.679V47.6168ZM78.7295 46.7784H80.1338C80.12 46.3488 79.8474 46.0473 79.4454 46.0473C79.0434 46.0473 78.7598 46.3543 78.7295 46.7784ZM83.0881 46.8139C82.4204 46.8511 82.0445 47.1526 82.0445 47.6441C82.0445 48.148 82.4287 48.4894 82.978 48.4894C83.347 48.4894 83.7022 48.2925 83.8646 47.98H83.8784V48.4426H84.4305V46.5069C84.4305 45.9438 83.9954 45.5831 83.3139 45.5831C82.6187 45.5831 82.1864 45.9576 82.1547 46.4642H82.6999C82.7508 46.2123 82.9601 46.0526 83.2933 46.0526C83.6457 46.0526 83.8564 46.2398 83.8564 46.5523V46.7685L83.0881 46.8139ZM83.8564 47.1677V47.3894C83.8564 47.7556 83.5425 48.0337 83.1377 48.0337C82.8279 48.0337 82.6255 47.8726 82.6255 47.6276C82.6255 47.3866 82.821 47.2338 83.1652 47.2104L83.8564 47.1677ZM84.9345 45.6323H85.4839V46.1017H85.4976C85.6505 45.781 85.9492 45.5841 86.3815 45.5841C87.0011 45.5841 87.3563 45.9792 87.3563 46.6222V48.4409H86.7766V46.7351C86.7766 46.3138 86.5784 46.0811 86.1791 46.0811C85.773 46.0811 85.5114 46.3688 85.5114 46.8053V48.4422H84.9345V45.6323ZM88.9064 45.5876C88.2015 45.5876 87.7321 46.1507 87.7321 47.0374C87.7321 47.924 88.2015 48.4899 88.9119 48.4899C89.3208 48.4899 89.6416 48.2847 89.8068 47.9639H89.8179V48.4417H90.3782V44.5881H89.7986V46.0998H89.7876C89.6306 45.79 89.3098 45.5876 88.9064 45.5876ZM89.0648 48.0011C88.6091 48.0011 88.3227 47.6308 88.3227 47.0374C88.3227 46.4481 88.6077 46.0736 89.0648 46.0736C89.5081 46.0736 89.8041 46.455 89.8041 47.0374C89.8041 47.6252 89.5081 48.0011 89.0648 48.0011ZM91.8416 47.0373C91.8416 46.1507 92.3111 45.5876 93.016 45.5876C93.4194 45.5876 93.7402 45.79 93.8971 46.0998H93.9081V44.5881H94.4877V48.4416H93.9274V47.9639H93.9164C93.7512 48.2847 93.4304 48.4898 93.0215 48.4898C92.3125 48.4898 91.8416 47.924 91.8416 47.0373ZM92.4322 47.0373C92.4322 47.6307 92.7186 48.0011 93.1743 48.0011C93.6176 48.0011 93.9136 47.6252 93.9136 47.0373C93.9136 46.455 93.6176 46.0736 93.1743 46.0736C92.7172 46.0736 92.4322 46.4481 92.4322 47.0373ZM95.3309 44.5609C95.1478 44.5609 94.9977 44.7082 94.9977 44.8927C94.9977 45.0744 95.1464 45.2217 95.3309 45.2217C95.5168 45.2217 95.6668 45.0744 95.6668 44.8927C95.6668 44.7082 95.5181 44.5609 95.3309 44.5609ZM95.62 45.632H95.0432V48.4406H95.62V45.632ZM96.1316 48.66H96.7112C96.7938 48.8955 97.0499 49.0497 97.3789 49.0497C97.8305 49.0497 98.0976 48.7936 98.0976 48.4095V47.9469H98.0866C97.9296 48.2511 97.5978 48.4521 97.1972 48.4521C96.4923 48.4521 96.0311 47.9014 96.0311 47.0258C96.0311 46.1419 96.4895 45.5871 97.2109 45.5871C97.6088 45.5871 97.9351 45.7881 98.1058 46.113H98.1169V45.6325H98.6772V48.3902C98.6772 49.0607 98.1595 49.4985 97.3583 49.4985C96.696 49.4985 96.2045 49.146 96.1316 48.66ZM98.1003 47.0286C98.1003 46.4517 97.8043 46.0731 97.3528 46.0731C96.9094 46.0731 96.6217 46.4448 96.6217 47.0286C96.6217 47.6165 96.9094 47.9744 97.3528 47.9744C97.803 47.9744 98.1003 47.6082 98.1003 47.0286ZM99.4971 44.561C99.3139 44.561 99.1639 44.7083 99.1639 44.8928C99.1639 45.0745 99.3126 45.2218 99.4971 45.2218C99.6829 45.2218 99.833 45.0745 99.833 44.8928C99.833 44.7083 99.6843 44.561 99.4971 44.561ZM99.7862 45.6321H99.2093V48.4407H99.7862V45.6321ZM101.07 44.9672V45.6322H101.605V46.0893H101.07V47.6381C101.07 47.8818 101.178 47.9906 101.412 47.9906C101.471 47.9906 101.565 47.9851 101.602 47.9768V48.4339C101.537 48.4504 101.409 48.4601 101.281 48.4601C100.712 48.4601 100.491 48.2439 100.491 47.7015V46.0893H100.082V45.6322H100.491V44.9672H101.07ZM102.911 46.8138C102.243 46.851 101.867 47.1525 101.867 47.644C101.867 48.1479 102.251 48.4893 102.8 48.4893C103.169 48.4893 103.525 48.2924 103.687 47.9799H103.701V48.4425H104.253V46.5068C104.253 45.9437 103.818 45.583 103.136 45.583C102.441 45.583 102.009 45.9574 101.977 46.4641H102.522C102.573 46.2121 102.783 46.0524 103.116 46.0524C103.468 46.0524 103.679 46.2397 103.679 46.5522V46.7683L102.911 46.8138ZM103.68 47.1676V47.3893C103.68 47.7555 103.365 48.0336 102.962 48.0336C102.652 48.0336 102.449 47.8725 102.449 47.6274C102.449 47.3865 102.645 47.2337 102.989 47.2103L103.68 47.1676ZM104.777 44.5891H105.354V48.4427H104.777V44.5891ZM107.529 47.9639H107.54C107.713 48.2902 108.03 48.4899 108.443 48.4885C109.156 48.4885 109.615 47.9281 109.615 47.036C109.615 46.1466 109.153 45.5863 108.446 45.5863C108.048 45.5863 107.727 45.7831 107.559 46.1094H107.545V44.5881H106.969V48.4417H107.529V47.9639ZM108.287 48.0011C107.85 48.0011 107.543 47.6225 107.543 47.0374C107.543 46.4578 107.85 46.0736 108.287 46.0736C108.74 46.0736 109.021 46.4467 109.021 47.0374C109.021 47.6321 108.742 48.0011 108.287 48.0011ZM110.009 45.6325H110.559V46.1103H110.572C110.666 45.7812 110.917 45.5871 111.248 45.5871C111.331 45.5871 111.403 45.6009 111.445 45.6091V46.1461C111.4 46.1268 111.298 46.1144 111.186 46.1144C110.815 46.1144 110.586 46.3622 110.586 46.7601V48.4425H110.009V45.6325ZM112.621 46.8139C111.954 46.8511 111.578 47.1526 111.578 47.6441C111.578 48.148 111.963 48.4894 112.511 48.4894C112.88 48.4894 113.236 48.2925 113.398 47.98H113.412V48.4426H113.964V46.5069C113.964 45.9438 113.529 45.5831 112.847 45.5831C112.152 45.5831 111.72 45.9576 111.688 46.4642H112.233C112.284 46.2123 112.493 46.0526 112.827 46.0526C113.179 46.0526 113.39 46.2398 113.39 46.5523V46.7685L112.621 46.8139ZM113.391 47.1677V47.3894C113.391 47.7556 113.076 48.0337 112.672 48.0337C112.363 48.0337 112.16 47.8726 112.16 47.6276C112.16 47.3866 112.356 47.2338 112.7 47.2104L113.391 47.1677ZM114.47 45.6324H115.019V46.1018H115.033C115.186 45.7811 115.485 45.5842 115.917 45.5842C116.536 45.5842 116.892 45.9793 116.892 46.6223V48.441H116.312V46.7352C116.312 46.3139 116.114 46.0812 115.715 46.0812C115.308 46.0812 115.047 46.3689 115.047 46.8054V48.4423H114.47V45.6324ZM118.438 45.5876C117.733 45.5876 117.263 46.1507 117.263 47.0373C117.263 47.924 117.733 48.4898 118.443 48.4898C118.852 48.4898 119.173 48.2847 119.338 47.9639H119.349V48.4416H119.91V44.5881H119.33V46.0998H119.319C119.162 45.79 118.841 45.5876 118.438 45.5876ZM118.595 48.0011C118.139 48.0011 117.853 47.6307 117.853 47.0373C117.853 46.4481 118.139 46.0736 118.595 46.0736C119.038 46.0736 119.334 46.455 119.334 47.0373C119.334 47.6252 119.038 48.0011 118.595 48.0011ZM120.42 44.8928C120.42 44.7083 120.57 44.561 120.753 44.561C120.94 44.561 121.089 44.7083 121.089 44.8928C121.089 45.0745 120.939 45.2218 120.753 45.2218C120.57 45.2218 120.42 45.0745 120.42 44.8928ZM120.465 45.6321H121.042V48.4407H120.465V45.6321ZM122.129 45.6323H121.579V48.4422H122.156V46.8053C122.156 46.3688 122.418 46.0811 122.824 46.0811C123.223 46.0811 123.421 46.3138 123.421 46.7351V48.4409H124.001V46.6222C124.001 45.9792 123.646 45.5841 123.026 45.5841C122.594 45.5841 122.295 45.781 122.142 46.1017H122.129V45.6323ZM124.477 48.66H125.057C125.139 48.8955 125.396 49.0497 125.725 49.0497C126.176 49.0497 126.443 48.7936 126.443 48.4095V47.9469H126.432C126.275 48.2511 125.944 48.4521 125.543 48.4521C124.838 48.4521 124.377 47.9014 124.377 47.0258C124.377 46.1419 124.835 45.5871 125.557 45.5871C125.955 45.5871 126.281 45.7881 126.452 46.113H126.461V45.6325H127.022V48.3902C127.022 49.0607 126.504 49.4985 125.703 49.4985C125.04 49.4985 124.549 49.146 124.477 48.66ZM126.445 47.0286C126.445 46.4517 126.149 46.0731 125.697 46.0731C125.254 46.0731 124.966 46.4448 124.966 47.0286C124.966 47.6165 125.254 47.9744 125.697 47.9744C126.149 47.9744 126.445 47.6082 126.445 47.0286Z" fill="black"/>
</svg>
