<svg width="48" height="49" viewBox="0 0 48 49" fill="none" xmlns="http://www.w3.org/2000/svg">
<path d="M36.444 9.68145C36.9529 9.57925 37.2827 9.08382 37.1805 8.57487C37.0783 8.06593 36.5828 7.7362 36.0739 7.8384C35.5649 7.9406 35.2352 8.43604 35.3374 8.94498C35.4396 9.45393 35.935 9.78366 36.444 9.68145Z" fill="#4E6575"/>
<path d="M46.5235 12.3703L40.3991 9.64717C39.9252 9.43642 39.37 9.64979 39.1592 10.1239C38.9483 10.5979 39.1618 11.153 39.6358 11.3638L45.7602 14.087C46.0861 14.2318 46.1213 14.5238 46.1213 14.6426C46.1213 14.7614 46.0861 15.0534 45.7602 15.1983L25.5366 24.1903C25.3795 24.2603 25.1993 24.2602 25.0424 24.1903L4.81884 15.1982C4.49297 15.0534 4.45781 14.7614 4.45781 14.6425C4.45781 14.5238 4.49297 14.2317 4.81894 14.0869L25.0424 5.09486C25.1993 5.02482 25.3795 5.02482 25.5366 5.09486L31.9639 7.95254C32.4379 8.16329 32.9931 7.95001 33.2039 7.47582C33.4147 7.00182 33.2013 6.44673 32.7272 6.23589L26.3 3.3782C25.6579 3.09273 24.9215 3.09264 24.2793 3.3782L4.05562 12.3703C3.14494 12.7752 2.57906 13.646 2.57906 14.6426V30.1895C1.10578 30.5145 0 31.8299 0 33.3994V38.4954C0 39.7902 1.05347 40.8437 2.34834 40.8437H4.68853C5.98341 40.8437 7.03687 39.7902 7.03687 38.4954V33.3994C7.03687 31.8298 5.931 30.5144 4.45772 30.1895V17.0937L8.90109 19.0694V28.643C8.90109 29.976 9.70322 31.1525 10.9445 31.6402L24.2451 36.866C24.6246 37.0148 25.0232 37.0893 25.422 37.0893C25.8209 37.0893 26.2199 37.0148 26.5997 36.8658L30.5593 35.3104L32.2147 41.4884C32.4046 42.1972 32.941 42.7336 33.6497 42.9234C34.3582 43.113 35.0912 42.917 35.6099 42.3981C35.6464 42.3617 35.688 42.3539 35.7164 42.3539C35.7449 42.3539 35.7864 42.3616 35.823 42.3982L38.6706 45.2457C39.0503 45.6254 39.5707 45.8401 40.1063 45.8401C40.1259 45.8401 40.1456 45.8398 40.1653 45.8393C40.7216 45.8229 41.2528 45.5749 41.6226 45.1588L44.5755 41.8358C45.2881 41.0338 45.252 39.8113 44.4935 39.0528L41.8309 36.3903C41.7944 36.3539 41.7867 36.3122 41.7867 36.2838C41.7867 36.2553 41.7944 36.2136 41.8309 36.1772C42.3496 35.6585 42.546 34.9257 42.3561 34.2171C42.1662 33.5083 41.6298 32.9719 40.9211 32.782L38.5862 32.1564L39.7109 31.7144C40.9517 31.227 41.7533 30.0505 41.7533 28.7172V19.0359L46.5234 16.9149C47.4341 16.51 47.9999 15.6393 47.9999 14.6426C48 13.646 47.4342 12.7752 46.5235 12.3703ZM5.15822 33.3994V38.4954C5.15822 38.7543 4.94747 38.965 4.68853 38.965H2.34834C2.08941 38.965 1.87866 38.7543 1.87866 38.4954V33.3994C1.87866 32.6224 2.51072 31.9904 3.28763 31.9904H3.74916C4.52616 31.9904 5.15822 32.6225 5.15822 33.3994ZM40.5415 34.7031C40.564 34.7871 40.5177 34.8333 40.5025 34.8487C40.1192 35.2319 39.9082 35.7415 39.9082 36.2836C39.9082 36.8257 40.1193 37.3353 40.5025 37.7185L43.165 40.381C43.2214 40.4374 43.224 40.5281 43.1711 40.5877L40.2182 43.9106C40.1825 43.9509 40.1396 43.9602 40.11 43.9612C40.0801 43.961 40.037 43.9551 39.999 43.917L37.1514 41.0695C36.7681 40.6862 36.2586 40.4751 35.7164 40.4751C35.1743 40.4751 34.6647 40.6862 34.2814 41.0695C34.2662 41.0847 34.22 41.1313 34.1359 41.1085C34.0519 41.086 34.0349 41.0228 34.0294 41.002L31.7523 32.504C31.7468 32.4832 31.7298 32.4199 31.7913 32.3584C31.8529 32.2966 31.9161 32.3138 31.9368 32.3193L40.4348 34.5964C40.4557 34.6021 40.519 34.6191 40.5415 34.7031ZM39.8748 28.7171C39.8748 29.2726 39.5408 29.7627 39.0241 29.9657L35.5319 31.3378L32.4232 30.5049C31.7143 30.3147 30.9817 30.5113 30.4629 31.0301C29.9442 31.5489 29.7478 32.2817 29.9377 32.9904L30.07 33.4842L25.9133 35.117C25.5966 35.2411 25.2478 35.2412 24.9315 35.1172L11.6315 29.8915C11.1141 29.6884 10.7798 29.1983 10.7798 28.643V19.9047L24.2793 25.9071C24.6004 26.0499 24.945 26.1212 25.2896 26.1212C25.6343 26.1212 25.9789 26.0499 26.3 25.9071L39.8748 19.8713V28.7171Z" fill="#4E6575"/>
<path d="M9 15L25 7.5L41 15L24 21.5L9 15Z" fill="#EFF2F3" stroke="#EFF2F3"/>
</svg>
