<svg width="136" height="69" viewBox="0 0 136 69" fill="none" xmlns="http://www.w3.org/2000/svg">
<path d="M91.3429 27.8705C91.3706 28.624 91.3197 29.3783 91.1912 30.1213C90.759 33.1716 88.7826 34.8461 86.0343 35.7197C83.6287 36.4781 81.1245 36.6222 78.6112 36.5903C78.5156 36.5903 78.4186 36.5903 78.3215 36.5812C78.1031 36.5615 77.9893 36.648 77.9726 36.874C77.9529 37.1258 78.1243 37.1015 78.2866 37.1182C79.9035 37.2699 81.5113 37.1667 83.1175 36.9847C84.607 36.8148 86.104 36.6813 87.5237 36.1338C88.4507 35.7617 89.33 35.2805 90.1432 34.7005C90.1902 34.9811 90.0764 35.1798 90.0097 35.38C89.6593 36.4538 89.3317 37.5383 88.684 38.4833C87.4949 40.2184 85.8022 40.9268 83.7455 40.9344C81.6887 40.9419 79.6654 40.5855 77.6374 40.2988C77.397 40.2722 77.158 40.2332 76.9215 40.182C76.5894 40.1017 76.4559 40.3337 76.4028 40.5552C76.3376 40.8267 76.6242 40.7705 76.7683 40.81C79.8777 41.6351 83.0204 42.1098 86.2269 41.6958C86.3315 41.8657 86.2102 41.9324 86.145 42.0128C85.6062 42.6982 85.0132 43.3393 84.3719 43.93C83.2828 44.9068 81.9663 45.0251 80.6012 44.9204C78.8311 44.7824 77.2249 44.0983 75.6399 43.3642C75.386 43.2607 75.1393 43.1406 74.9012 43.0047C74.5978 42.8136 74.3597 42.8713 74.2141 43.1564C74.0685 43.4416 74.4007 43.4734 74.5478 43.5644C76.6788 44.8658 78.9646 45.7546 81.4506 46.0929C81.5871 46.1111 81.7858 46.0732 81.8449 46.2218C81.9223 46.4114 81.7039 46.4872 81.5992 46.5873C79.72 48.4075 76.9261 48.6319 74.5372 47.1728C73.7554 46.6884 73.0413 46.1024 72.4137 45.43C72.2711 45.2784 72.165 44.975 71.8419 45.2541C71.5385 45.5089 71.7509 45.6712 71.8874 45.8608C73.1812 47.6491 74.93 48.7548 77.055 49.2963C77.0997 49.3113 77.1433 49.3296 77.1854 49.3509C77.1854 49.3873 77.2036 49.4358 77.1854 49.4449C76.239 50.1532 75.203 50.6583 74.0002 50.7175C73.1326 50.7584 72.4046 50.3701 71.7615 49.8196C71.0452 49.1905 70.4207 48.464 69.9065 47.6612C69.82 47.5292 69.8125 47.1698 69.4863 47.3579C69.2012 47.5201 69.1678 47.7325 69.3347 48.0434C70.0931 49.4935 71.0152 50.8009 72.309 51.8126C72.6352 52.0674 72.6003 52.1994 72.309 52.4102C70.974 53.3513 69.4857 54.0534 67.9104 54.4851C67.7858 54.5186 67.6541 54.5154 67.5312 54.476C66.0169 54.0642 64.5838 53.3974 63.2934 52.5042C62.7747 52.1372 62.7883 52.1281 63.257 51.7383C64.4678 50.7126 65.4496 49.444 66.1388 48.0146C66.2238 47.8432 66.3345 47.6809 66.1388 47.4928C65.9432 47.3048 65.8052 47.2229 65.6247 47.5217C65.1213 48.3509 64.4989 49.1016 63.7772 49.7498C62.5881 50.8237 61.2716 50.9769 59.8337 50.3413C59.2397 50.0832 58.6752 49.7618 58.1501 49.3827C58.93 49.198 59.6855 48.9221 60.4009 48.5606C61.6829 47.9312 62.7884 46.993 63.618 45.8305C63.7697 45.6181 63.888 45.4513 63.6089 45.2238C63.3298 44.9963 63.2312 45.2435 63.1068 45.3754C61.8661 46.7026 60.4388 47.6976 58.602 48.0237C56.7379 48.3559 55.162 47.8235 53.8167 46.5282C53.7287 46.4432 53.5618 46.3765 53.6028 46.2339C53.6437 46.0914 53.8182 46.1141 53.941 46.0959C55.0914 45.9321 56.2246 45.664 57.3264 45.2951C58.6187 44.8582 59.8064 44.203 60.9803 43.525C61.1047 43.4522 61.4354 43.434 61.2625 43.1443C61.1335 42.9365 60.9591 42.806 60.6557 42.9562C59.636 43.4783 58.5837 43.9343 57.5054 44.3213C56.2435 44.7612 54.9557 45.016 53.6104 44.928C52.6982 44.8913 51.8245 44.5501 51.1289 43.9588C50.3783 43.284 49.6978 42.5349 49.098 41.7231C49.9656 41.7686 50.7285 41.8323 51.493 41.8444C54.0002 41.8808 56.4361 41.403 58.8478 40.7827C58.96 40.7523 59.1511 40.7448 59.0631 40.5521C58.9752 40.3595 58.9115 40.1259 58.5854 40.182C57.9787 40.2897 57.372 40.3732 56.7652 40.4596C54.8496 40.7341 52.9369 41.0436 50.9864 40.8964C48.7112 40.7235 47.1838 39.5177 46.2328 37.5141C45.8203 36.6043 45.4943 35.6577 45.2591 34.6868C45.7778 35.0053 46.1934 35.2723 46.6242 35.5195C48.1106 36.3795 49.7532 36.6996 51.4308 36.8846C53.3085 37.0924 55.1848 37.3214 57.0777 37.1151C57.2415 37.0985 57.5039 37.2259 57.5009 36.8876C57.4978 36.5494 57.2552 36.5737 57.0231 36.5843C54.7623 36.6628 52.5007 36.4559 50.2917 35.9685C48.8634 35.6666 47.5283 35.0269 46.3982 34.1028C44.7525 32.7378 44.2428 30.8752 44.1306 28.8473C44.1154 28.5773 44.1306 28.3043 44.1306 28.0419C44.2337 27.9736 44.2929 28.0419 44.3505 28.0904C46.5165 30.1941 49.1738 31.3939 52.0193 32.2387C53.5238 32.6735 55.0637 32.975 56.6212 33.1397C56.8123 33.1625 57.0762 33.3156 57.1156 32.9122C57.1444 32.5664 56.9306 32.5618 56.6955 32.536C53.8697 32.2327 51.2063 31.3712 48.6763 30.1092C46.6606 29.1112 45.0619 27.6672 44.3308 25.4588C43.8166 23.8935 43.985 22.3161 44.2762 20.7477C44.3225 20.7402 44.37 20.7472 44.4122 20.7679C44.4543 20.7885 44.4889 20.8218 44.5113 20.863C47.519 24.6959 51.5036 27.0469 56.0873 28.4878C56.5423 28.6395 57.0201 28.7456 57.4796 28.8897C57.7208 28.9656 57.8346 28.8897 57.9134 28.6637C58.0044 28.4059 57.8376 28.3604 57.6647 28.2982C56.9478 28.0393 56.2354 27.7784 55.5276 27.5155C52.7746 26.5054 50.3008 25.022 48.3017 22.8773C46.1964 20.6158 45.611 17.9084 46.4452 14.9264C46.6939 14.03 47.3097 13.3535 47.8982 12.6695C47.9726 12.583 48.0772 12.6209 48.1713 12.624C48.2395 13.2307 48.5398 13.7555 48.825 14.2727C50.0232 16.4432 51.6401 18.3057 53.3116 20.1213C55.3001 22.2827 57.5919 24.0786 60.0506 25.6651C60.6952 26.0807 61.2958 26.5751 62.0299 26.8482C62.0299 27.0438 61.8889 27.1682 61.7873 27.3108C61.2241 28.0963 60.8227 28.9859 60.6063 29.9279C60.3899 30.87 60.3628 31.8456 60.5266 32.7981C60.6905 33.7507 61.042 34.6612 61.5607 35.4768C62.0794 36.2923 62.755 36.9967 63.5482 37.5489C63.6847 37.6445 63.8045 37.8007 64.0503 37.7628C63.7955 36.4541 63.9756 35.098 64.5629 33.9011C65.1696 32.6756 66.1313 31.7777 67.3705 31.0405C67.1187 30.9631 66.9837 30.9085 66.8441 30.8888C65.2242 30.5688 65.1636 28.6137 65.793 27.6839C65.8749 27.5626 65.9447 27.4109 66.0964 27.6263C66.8138 28.5773 67.8316 29.1536 68.8023 29.7877C69.9035 30.5051 70.9697 31.2589 71.6371 32.4374C71.7296 32.6013 71.8828 32.7969 71.7888 32.9713C71.6948 33.1458 71.4642 33.0153 71.3004 33.0077C70.3327 32.9668 69.4606 33.1185 68.9251 34.0573C68.1106 35.4846 68.6991 37.2774 70.2174 38.0389C70.3612 38.1226 70.5251 38.1653 70.6915 38.1623C70.8578 38.1594 71.0201 38.1109 71.1609 38.0222C72.0754 37.5343 72.8758 36.8578 73.5093 36.0373C74.1427 35.2169 74.5946 34.2712 74.835 33.263C75.0755 32.2548 75.0991 31.207 74.9042 30.1889C74.7093 29.1709 74.3004 28.2059 73.7045 27.3578C73.5953 27.2061 73.4345 27.0711 73.439 26.8558C73.5695 26.7966 73.706 26.7496 73.8288 26.6783C78.4459 23.9999 82.438 20.3666 85.5383 16.0215C86.2845 14.9749 87.0004 13.898 87.3008 12.6118C87.5753 12.6361 87.7027 12.8636 87.8604 13.035C89.3605 14.667 89.5759 16.6237 89.2407 18.6971C88.8205 21.2862 87.2689 23.1078 85.2273 24.6261C83.0265 26.2703 80.5754 27.3866 77.9863 28.2421C77.8119 28.3012 77.4797 28.2588 77.5449 28.6228C77.5965 28.9155 77.7664 28.9565 78.0394 28.8821C80.1932 28.2936 82.2863 27.5747 84.2384 26.4553C86.5469 25.1251 88.6947 23.6023 90.4268 21.5501C90.5406 21.4151 90.6437 21.2695 90.759 21.136C90.8742 21.0026 90.9213 20.8175 91.1518 20.7174C91.2914 20.9798 91.2747 21.2725 91.3156 21.541C91.6857 23.9678 91.3551 26.2081 89.5835 28.0631C88.4247 29.2765 87.0217 30.1153 85.4761 30.7326C83.298 31.6032 81.0775 32.3237 78.7219 32.5527C78.4732 32.5755 78.3412 32.6468 78.3625 32.9334C78.3837 33.255 78.59 33.1867 78.7735 33.164C82.4092 32.7241 85.8629 31.7625 88.9828 29.7907C89.8419 29.245 90.634 28.6005 91.3429 27.8705Z" fill="#1E2D56"/>
<path d="M86.8396 12.518C74.1099 12.514 61.3807 12.5134 48.652 12.5165C48.4852 12.5165 48.291 12.4391 48.1591 12.6196C48.2273 13.2263 48.5276 13.7511 48.8128 14.2683C50.011 16.4434 51.6279 18.306 53.2994 20.1215C55.2879 22.2829 57.5797 24.0788 60.0384 25.6653C60.683 26.0809 61.2836 26.5754 62.0178 26.8484C62.5486 26.4389 62.9885 25.9232 63.5451 25.5394C65.0153 24.5131 66.8125 24.0654 68.5923 24.2821C70.3721 24.4987 72.0093 25.3644 73.1903 26.7134C73.2541 26.7862 73.3193 26.8651 73.43 26.8484C73.5604 26.7892 73.6968 26.7422 73.8197 26.6709C78.4368 23.9925 82.4289 20.3593 85.5291 16.0141C86.2754 14.9676 86.9913 13.8907 87.2916 12.6045C87.1642 12.4513 86.9913 12.518 86.8396 12.518ZM59.5378 18.5107C59.3517 18.508 59.1739 18.4334 59.0415 18.3025C58.9092 18.1716 58.8327 17.9946 58.828 17.8085C58.8342 17.6221 58.9101 17.4448 59.0407 17.3117C59.1713 17.1786 59.3471 17.0993 59.5333 17.0895C59.8488 17.0895 60.2462 17.4884 60.2553 17.8191C60.2438 18.0043 60.163 18.1783 60.0289 18.3065C59.8948 18.4347 59.7173 18.5076 59.5318 18.5107H59.5378ZM63.0643 18.7837C62.8058 18.7648 62.5642 18.6478 62.3891 18.4566C62.214 18.2655 62.1186 18.0146 62.1224 17.7554C62.1327 17.5119 62.239 17.2825 62.4181 17.1173C62.5972 16.9521 62.8345 16.8647 63.078 16.8741C63.5482 16.8863 64.0229 17.355 64.0199 17.8039C64.0093 18.2862 63.5163 18.7928 63.0583 18.7837H63.0643ZM69.1814 18.124C68.8402 18.2893 68.7097 18.5289 68.8371 18.9036C68.9281 19.1705 68.7658 19.2069 68.5156 19.1675C68.1804 18.9824 67.9439 19.1356 67.7649 19.4708C67.6557 19.6756 67.4993 19.662 67.4144 19.4708C67.2627 19.125 67.0625 18.9749 66.6742 19.0932C66.4528 19.1584 66.3088 19.0173 66.3983 18.7898C66.5499 18.4197 66.3861 18.2225 66.0858 18.0481C65.8598 17.9177 65.8976 17.7705 66.1252 17.6735C66.477 17.5218 66.5378 17.2533 66.4468 16.9151C66.3558 16.5769 66.5059 16.5587 66.7501 16.6633C67.0792 16.8074 67.3037 16.7058 67.4646 16.4039C67.607 16.134 67.7587 16.1264 67.8983 16.4039C68.0378 16.6815 68.2471 16.8362 68.5975 16.7073C68.8204 16.6224 68.9692 16.7649 68.8797 16.9849C68.728 17.3701 68.8796 17.5916 69.183 17.7751C69.3756 17.8949 69.3862 18.0223 69.1754 18.124H69.1814ZM72.3106 18.7853C72.1863 18.7824 72.0639 18.7546 71.9505 18.7037C71.8371 18.6527 71.7349 18.5795 71.6502 18.4885C71.5656 18.3975 71.5 18.2904 71.4573 18.1736C71.4147 18.0568 71.396 17.9326 71.4021 17.8085C71.4006 17.6845 71.424 17.5616 71.4711 17.4469C71.5182 17.3323 71.5878 17.2282 71.6759 17.1411C71.764 17.0539 71.8687 16.9853 71.9839 16.9395C72.099 16.8936 72.2222 16.8714 72.3461 16.8741C72.47 16.8769 72.5921 16.9046 72.7052 16.9555C72.8182 17.0064 72.9197 17.0795 73.0038 17.1705C73.088 17.2615 73.153 17.3685 73.195 17.4852C73.2369 17.6018 73.2548 17.7257 73.2479 17.8494C73.2489 17.9732 73.2253 18.096 73.1781 18.2105C73.131 18.325 73.0613 18.4289 72.9734 18.5162C72.8855 18.6034 72.781 18.6721 72.6661 18.7183C72.5512 18.7645 72.4283 18.7873 72.3045 18.7853H72.3106ZM75.9796 18.5107C75.883 18.5158 75.7863 18.5014 75.6954 18.4684C75.6045 18.4353 75.5211 18.3843 75.4503 18.3183C75.3796 18.2524 75.3229 18.1728 75.2835 18.0844C75.2442 17.9961 75.2229 17.9007 75.2212 17.8039C75.2212 17.4672 75.6019 17.1032 75.9553 17.1032C76.0477 17.1055 76.1388 17.1262 76.2231 17.164C76.3075 17.2019 76.3836 17.2561 76.4468 17.3235C76.51 17.391 76.5591 17.4703 76.5914 17.557C76.6238 17.6436 76.6385 17.7358 76.6348 17.8282C76.6381 17.9169 76.6234 18.0054 76.5916 18.0883C76.5598 18.1712 76.5115 18.2468 76.4498 18.3105C76.388 18.3743 76.314 18.4249 76.2322 18.4593C76.1504 18.4937 76.0623 18.5112 75.9735 18.5107H75.9796Z" fill="#CBAA97"/>
</svg>
