<svg width="136" height="69" viewBox="0 0 136 69" fill="none" xmlns="http://www.w3.org/2000/svg">
<mask id="mask0_1_132" style="mask-type:luminance" maskUnits="userSpaceOnUse" x="21" y="22" width="94" height="25">
<path d="M114.813 22.6777H21V46.3224H114.813V22.6777Z" fill="white"/>
</mask>
<g mask="url(#mask0_1_132)">
<path d="M90.281 43.596C89.4247 44.1952 88.4627 44.0671 87.5808 43.7943C86.7411 43.5348 86.5477 42.7017 86.47 41.9057C86.4262 41.4603 86.4592 41.0065 86.4485 40.5569C86.3592 36.8194 86.2683 33.082 86.1757 29.3445C86.1757 29.2478 86.1567 29.1511 86.141 29.0064C85.8724 29.0891 85.8294 29.304 85.76 29.4685C84.9897 31.2934 84.007 33.0109 83.1077 34.7705C83.0592 34.8806 83.0172 34.9935 82.9821 35.1085C82.516 35.9929 82.0358 36.869 81.5895 37.7633C81.1969 38.551 80.6439 39.1196 79.7158 39.094C78.8066 39.0683 78.2479 38.5228 77.8388 37.7352C76.6866 35.516 75.3592 33.3902 74.2848 31.1273C74.0608 30.6537 73.8302 30.1834 73.5946 29.6941C73.3012 29.8305 73.4079 30.0619 73.4037 30.2379C73.3156 34.1589 73.2307 38.0796 73.1492 42C73.1293 42.9166 72.5516 43.7241 71.7962 43.9117C70.887 44.1381 70.0919 43.8075 69.6473 43.0273C69.434 42.6546 69.3993 42.2363 69.4257 41.8405C69.5406 39.9825 69.4497 38.1212 69.5481 36.2648C69.7084 33.2249 69.739 30.1826 69.796 27.1402C69.8126 26.3062 69.844 25.4649 69.9754 24.6433C70.1192 23.7391 70.7663 23.2449 71.6838 23.2002C72.3152 23.1696 72.95 23.1176 73.5798 23.1498C74.3294 23.1878 75.0146 23.3763 75.403 24.1474C76.6949 26.7096 78.0082 29.266 79.3157 31.8232C79.5381 32.2579 79.7703 32.6877 80.0001 33.1183C80.1447 33.3886 80.2439 33.4357 80.4423 33.1183C81.1721 31.9612 81.6647 30.6859 82.306 29.4817C82.9053 28.3618 83.4284 27.1923 83.9838 26.0418C84.3227 25.3954 84.6583 24.7474 85.0013 24.1036C85.3195 23.5052 85.8493 23.2358 86.5014 23.211C87.1345 23.187 87.7692 23.1961 88.4024 23.1977C89.657 23.1977 90.3909 23.8738 90.4562 25.1276C90.5265 26.4501 90.5554 27.7807 90.6042 29.1081C90.7596 33.3508 90.9155 37.595 91.072 41.8405C91.0992 42.5587 90.8893 43.1703 90.281 43.596Z" fill="url(#paint0_linear_1_132)"/>
<path d="M114.359 29.4557C113.789 27.2497 112.512 25.5025 110.546 24.2727C109.389 23.5453 108.109 23.1668 106.804 22.8387L106.441 22.8164C106.258 22.8114 106.074 22.8164 105.892 22.8006C104.422 22.6411 102.932 22.6031 101.497 22.9081C98.1437 23.6214 95.6451 25.5025 94.2913 28.7143C93.5161 30.5541 93.3574 32.4981 93.5524 34.4817C93.8252 37.2637 94.7715 39.7391 96.7295 41.788C97.3849 42.4732 98.2172 42.9054 98.9702 43.4468C99.005 43.4499 99.0388 43.4603 99.0694 43.4774C100.79 44.2551 102.595 44.5411 104.476 44.4692C108.368 44.3179 111.284 42.5318 113.161 39.1589C114.857 36.1091 115.229 32.8245 114.359 29.4557ZM109.813 34.1858C109.698 35.6685 109.405 37.0901 108.768 38.4307C108.185 39.6581 107.363 40.6706 106.081 41.2408C105.724 41.3995 105.367 41.5425 104.964 41.4979C103.692 41.6632 102.475 41.564 101.403 40.759C101.325 40.7606 101.248 40.739 101.181 40.697C101.115 40.6549 101.062 40.5943 101.03 40.5226L100.909 40.3962C100.365 39.9689 99.8595 39.5101 99.6859 38.7977C99.675 38.7888 99.6664 38.7771 99.6612 38.764C99.656 38.7508 99.6543 38.7365 99.6562 38.7225C99.0685 38.0547 98.9123 37.2025 98.7239 36.3851C98.2387 34.2965 98.1743 32.1815 98.7322 30.1037C99.095 28.7507 99.6083 27.4332 100.897 26.6323V26.6398C100.941 26.6009 100.986 26.5637 101.032 26.5257C101.514 25.9257 102.235 25.7653 102.916 25.6397C103.766 25.4835 104.652 25.3711 105.491 25.7695C105.996 25.7695 106.401 26.029 106.802 26.2835C107.541 26.6406 108.082 27.2415 108.496 27.9027C109.702 29.8177 109.987 31.9459 109.814 34.1825L109.813 34.1858Z" fill="url(#paint1_linear_1_132)"/>
<path d="M65.6627 36.458C65.6503 38.0482 65.2734 39.5616 64.4386 40.9451C63.1559 43.0701 61.1747 44.1148 58.8109 44.3652C57.0529 44.5512 55.2503 44.6371 53.5056 44.171C50.8368 43.4569 48.9821 41.8386 48.1647 39.1434C47.8906 38.2727 47.7178 37.3733 47.6498 36.463C47.6459 32.6578 47.6423 28.8528 47.639 25.0481C47.639 24.9655 47.639 24.8828 47.6432 24.8002L47.6506 24.6787C48.3341 22.9521 50.7541 22.4925 52.0121 23.8439C52.3667 24.2241 52.4096 24.6803 52.4105 25.1514C52.4171 28.669 52.4105 32.1866 52.4229 35.7034C52.4229 36.8556 52.6039 37.9656 53.2709 38.9566C53.804 39.7484 54.5635 40.2145 55.4437 40.4385C56.9199 40.8137 58.3274 40.6302 59.5184 39.5905C60.5218 38.7152 60.9078 37.5408 60.9169 36.2564C60.9417 32.5751 60.9309 28.8938 60.9284 25.2126C60.9284 24.5439 61.1276 23.9728 61.6516 23.5364C62.4856 22.843 64.7221 23.0364 65.3891 23.8811C65.6255 24.1794 65.6759 24.5572 65.6759 24.9241C65.68 28.769 65.6941 32.6139 65.6627 36.458Z" fill="url(#paint2_linear_1_132)"/>
<path d="M43.6818 26.8688C43.6769 31.9816 43.6769 37.0946 43.6818 42.2079C43.6818 43.1535 42.9967 43.8213 42.0553 43.8238C41.5649 43.8238 41.0742 43.8207 40.5833 43.8147C39.4997 43.799 38.9104 43.2221 38.9096 42.1517C38.9096 39.8607 38.8947 37.5696 38.9335 35.2802C38.9443 34.6652 38.7757 34.4694 38.1492 34.4685C35.6143 34.4685 33.0794 34.4206 30.5453 34.3611C30.0651 34.3495 29.8982 34.4669 29.9197 34.9669C30.042 37.7522 30.3924 40.4921 31.4504 43.0981C31.5718 43.3965 31.7653 43.6659 31.9248 43.9494C31.7653 44.3478 31.4958 44.2131 31.2189 44.1048C29.8337 43.5609 28.9725 42.4708 28.2344 41.2533C27.2905 39.7045 26.7632 37.9977 26.4153 36.2331C26.1009 34.717 25.987 33.1662 26.0764 31.6204C26.1491 30.5178 26.3111 29.6103 26.4549 28.5466C26.4754 28.3972 26.5063 28.2495 26.5475 28.1044C26.5657 28.0416 26.5921 27.9813 26.6112 27.9193C26.7286 27.5016 26.8744 27.0923 27.0475 26.6944C27.142 26.4283 27.2622 26.1719 27.4063 25.9291C27.4794 25.7974 27.5688 25.6755 27.6724 25.5662C27.8377 25.391 27.9964 25.2092 28.1575 25.0282C28.3923 24.7653 28.6631 24.5368 28.9617 24.3496C29.3915 24.0802 29.8411 23.8537 30.3668 23.7711C30.9131 23.6884 31.028 23.7793 30.8478 24.2934C30.161 26.2878 29.9916 28.3557 29.9172 30.4434C29.8957 31.0468 30.1073 31.2047 30.6883 31.1989C33.2042 31.1741 35.7193 31.1865 38.2351 31.2047C38.6162 31.2047 38.8914 31.1551 38.8906 30.7088C38.8906 28.9334 39.1708 27.1606 38.9302 25.3836C38.8897 25.086 38.8269 24.7885 38.5608 24.6455C38.0566 24.3761 38.3244 24.1389 38.5608 23.9083C39.8733 22.6379 42.023 22.9834 43.0239 24.6124C43.4527 25.287 43.6809 26.0695 43.6818 26.8688Z" fill="url(#paint3_linear_1_132)"/>
<path d="M23.0232 39.6106C23.2323 40.5686 23.8291 41.3042 24.3539 42.0902C25.0647 43.1555 25.5714 43.9911 26.8111 44.5193C26.8648 44.5482 27.2335 44.7672 27.2872 44.7962L27.4806 44.8788C27.6084 44.9104 27.7288 44.9666 27.8352 45.0441C27.9228 45.1061 28.0087 45.1408 28.0773 45.0317C28.2203 44.8044 27.9616 44.7193 27.7732 44.6598C27.6876 44.6292 27.6087 44.5823 27.5409 44.5217C26.7781 43.7853 25.9871 43.0712 25.4234 42.1588C25.0399 41.5381 24.6911 40.8967 24.3275 40.2644V40.2586C24.0861 39.6426 23.8445 39.0271 23.6026 38.4122C23.52 38.1444 23.4753 37.9816 23.3547 37.6617C23.3481 37.6204 23.3414 37.5981 23.334 37.5576C23.2325 36.8139 23.0862 36.0769 22.896 35.3508L22.8455 34.9797C22.8455 34.1631 22.8455 33.3466 22.8522 32.53C22.8613 31.3172 23.2379 30.1356 23.9324 29.1413C24.2977 28.5852 24.7539 28.0946 25.2821 27.6899C25.2821 27.8693 25.3085 27.9586 25.278 28.0205C24.7911 29.033 24.6655 30.124 24.6002 31.2233C24.4217 34.2268 24.9548 37.1171 26.0706 39.9016C26.6871 41.4397 27.4442 42.8985 28.798 43.9515C29.5814 44.5679 30.4767 45.0268 31.4346 45.3028C31.4883 45.5623 31.2462 45.6896 31.1709 45.8921C29.4642 46.6103 27.7765 46.3599 26.1293 45.7152C23.5439 44.7036 21.9678 42.7315 21.1297 40.152C20.914 39.4908 20.9884 38.6891 21.176 38.0609C21.2866 37.677 21.4921 37.3271 21.7736 37.0435C21.9 36.9187 22.029 36.8212 22.1133 36.8286C22.1903 37.282 22.3274 37.7231 22.5207 38.1403C22.5566 38.2213 22.5883 38.304 22.6158 38.3882C22.6197 38.3978 22.6241 38.4072 22.629 38.4163C22.6635 38.5708 22.7119 38.7219 22.7736 38.8676C22.7976 38.9246 22.8472 38.9651 22.8563 39.0255C22.9737 39.4057 23.0216 39.604 23.0216 39.604" fill="url(#paint4_linear_1_132)"/>
</g>
<defs>
<linearGradient id="paint0_linear_1_132" x1="93.2026" y1="40.4561" x2="70.5962" y2="28.3033" gradientUnits="userSpaceOnUse">
<stop offset="0.33" stop-color="#9C8837"/>
<stop offset="0.56" stop-color="#F7E59E"/>
<stop offset="0.6" stop-color="#F0DE96"/>
<stop offset="0.67" stop-color="#DECB80"/>
<stop offset="0.75" stop-color="#C1AD5D"/>
<stop offset="0.79" stop-color="#B39F4D"/>
</linearGradient>
<linearGradient id="paint1_linear_1_132" x1="120.251" y1="42.752" x2="92.229" y2="26.0661" gradientUnits="userSpaceOnUse">
<stop offset="0.33" stop-color="#9C8837"/>
<stop offset="0.56" stop-color="#F7E59E"/>
<stop offset="0.6" stop-color="#F0DE96"/>
<stop offset="0.67" stop-color="#DECB80"/>
<stop offset="0.75" stop-color="#C1AD5D"/>
<stop offset="0.79" stop-color="#B39F4D"/>
</linearGradient>
<linearGradient id="paint2_linear_1_132" x1="67.8788" y1="39.3222" x2="45.206" y2="24.9961" gradientUnits="userSpaceOnUse">
<stop offset="0.33" stop-color="#9C8837"/>
<stop offset="0.56" stop-color="#F7E59E"/>
<stop offset="0.6" stop-color="#F0DE96"/>
<stop offset="0.67" stop-color="#DECB80"/>
<stop offset="0.75" stop-color="#C1AD5D"/>
<stop offset="0.79" stop-color="#B39F4D"/>
</linearGradient>
<linearGradient id="paint3_linear_1_132" x1="39.3346" y1="35.9867" x2="24.924" y2="25.0096" gradientUnits="userSpaceOnUse">
<stop offset="0.33" stop-color="#9C8837"/>
<stop offset="0.56" stop-color="#F7E59E"/>
<stop offset="0.6" stop-color="#F0DE96"/>
<stop offset="0.67" stop-color="#DECB80"/>
<stop offset="0.75" stop-color="#C1AD5D"/>
<stop offset="0.79" stop-color="#B39F4D"/>
</linearGradient>
<linearGradient id="paint4_linear_1_132" x1="33.7494" y1="43.0824" x2="19.2342" y2="32.2025" gradientUnits="userSpaceOnUse">
<stop offset="0.33" stop-color="#9C8837"/>
<stop offset="0.56" stop-color="#F7E59E"/>
<stop offset="0.6" stop-color="#F0DE96"/>
<stop offset="0.67" stop-color="#DECB80"/>
<stop offset="0.75" stop-color="#C1AD5D"/>
<stop offset="0.79" stop-color="#B39F4D"/>
</linearGradient>
</defs>
</svg>
