<svg width="25" height="25" viewBox="0 0 25 25" fill="none" xmlns="http://www.w3.org/2000/svg">
<g clip-path="url(#clip0_1_618)">
<path d="M0.579987 12.5801C0.579987 5.95266 5.95257 0.580078 12.58 0.580078C19.2074 0.580078 24.58 5.95266 24.58 12.5801C24.58 19.2075 19.2074 24.5801 12.58 24.5801C5.95257 24.5801 0.579987 19.2075 0.579987 12.5801Z" fill="#BA8D5B"/>
<path fill-rule="evenodd" clip-rule="evenodd" d="M9.23946 7.99143C9.23946 8.77598 8.6489 9.40375 7.70067 9.40375H7.68329C6.77031 9.40375 6.18008 8.77598 6.18008 7.99143C6.18008 7.19028 6.78828 6.58008 7.71859 6.58008C8.6489 6.58008 9.22181 7.19028 9.23946 7.99143ZM9.06037 10.5189V18.6898H6.34091V10.5189H9.06037ZM18.868 18.6899L18.8681 14.005C18.8681 11.4953 17.5265 10.3272 15.737 10.3272C14.2931 10.3272 13.6467 11.1203 13.2857 11.6766V10.5193H10.5659C10.6018 11.286 10.5659 18.6902 10.5659 18.6902H13.2857V14.1269C13.2857 13.8827 13.3034 13.6391 13.3753 13.4642C13.5718 12.9764 14.0194 12.4713 14.7707 12.4713C15.7551 12.4713 16.1486 13.2205 16.1486 14.3185V18.6899H18.868Z" fill="white"/>
</g>
<defs>
<clipPath id="clip0_1_618">
<rect width="24" height="24" fill="white" transform="translate(0.579987 0.580078)"/>
</clipPath>
</defs>
</svg>
