<svg width="25" height="25" viewBox="0 0 25 25" fill="none" xmlns="http://www.w3.org/2000/svg">
<g clip-path="url(#clip0_1_609)">
<mask id="mask0_1_609" style="mask-type:luminance" maskUnits="userSpaceOnUse" x="0" y="0" width="25" height="25">
<path d="M24.58 0.580078H0.579987V24.5801H24.58V0.580078Z" fill="white"/>
</mask>
<g mask="url(#mask0_1_609)">
<path d="M12.58 24.5801C19.2074 24.5801 24.58 19.2075 24.58 12.5801C24.58 5.95266 19.2074 0.580078 12.58 0.580078C5.95257 0.580078 0.579987 5.95266 0.579987 12.5801C0.579987 19.2075 5.95257 24.5801 12.58 24.5801Z" fill="#BA8D5B"/>
<path d="M15.1295 5.91211H10.0362C7.76418 5.91211 5.91885 7.75744 5.91885 10.0294V15.1228C5.91885 17.3948 7.76418 19.2401 10.0362 19.2401H15.1295C17.4015 19.2401 19.2469 17.3948 19.2469 15.1228V10.0294C19.2469 7.75744 17.4015 5.91211 15.1295 5.91211ZM17.7589 15.1281C17.7589 16.5788 16.5802 17.7628 15.1242 17.7628H10.0309C8.58018 17.7628 7.39618 16.5841 7.39618 15.1281V10.0348C7.39618 8.58411 8.57485 7.40011 10.0309 7.40011H15.1242C16.5749 7.40011 17.7589 8.57878 17.7589 10.0348V15.1281Z" fill="white"/>
<path d="M12.5798 9.16992C10.7025 9.16992 9.17178 10.7006 9.17178 12.5779C9.17178 14.4553 10.7025 15.9859 12.5798 15.9859C14.4571 15.9859 15.9878 14.4553 15.9878 12.5779C15.9878 10.7006 14.4571 9.16992 12.5798 9.16992ZM12.5798 14.6473C11.4385 14.6473 10.5104 13.7193 10.5104 12.5779C10.5104 11.4366 11.4385 10.5086 12.5798 10.5086C13.7211 10.5086 14.6491 11.4366 14.6491 12.5779C14.6491 13.7193 13.7211 14.6473 12.5798 14.6473Z" fill="white"/>
<path d="M16.2474 9.54297C16.5614 9.49207 16.7746 9.19628 16.7237 8.8823C16.6728 8.56832 16.377 8.35505 16.0631 8.40595C15.7491 8.45685 15.5358 8.75264 15.5867 9.06662C15.6376 9.3806 15.9334 9.59387 16.2474 9.54297Z" fill="white"/>
</g>
</g>
<defs>
<clipPath id="clip0_1_609">
<rect width="24" height="24" fill="white" transform="translate(0.579987 0.580078)"/>
</clipPath>
</defs>
</svg>
