<svg width="136" height="69" viewBox="0 0 136 69" fill="none" xmlns="http://www.w3.org/2000/svg">
<mask id="mask0_1_267" style="mask-type:luminance" maskUnits="userSpaceOnUse" x="22" y="18" width="94" height="33">
<path d="M115.023 18.5H22V50.5H115.023V18.5Z" fill="white"/>
</mask>
<g mask="url(#mask0_1_267)">
<path d="M22 45.8747C22.4595 45.8393 22.9302 45.83 23.3767 45.7631C24.3609 45.618 24.9042 45.0189 25.0288 44.0496C25.1032 43.5019 25.1442 42.9502 25.1516 42.3975C25.1516 37.3482 25.1758 32.3007 25.1367 27.2514C25.1367 26.3733 25.3563 26.0273 26.2698 26.1147C27.0707 26.1845 27.8762 26.1845 28.6772 26.1147C29.4419 26.0552 29.6074 26.3696 29.6074 27.0673C29.5833 30.9463 29.5963 34.8235 29.5944 38.7026C29.5944 40.4273 29.6167 42.1519 29.5758 43.8747C29.4772 48.0477 27.3805 50.124 23.1944 50.2487C22.7944 50.2598 22.3963 50.2914 21.9963 50.3156L22 45.8747Z" fill="#2A43D4"/>
<path d="M91.0234 34.0886C90.6011 31.9677 89.509 30.6226 87.5425 30.111C85.7248 29.6403 84.1751 30.1891 82.9453 31.5658C81.4141 33.2775 81.5072 35.9454 83.109 37.6216C83.8775 38.4415 84.925 38.9441 86.0453 39.0306C87.1657 39.117 88.2779 38.781 89.163 38.0886C89.6655 37.6789 90.1421 37.2384 90.59 36.7696C93.4662 33.8858 96.3109 30.9649 99.2244 28.1184C101.756 25.6421 104.845 24.9184 108.207 25.8728C111.569 26.8272 113.65 29.1454 114.506 32.5221C114.666 33.1487 114.751 33.7919 114.759 34.4384C114.787 36.9947 114.759 39.5528 114.783 42.111C114.783 42.7156 114.597 42.9351 113.991 42.9147C113.003 42.8793 112.011 42.8793 111.023 42.9147C110.408 42.9351 110.229 42.6914 110.236 42.0998C110.261 39.6663 110.249 37.231 110.236 34.7956C110.236 32.63 109.193 30.9891 107.373 30.2542C105.513 29.51 103.695 29.9342 102.142 31.4933C99.0923 34.5575 96.0281 37.6049 92.9993 40.6877C89.0923 44.6598 82.6216 44.2635 79.3044 40.1128C77.1686 37.443 76.6588 34.4291 77.8774 31.2589C79.1072 28.0551 81.5109 26.1128 84.9472 25.5621C88.7314 24.9575 92.3723 26.6263 94.2644 29.7277C94.5769 30.2375 94.5732 30.5705 94.1248 30.9947C93.0979 31.9658 92.1174 32.9891 91.0234 34.0886Z" fill="#2A43D4"/>
<path d="M45.5089 27.722L45.695 26.1871H50.1024V42.9759H45.6968C45.6429 42.5071 45.5926 42.0643 45.5108 41.4355C43.215 43.3927 40.6847 43.8969 37.9257 43.1099C36.0652 42.5778 34.6382 41.4355 33.5554 39.8559C31.1033 36.2801 31.4364 31.3778 34.361 28.2429C35.0454 27.483 35.8729 26.8655 36.7961 26.4256C37.7193 25.9857 38.7202 25.732 39.7415 25.6792C41.8717 25.5452 43.7675 26.1499 45.5089 27.722ZM40.9992 39.1173C43.7061 39.1266 45.6317 37.2122 45.6075 34.5387C45.5852 31.9173 43.6596 29.9676 41.0606 29.9341C38.4615 29.9006 36.4615 31.895 36.4671 34.5703C36.4726 37.2457 38.3219 39.108 40.9992 39.1173Z" fill="#2A43D4"/>
<path d="M59.3098 26.0946C60.3982 26.0946 61.2559 26.1188 62.1117 26.0946C62.7201 26.0723 63.0233 26.2285 62.9843 26.9132C62.935 27.8372 62.935 28.7631 62.9843 29.6871C63.014 30.3178 62.7554 30.489 62.1694 30.4648C61.308 30.4295 60.4466 30.4555 59.4326 30.4555V31.596C59.4326 35.0174 59.401 38.4388 59.455 41.8602C59.4698 42.7513 59.1647 42.9876 58.3387 42.9281C57.5337 42.8654 56.7251 42.8654 55.9201 42.9281C55.0289 43.0062 54.8317 42.6285 54.841 41.8118C54.8764 38.463 54.8578 35.0936 54.854 31.7336C54.854 30.4778 54.854 30.4778 53.5722 30.4741C52.3443 30.4741 52.3443 30.4741 52.3424 29.2853C52.3424 28.4834 52.3629 27.6816 52.3424 26.8816C52.3238 26.3234 52.5284 26.1374 53.0977 26.1225C54.6996 26.089 54.6996 26.0648 54.9303 24.4276C55.3973 21.142 57.8457 19.0471 61.3489 18.9392C61.8401 18.9243 62.3312 18.9392 62.895 18.9392V23.1811C61.7992 23.3671 60.4764 23.1811 59.801 24.3737C59.548 24.8257 59.5052 25.3839 59.3098 26.0946Z" fill="#2A43D4"/>
<path d="M64.4372 30.4679V26.1274C65.107 26.1274 65.7395 26.0939 66.3777 26.1274C67.0753 26.1739 67.3953 25.9656 67.3674 25.1972C67.3358 24.3804 67.1516 23.3367 67.5665 22.8009C67.9814 22.2651 69.0549 22.2093 69.8493 21.9618C70.4893 21.7628 71.1367 21.5897 71.8958 21.3721C71.8958 22.7228 71.9293 23.9507 71.8828 25.1749C71.8549 25.8707 72.1191 26.1163 72.7907 26.0846C73.4995 26.0511 74.2121 26.0958 74.9228 26.0753C75.4251 26.0604 75.6577 26.239 75.6465 26.7674C75.6223 27.7535 75.6167 28.7395 75.6465 29.7237C75.6651 30.319 75.3823 30.4567 74.8558 30.4381C74.0837 30.4121 73.3098 30.4493 72.5377 30.427C72.0558 30.4139 71.8865 30.613 71.8902 31.08C71.9051 33.173 71.8809 35.2679 71.9051 37.3609C71.9163 38.3321 72.3925 38.8065 73.3935 38.8735C74.093 38.92 74.7981 38.8735 75.626 38.8735C75.626 40.1758 75.6465 41.3721 75.6019 42.5609C75.6019 42.7321 75.2912 43.0037 75.094 43.0372C73.3581 43.3293 71.6242 43.2474 69.9925 42.5888C68.0446 41.8018 67.4363 40.0939 67.3767 38.1832C67.306 35.906 67.3339 33.6251 67.36 31.3479C67.36 30.6837 67.1739 30.3823 66.467 30.4344C65.827 30.5051 65.1814 30.4679 64.4372 30.4679Z" fill="#2A43D4"/>
<path d="M101.047 34.9258C101.047 37.5751 101.06 40.0569 101.023 42.5369C101.023 42.723 100.675 43.0411 100.48 43.0486C99.3079 43.0988 98.1321 43.1044 96.9619 43.0486C96.7516 43.0374 96.4037 42.6765 96.387 42.4588C96.3355 41.63 96.3287 40.799 96.3665 39.9695C96.3594 39.7563 96.425 39.547 96.5526 39.376C98.0019 37.9193 99.4661 36.4867 101.047 34.9258Z" fill="#2A43D4"/>
<path d="M30.1061 21.5496C30.0865 22.2801 29.785 22.9747 29.2649 23.4879C28.7447 24.0011 28.0461 24.2932 27.3154 24.3031C26.9537 24.3056 26.5951 24.2359 26.2606 24.0981C25.9261 23.9603 25.6224 23.7572 25.3674 23.5006C25.1124 23.244 24.9111 22.9391 24.7754 22.6038C24.6396 22.2685 24.5721 21.9095 24.5768 21.5477C24.5917 20.8177 24.8862 20.1212 25.3996 19.6019C25.913 19.0827 26.6061 18.7802 27.3359 18.757C28.7666 18.7384 30.1006 20.0817 30.1061 21.5496Z" fill="#2A43D4"/>
<path d="M99.7059 25.4075L96.3757 28.7117C96.3757 27.6642 96.3552 26.7173 96.3999 25.774C96.3999 25.6438 96.7329 25.4317 96.919 25.4242C97.7971 25.3833 98.679 25.4075 99.7059 25.4075Z" fill="#2A43D4"/>
</g>
</svg>
