<svg width="136" height="69" viewBox="0 0 136 69" fill="none" xmlns="http://www.w3.org/2000/svg">
<mask id="mask0_1_320" style="mask-type:luminance" maskUnits="userSpaceOnUse" x="23" y="17" width="90" height="36">
<path d="M23 17.5H113V52.5H23V17.5Z" fill="white"/>
</mask>
<g mask="url(#mask0_1_320)">
<path d="M95.365 52.5C105.104 52.5 113 44.665 113 35C113 25.335 105.104 17.5 95.365 17.5C85.625 17.5 77.73 25.335 77.73 35C77.73 44.665 85.625 52.5 95.365 52.5ZM72.257 42.845C72.74 42.845 73.205 42.655 73.547 42.315C73.716 42.1474 73.8501 41.948 73.9416 41.7283C74.0331 41.5086 74.0802 41.273 74.0802 41.035C74.0802 40.797 74.0331 40.5614 73.9416 40.3417C73.8501 40.122 73.716 39.9226 73.547 39.755C73.2039 39.4147 72.7402 39.2238 72.257 39.2238C71.7738 39.2238 71.3101 39.4147 70.967 39.755C70.7981 39.9226 70.664 40.122 70.5724 40.3417C70.4809 40.5614 70.4338 40.797 70.4338 41.035C70.4338 41.273 70.4809 41.5086 70.5724 41.7283C70.664 41.948 70.7981 42.1474 70.967 42.315C71.309 42.655 71.773 42.845 72.257 42.845ZM64.136 27.545H68.306V42.963H64.46L58.109 34.508L58.159 42.842H53.979V27.445H57.836L64.136 36.392V27.545ZM45.327 43.223C41.31 43.223 38.543 40.608 38.543 36.833V27.545H42.723V36.842C42.723 38.395 43.803 39.467 45.327 39.467C46.862 39.467 47.942 38.395 47.942 36.851V27.545H52.122V36.832C52.122 40.61 49.355 43.223 45.327 43.223ZM32.092 35.04L38.139 42.844H32.888L28.388 36.611H28.228V42.842H24.046V27.545H28.226V33.917H28.336L32.586 27.545H37.412L32.092 35.04Z" fill="#0C2F75"/>
<path d="M109.605 42.839V39.142H103.658L110.059 27.542H97.986V31.228H103.204L96.774 42.838L109.605 42.839ZM95.845 36.829V27.54H91.665V36.847C91.665 38.39 90.585 39.462 89.05 39.462C87.526 39.462 86.446 38.39 86.446 36.837V27.54H82.266V36.827C82.266 40.605 85.032 43.219 89.05 43.219C93.078 43.219 95.845 40.604 95.845 36.827V36.829Z" fill="white"/>
</g>
</svg>
