<svg width="49" height="49" viewBox="0 0 49 49" fill="none" xmlns="http://www.w3.org/2000/svg">
<g clip-path="url(#clip0_1_51)">
<path d="M24.0075 41.9661C33.6898 41.9661 41.5383 34.2215 41.5383 24.6685C41.5383 15.1155 33.6898 7.37183 24.0075 7.37183C14.3253 7.37183 6.47578 15.1155 6.47578 24.6685C6.47578 34.2215 14.3253 41.9651 24.0075 41.9651V41.9661Z" fill="#607987" fill-opacity="0.1"/>
<path d="M33.3666 21.7239L27.4714 20.8785L24.8343 15.6083C24.7572 15.455 24.6389 15.3263 24.4927 15.2365C24.3465 15.1467 24.1781 15.0994 24.0066 15.0999C23.6559 15.0999 23.3346 15.2968 23.1798 15.6073L20.5427 20.8785L14.6475 21.7239C13.8923 21.8316 13.5896 22.7505 14.1362 23.2765L18.4023 27.379L17.3953 33.1723C17.266 33.9149 18.0575 34.483 18.7344 34.1323L24.0066 31.3973L29.2797 34.1323C29.9527 34.4811 30.7491 33.9168 30.6188 33.1723L29.6118 27.379L33.8779 23.2765C34.4245 22.7514 34.1228 21.8326 33.3666 21.7239ZM27.9759 26.4092C27.8691 26.5117 27.7892 26.6388 27.7431 26.7794C27.6969 26.9199 27.6861 27.0697 27.7114 27.2154L28.4843 31.6628L24.4366 29.5635C24.3038 29.4948 24.1565 29.459 24.0071 29.459C23.8576 29.459 23.7103 29.4948 23.5775 29.5635L19.5298 31.6628L20.3037 27.2154C20.3288 27.0695 20.3176 26.9197 20.2711 26.7791C20.2247 26.6385 20.1443 26.5115 20.0373 26.4092L16.7625 23.2599L21.2882 22.6114C21.4357 22.5908 21.576 22.5348 21.6972 22.4481C21.8183 22.3614 21.9166 22.2467 21.9837 22.1137L24.0066 18.068L26.0304 22.1137C26.0974 22.2467 26.1957 22.3615 26.3169 22.4482C26.438 22.5349 26.5784 22.5909 26.7259 22.6114L31.2516 23.2608L27.9759 26.4092Z" fill="#4E6575"/>
<path d="M47.5354 24.6695C47.5354 23.8603 47.1543 23.1677 46.8183 22.5565C46.256 21.5338 46.2355 21.4427 46.4951 20.2603C46.644 19.5893 46.8115 18.8272 46.5891 18.0709C46.2071 16.7749 44.8768 16.0696 44.5408 15.3379C44.1979 14.5895 44.531 13.1308 43.8041 12.0063C43.0743 10.8768 41.5942 10.5682 41.0652 9.95892C40.5323 9.34765 40.4353 7.84692 39.4195 6.96921C38.4007 6.08855 36.897 6.20806 36.2123 5.76921C35.5305 5.33231 35.0191 3.91974 33.7868 3.35843C33.059 3.02635 32.2733 3.08316 31.5798 3.13312C30.3847 3.21933 30.3034 3.19386 29.3591 2.48855C28.7987 2.07027 28.164 1.59516 27.3558 1.47957C26.5692 1.36888 25.8364 1.64218 25.1899 1.88414C24.0595 2.30537 23.9556 2.30537 22.8252 1.88414C22.1786 1.64218 21.4449 1.36888 20.6583 1.48055C19.8511 1.59516 19.2154 2.07027 18.6551 2.48953C17.7127 3.19288 17.6304 3.21933 16.4343 3.13312C15.7408 3.08316 14.9551 3.02635 14.2273 3.35843C13.4926 3.69345 13.0204 4.32431 12.6031 4.8817C11.8929 5.8319 11.8175 5.8799 10.6537 6.13165C9.97293 6.27859 9.20199 6.44512 8.59563 6.96921C7.98926 7.49231 7.71497 8.227 7.47301 8.87647C7.05669 9.99223 6.99595 10.0618 5.95171 10.626C5.33946 10.9571 4.64493 11.3323 4.20999 12.0063C3.48314 13.1299 3.8162 14.5924 3.47334 15.3369C3.13734 16.0686 1.80608 16.7779 1.42599 18.0699C1.05081 19.3434 1.78355 20.658 1.66697 21.473C1.5553 22.2567 0.478729 23.3196 0.478729 24.6685C0.478729 26.0203 1.55432 27.0792 1.66697 27.8649C1.78453 28.6877 1.04983 29.9906 1.42501 31.267C1.80706 32.563 3.13734 33.2683 3.47334 34.0001C3.8162 34.7475 3.48314 36.2071 4.20999 37.3317C4.93979 38.4611 6.41995 38.7697 6.94893 39.379C7.48183 39.9903 7.57881 41.491 8.59465 42.3687C9.61342 43.2494 11.1171 43.1299 11.8018 43.5687C12.4836 44.0056 12.995 45.4182 14.2273 45.9795C15.4489 46.5359 16.8624 46.001 17.6461 46.2303C18.4151 46.4546 19.3094 47.6663 20.6583 47.8574C21.4204 47.9651 22.1199 47.7173 22.8252 47.4538C23.9556 47.0326 24.0585 47.0326 25.1889 47.4538C25.8355 47.6957 26.5692 47.969 27.3558 47.8574C28.7037 47.6663 29.604 46.4526 30.369 46.2303C31.1556 46.0001 32.5623 46.5379 33.7878 45.9795C35.0211 45.4172 35.5315 44.0056 36.2123 43.5697C36.8951 43.1308 38.4017 43.2474 39.4185 42.3697C40.4353 41.491 40.5333 39.9893 41.0642 39.378C41.5961 38.7687 43.0733 38.4621 43.8041 37.3317C44.531 36.2081 44.1989 34.7455 44.5408 34.001C44.8768 33.2693 46.208 32.561 46.5881 31.268C46.9633 29.9945 46.2306 28.6799 46.3471 27.8649C46.4588 27.0812 47.5354 26.0183 47.5354 24.6695ZM44.5192 27.6112C44.3478 28.8141 45.011 30.1013 44.817 30.7596C44.6162 31.4414 43.3672 32.1447 42.8598 33.2497C42.3475 34.3645 42.6296 35.7643 42.2485 36.353C41.8665 36.9437 40.4686 37.2699 39.6653 38.1917C38.8611 39.1155 38.7357 40.5388 38.2028 40.9992C37.6777 41.4528 36.2387 41.3813 35.2062 42.0425C34.1806 42.7008 33.6526 44.036 33.0129 44.3269C32.384 44.613 31.0312 44.1379 29.8449 44.4837C28.6841 44.8236 27.7917 45.956 27.0923 46.0559C26.4242 46.1519 25.2438 45.3143 24.0066 45.3143C22.7595 45.3143 21.5968 46.1529 20.9209 46.0559C20.5858 46.0079 20.1891 45.7111 19.7689 45.3976C18.8382 44.7021 18.272 44.3504 17.1093 44.3504C16.2923 44.3504 15.442 44.5277 15.0012 44.3269C14.3605 44.035 13.8364 42.7018 12.8069 42.0425C11.7754 41.3803 10.3373 41.4548 9.8113 40.9992C9.27644 40.5379 9.15497 39.1184 8.34877 38.1917C7.54551 37.269 6.14861 36.9447 5.76559 36.353C5.38648 35.7672 5.66469 34.3605 5.15432 33.2497C4.64689 32.1447 3.39791 31.4423 3.1971 30.7596C3.00314 30.0983 3.6673 28.8229 3.49391 27.6102C3.32346 26.4131 2.32428 25.3924 2.32428 24.6695C2.32428 23.9455 3.32346 22.9258 3.49391 21.7277C3.66632 20.5238 3.00412 19.2366 3.1971 18.5783C3.39791 17.8966 4.64689 17.1932 5.15432 16.0882C5.66665 14.9735 5.38452 13.5746 5.76559 12.9849C6.14763 12.3942 7.54551 12.069 8.34877 11.1462C9.15302 10.2224 9.2784 8.79908 9.8113 8.33867C10.3364 7.88512 11.7754 7.95761 12.8079 7.29541C13.8335 6.63712 14.3615 5.30292 15.0012 5.011C15.6262 4.72692 16.9878 5.19908 18.1692 4.85427C19.33 4.51533 20.2224 3.38194 20.9218 3.283C21.5938 3.187 22.7684 4.02357 24.0075 4.02357C25.2516 4.02357 26.4173 3.18602 27.0933 3.283C27.8015 3.38292 28.6684 4.51043 29.8459 4.85427C31.0214 5.19712 32.3889 4.72692 33.0139 5.011C33.6536 5.30292 34.1777 6.63614 35.2062 7.29541C36.2387 7.95761 37.6768 7.88414 38.2038 8.33867C38.7377 8.80006 38.8582 10.2195 39.6653 11.1462C40.4686 12.0699 41.8665 12.3932 42.2485 12.9849C42.6276 13.5707 42.3494 14.9774 42.8598 16.0882C43.3672 17.1932 44.6152 17.8966 44.817 18.5783C45.011 19.2396 44.3468 20.515 44.5202 21.7277C44.6906 22.9248 45.6898 23.9455 45.6898 24.6695C45.6898 25.3924 44.6906 26.4121 44.5192 27.6112Z" fill="#4E6575"/>
</g>
<defs>
<clipPath id="clip0_1_51">
<rect width="48" height="48" fill="white" transform="translate(0.369995 0.5)"/>
</clipPath>
</defs>
</svg>
