<svg width="136" height="69" viewBox="0 0 136 69" fill="none" xmlns="http://www.w3.org/2000/svg">
<mask id="mask0_1_235" style="mask-type:luminance" maskUnits="userSpaceOnUse" x="41" y="13" width="53" height="42">
<path d="M93.2021 13.5H41.9727V54.2604H93.2021V13.5Z" fill="white"/>
</mask>
<g mask="url(#mask0_1_235)">
<path d="M74.1675 21.4875C74.897 19.8441 75.6271 18.1999 76.3579 16.5548C76.7672 15.6356 77.1849 14.721 77.5805 13.7962C77.6737 13.5786 77.796 13.4999 78.0209 13.504C78.6831 13.5129 79.3459 13.5145 80.0081 13.504C80.2831 13.4997 80.3119 13.5848 80.2053 13.8234C79.2239 16.0152 78.2468 18.2091 77.2741 20.4051C76.1015 23.0372 74.9263 25.6682 73.7485 28.2981C73.5904 28.6498 73.7892 28.6412 74.0253 28.6409C75.5911 28.6409 77.1569 28.6409 78.7227 28.6409C81.6133 28.6409 84.5039 28.6409 87.3945 28.6409C89.9834 28.6409 92.111 30.1671 92.9278 32.6133C93.1301 33.2193 93.1907 33.8476 93.1907 34.4837C93.1907 39.111 93.1565 43.7389 93.2012 48.3659C93.234 51.773 90.4811 54.269 87.2836 54.2601C74.1255 54.2237 60.9672 54.245 47.8089 54.2447C44.6024 54.2447 42.0601 51.8842 42.0187 48.6778C41.9535 43.8102 41.9577 38.9419 42.0313 34.0727C42.0763 31.0141 44.6436 28.6423 47.7154 28.6415C55.3034 28.6395 62.8913 28.6421 70.479 28.6493C70.8515 28.6493 71.0333 28.547 71.1793 28.1934C71.664 27.0291 72.1859 25.8813 72.7079 24.7338C72.7835 24.5679 72.7975 24.4537 72.7197 24.2786C71.1846 20.8207 69.6619 17.3573 68.1263 13.898C67.9963 13.6077 68.0022 13.4929 68.3596 13.5034C68.9615 13.5207 69.5647 13.5255 70.1658 13.501C70.489 13.4876 70.6422 13.6066 70.7686 13.9028C71.8237 16.3746 72.8961 18.8388 73.9637 21.3052C73.9933 21.3736 74.013 21.4484 74.1675 21.4875ZM68.6878 47.3829C68.6992 47.2795 68.7204 47.1758 68.7204 47.0724C68.722 43.6008 68.722 40.1291 68.7204 36.6573C68.7204 36.5536 68.6997 36.4502 68.6884 36.3465C68.6749 36.1806 68.5489 36.2232 68.4517 36.2226C68.0603 36.2207 67.669 36.2226 67.2775 36.2226C66.4041 36.2226 66.4057 36.2226 66.3631 37.0728C66.3583 37.1687 66.4157 37.2993 66.2823 37.3481C66.1797 37.3853 66.1261 37.2805 66.0626 37.2245C65.2598 36.5164 64.3145 36.1335 63.265 35.9802C61.533 35.7274 59.9761 36.099 58.6675 37.2999C56.833 38.9833 56.3862 41.1101 56.8928 43.4459C57.3237 45.4371 58.5563 46.8632 60.4999 47.4958C62.4885 48.1421 64.3888 47.8704 66.0521 46.4934C66.1251 46.4328 66.1779 46.2909 66.3034 46.3703C66.3481 46.3972 66.354 46.4993 66.3642 46.5688C66.4065 46.8602 66.2191 47.2669 66.4598 47.4185C66.6901 47.5636 67.0706 47.4742 67.3855 47.4793C67.7315 47.4847 68.0779 47.4834 68.4239 47.4793C68.519 47.4772 68.6421 47.5294 68.6878 47.3829ZM81.945 47.4793C80.6313 45.683 79.3944 43.9823 78.1434 42.2918C77.974 42.0629 77.9516 41.9148 78.1291 41.6668C79.2891 40.038 80.4291 38.3949 81.5685 36.7518C81.6738 36.5999 81.9092 36.4486 81.8182 36.2671C81.7401 36.1117 81.4869 36.2105 81.3129 36.2075C80.7261 36.1984 80.1385 36.2181 79.5522 36.1981C79.2514 36.1879 79.0588 36.2749 78.8827 36.5358C78.0672 37.7445 77.217 38.93 76.405 40.14C76.2033 40.4398 76.1166 40.4282 75.9248 40.1433C75.1276 38.9583 74.3143 37.7822 73.501 36.6077C73.3933 36.4526 73.3173 36.2178 73.097 36.2137C72.2323 36.1981 71.3672 36.2075 70.443 36.2075C70.5472 36.3839 70.6008 36.4901 70.6681 36.5865C71.8334 38.2495 72.9915 39.9173 74.1745 41.5687C74.387 41.865 74.3994 42.0589 74.1791 42.3524C73.0694 43.8319 71.9733 45.3221 70.8908 46.823C70.7508 47.0164 70.5442 47.1874 70.5095 47.4823C71.2905 47.4823 72.0419 47.4678 72.793 47.4893C73.0957 47.4979 73.2866 47.4104 73.4663 47.1575C74.2742 46.0156 75.1091 44.8934 75.9213 43.755C76.1152 43.483 76.2205 43.4782 76.4206 43.7612C77.2369 44.9155 78.0761 46.0536 78.9088 47.1963C79.0033 47.3261 79.0731 47.4845 79.2802 47.4831C80.1304 47.4766 80.9825 47.4793 81.945 47.4793ZM49.3679 41.3678H49.3814C49.3814 42.3015 49.3375 43.2379 49.3919 44.1687C49.4727 45.5565 50.0081 46.7201 51.3309 47.3506C52.7359 48.0207 54.1539 47.921 55.5543 47.2967C56.2567 46.9843 56.2561 46.9843 55.8707 46.3089C55.8036 46.1915 55.739 46.0729 55.6768 45.9532C55.2807 45.1972 55.2904 45.2333 54.4867 45.4439C52.8305 45.878 51.7144 45.2066 51.7373 43.4733C51.7583 41.8768 51.7538 40.2798 51.7336 38.6833C51.7287 38.2988 51.8114 38.1584 52.2267 38.1716C53.2339 38.2042 54.2425 38.1757 55.2505 38.1865C55.4977 38.1889 55.6022 38.1267 55.5888 37.8584C55.5665 37.4368 55.5665 37.0143 55.5888 36.5927C55.6055 36.2913 55.4991 36.2092 55.2053 36.214C54.1819 36.2302 53.1585 36.2086 52.1351 36.2261C51.8119 36.2318 51.7274 36.123 51.7338 35.8114C51.7527 34.9081 51.7325 34.0038 51.7446 33.1002C51.7484 32.8266 51.6555 32.7232 51.3805 32.7296C50.8688 32.7434 50.3571 32.7566 49.8454 32.7264C49.4794 32.7054 49.3442 32.8034 49.3571 33.1947C49.386 34.0835 49.3558 34.9722 49.372 35.8609C49.3768 36.137 49.2944 36.2329 49.0173 36.2248C48.4611 36.2084 47.9029 36.2415 47.3475 36.2127C47.0131 36.1954 46.9344 36.3223 46.9508 36.6258C46.9729 37.017 46.9729 37.4091 46.9508 37.8003C46.9341 38.0906 47.0141 38.2015 47.3233 38.1881C47.8789 38.1636 48.4369 38.1972 48.993 38.1751C49.2974 38.163 49.3765 38.2737 49.3717 38.564C49.3582 39.4999 49.3679 40.4339 49.3679 41.3678ZM85.8767 41.8666C85.8767 40.1198 85.8702 38.3734 85.8829 36.6269C85.8851 36.3123 85.7927 36.2008 85.4727 36.2159C84.962 36.2426 84.4503 36.2426 83.9395 36.2159C83.5954 36.1957 83.5041 36.3107 83.5086 36.6468C83.5264 37.9715 83.5159 39.2966 83.5159 40.6216C83.5159 42.7596 83.5234 44.8977 83.5086 47.0358C83.5062 47.3878 83.5948 47.5144 83.9614 47.4896C84.4569 47.4595 84.9538 47.4595 85.4493 47.4896C85.7841 47.5079 85.888 47.4066 85.8845 47.0633C85.8675 45.3297 85.8767 43.598 85.8767 41.8666ZM84.6311 34.5744C85.5546 34.5839 86.1896 34.0046 86.1991 33.1444C86.2082 32.3276 85.5473 31.6607 84.7208 31.6524C83.8644 31.6438 83.1685 32.3012 83.1653 33.122C83.162 33.9208 83.8135 34.5664 84.6311 34.5744Z" fill="black"/>
<path d="M49.369 19.4364C49.369 17.7182 49.3806 16 49.3598 14.282C49.3555 13.9117 49.4676 13.8132 49.8198 13.8328C50.316 13.8587 50.8132 13.8587 51.3094 13.8328C51.6439 13.8164 51.7672 13.9217 51.7494 14.2661C51.7384 14.474 51.6132 14.7757 51.8337 14.8812C51.9827 14.9526 52.1195 14.6658 52.2609 14.5427C53.9532 13.0537 57.4265 13.0561 58.8754 15.2753C59.064 15.565 59.1477 15.4535 59.3163 15.2577C60.6704 13.6885 62.4112 13.2357 64.3743 13.6481C66.1929 14.03 67.4824 15.7175 67.5152 17.7225C67.5535 20.058 67.5206 22.3945 67.5293 24.7305C67.5293 24.9875 67.4522 25.0782 67.1961 25.0712C66.6844 25.0572 66.1711 25.0443 65.661 25.075C65.2915 25.0976 65.1779 24.9942 65.1817 24.6083C65.2019 22.5437 65.1879 20.4789 65.1924 18.4141C65.1943 17.5402 64.9385 16.7737 64.2458 16.2133C63.0554 15.2505 61.0803 15.6162 60.2365 16.9323C59.7539 17.6848 59.626 18.5258 59.6217 19.3928C59.6125 21.1411 59.6101 22.8895 59.6263 24.6376C59.6295 24.9718 59.5455 25.0936 59.201 25.0742C58.7049 25.0474 58.2076 25.0474 57.7115 25.0742C57.3692 25.0922 57.2507 25.0071 57.2536 24.6328C57.2741 22.5529 57.2698 20.473 57.2612 18.3931C57.2555 17.0533 56.4589 15.9461 55.3787 15.7409C53.7033 15.4226 52.3624 16.2709 51.9086 17.925C51.7713 18.4257 51.7411 18.9344 51.74 19.4469C51.737 21.1802 51.729 22.9135 51.747 24.6465C51.7505 24.9939 51.6436 25.0901 51.3121 25.0742C50.8007 25.0466 50.2883 25.047 49.777 25.0755C49.4196 25.0976 49.3579 24.9608 49.3606 24.6365C49.3781 22.9027 49.369 21.1694 49.369 19.4364Z" fill="black"/>
<path d="M66.3595 41.8415C66.367 43.4741 65.6493 44.6987 64.1721 45.3712C62.7911 45.9997 61.4206 45.8416 60.2531 44.8382C59.066 43.8178 58.8354 42.4502 59.0905 40.9722C59.3654 39.3811 60.6129 38.1908 62.1391 38.0386C63.8831 37.8646 65.485 38.7593 66.0934 40.2545C66.2997 40.7613 66.3689 41.2957 66.3595 41.8415Z" fill="black"/>
</g>
<path d="M55.8975 46.3104C56.2829 46.9865 56.2829 46.9858 55.5814 47.2985C54.1812 47.9218 52.7624 48.0213 51.3581 47.3513C50.036 46.7205 49.5005 45.5575 49.4196 44.1696C49.3647 43.2385 49.4086 42.3025 49.4086 41.3685H49.3956C49.3956 40.4346 49.386 39.5 49.401 38.5661C49.4065 38.2767 49.327 38.1656 49.0225 38.1779C48.4664 38.1999 47.9089 38.1656 47.3528 38.1903C47.0436 38.2047 46.9633 38.0929 46.9805 37.8029C47.0024 37.4119 47.0024 37.0199 46.9805 36.6289C46.9633 36.3245 47.0415 36.1983 47.3768 36.2175C47.9316 36.247 48.4897 36.2141 49.0465 36.2299C49.3208 36.2381 49.4058 36.1421 49.4004 35.8664C49.3846 34.975 49.4154 34.0884 49.386 33.2004C49.3729 32.8089 49.508 32.7115 49.8735 32.7321C50.3844 32.7616 50.8973 32.7492 51.4081 32.7321C51.6824 32.7252 51.7764 32.8294 51.7729 33.103C51.7606 34.0068 51.7805 34.9106 51.7613 35.8143C51.7551 36.1263 51.8401 36.234 52.1631 36.2292C53.1862 36.2113 54.2093 36.2333 55.2317 36.2168C55.5258 36.212 55.6321 36.2943 55.6157 36.5953C55.5934 37.0168 55.5934 37.4391 55.6157 37.8605C55.6287 38.1279 55.5252 38.1903 55.2776 38.1875C54.2696 38.1773 53.2609 38.2061 52.2543 38.1738C51.8388 38.1594 51.7551 38.3 51.7606 38.6847C51.7805 40.281 51.7846 41.8787 51.764 43.475C51.7407 45.2085 52.8577 45.8798 54.513 45.4457C55.3167 45.2352 55.3071 45.1989 55.7034 45.9552C55.7665 46.0745 55.8312 46.1929 55.8975 46.3104Z" fill="#FBE500"/>
<path d="M68.7169 36.3467C68.733 36.4499 68.7437 36.5538 68.7491 36.658C68.7491 40.1323 68.7491 43.6038 68.7491 47.0725C68.7438 47.1768 68.7331 47.2807 68.7169 47.3838C68.6702 47.5306 68.5468 47.4778 68.4515 47.4798C68.1052 47.4839 67.7589 47.486 67.4133 47.4798C67.0986 47.4743 66.7173 47.5642 66.4876 47.4188C66.2469 47.2673 66.4334 46.8606 66.3916 46.5685C66.382 46.5 66.3758 46.3985 66.3313 46.3704C66.2051 46.2915 66.1523 46.4328 66.0796 46.4931C64.4161 47.8707 62.5139 48.1429 60.5253 47.4963C58.5813 46.8634 57.3498 45.4392 56.9178 43.4465C56.4117 41.1096 56.8581 38.9833 58.6931 37.3005C60.0021 36.0985 61.5587 35.7234 63.2874 35.9799C64.3365 36.1335 65.2821 36.5168 66.0851 37.2237C66.1482 37.28 66.2017 37.3849 66.3045 37.3478C66.4417 37.2992 66.3806 37.1682 66.3861 37.0736C66.4279 36.2233 66.4273 36.2233 67.3002 36.2233C67.6924 36.2233 68.0833 36.2233 68.4748 36.2233C68.577 36.224 68.7031 36.1821 68.7169 36.3467Z" fill="#FBE500"/>
<path d="M78.1723 42.2925C79.4237 43.9834 80.6601 45.684 81.9739 47.4805C81.0139 47.4805 80.1588 47.4805 79.3065 47.4805C79.1007 47.4805 79.0322 47.3235 78.9348 47.1939C78.1024 46.0508 77.2624 44.9132 76.4464 43.7585C76.2461 43.4753 76.1419 43.4808 75.9465 43.753C75.1353 44.8913 74.3008 46.0158 73.4923 47.1548C73.3133 47.4078 73.1227 47.4976 72.8196 47.4867C72.0688 47.4661 71.3158 47.4798 70.5362 47.4798C70.5712 47.185 70.7776 47.0135 70.9174 46.8202C72.0036 45.3233 73.0953 43.8312 74.2089 42.3514C74.429 42.0579 74.4146 41.8639 74.2041 41.5677C73.0212 39.9179 71.8624 38.2502 70.6973 36.586C70.6288 36.4907 70.5766 36.3844 70.4724 36.2075C71.3968 36.2075 72.2621 36.1979 73.1261 36.2137C73.3469 36.2185 73.423 36.453 73.5307 36.608C74.3446 37.7826 75.1579 38.9579 75.9547 40.1435C76.146 40.428 76.2331 40.4397 76.4347 40.14C77.2452 38.9311 78.0962 37.7462 78.9115 36.5401C79.0877 36.2795 79.2804 36.1924 79.5807 36.202C80.1677 36.2226 80.7547 36.202 81.3417 36.2116C81.5158 36.2116 81.7689 36.1163 81.847 36.2713C81.9382 36.4523 81.703 36.6038 81.5974 36.7554C80.4585 38.4011 79.3181 40.0413 78.1579 41.6698C77.9803 41.9167 78.0029 42.0634 78.1723 42.2925Z" fill="#FBE500"/>
<path d="M85.9125 47.0613C85.9125 47.4041 85.8117 47.5063 85.4771 47.4878C84.9815 47.4576 84.4846 47.4576 83.9891 47.4878C83.6229 47.5132 83.5345 47.3863 83.5365 47.0346C83.5516 44.8965 83.5441 42.7585 83.5441 40.6198C83.5441 39.295 83.5543 37.9695 83.5365 36.6427C83.5324 36.3074 83.6236 36.1922 83.9678 36.2128C84.4786 36.2388 84.9903 36.2388 85.5011 36.2128C85.8206 36.1977 85.9125 36.3081 85.9125 36.6242C85.9002 38.3714 85.9063 40.1213 85.9063 41.8643C85.905 43.5985 85.8961 45.3299 85.9125 47.0613Z" fill="#FBE500"/>
<path d="M83.1929 33.1224C83.197 32.2995 83.8923 31.644 84.7488 31.6529C84.9439 31.6535 85.1371 31.6925 85.3172 31.7679C85.4972 31.8432 85.6606 31.9533 85.798 32.0919C85.9354 32.2306 86.0441 32.3949 86.1179 32.5756C86.1917 32.7563 86.229 32.9498 86.2278 33.145C86.2182 34.0049 85.5833 34.585 84.6596 34.5754C84.4679 34.5763 84.2779 34.5394 84.1004 34.4669C83.9229 34.3944 83.7615 34.2876 83.6253 34.1527C83.4891 34.0177 83.3808 33.8573 83.3066 33.6805C83.2324 33.5038 83.1938 33.3141 83.1929 33.1224Z" fill="#FBE500"/>
<path d="M93.2222 34.4829C93.2222 33.8465 93.1612 33.2177 92.9582 32.6129C92.1422 30.1663 90.0151 28.6406 87.4252 28.64C84.5346 28.64 81.6439 28.64 78.7529 28.64C77.1881 28.64 75.6226 28.64 74.0565 28.64C73.8199 28.64 73.621 28.6482 73.7822 28.2971C74.9644 25.669 76.1397 23.038 77.3081 20.404C78.286 18.2097 79.2569 16.0154 80.2396 13.8212C80.3465 13.5819 80.3177 13.4968 80.0428 13.5016C79.3804 13.5119 78.7173 13.5099 78.0542 13.5016C77.8293 13.4975 77.7072 13.5757 77.614 13.7931C77.219 14.7181 76.8 15.6335 76.3913 16.5517C75.6599 18.1974 74.9285 19.8417 74.197 21.4846C74.1486 21.4779 74.1032 21.457 74.0666 21.4245C74.03 21.3921 74.0038 21.3495 73.9913 21.3022C72.925 18.8392 71.8512 16.3754 70.7993 13.9035C70.6732 13.6066 70.5202 13.4879 70.1966 13.501C69.5952 13.5256 68.9918 13.5215 68.3897 13.501C68.0325 13.4907 68.027 13.6038 68.1566 13.8966C69.6919 17.3546 71.2142 20.8188 72.7509 24.2768C72.8284 24.4517 72.814 24.5662 72.7385 24.7321C72.2167 25.8793 71.6935 27.0272 71.2101 28.1908C71.0633 28.5453 70.8816 28.6475 70.5093 28.6468C62.9207 28.6358 55.3321 28.6336 47.7436 28.64C44.6688 28.6427 42.1022 31.0152 42.0576 34.0714C41.9854 38.9399 41.9811 43.8085 42.0446 48.677C42.0871 51.884 44.6298 54.2442 47.8361 54.2442C60.995 54.2442 74.1538 54.2229 87.312 54.26C90.5074 54.2689 93.2619 51.7722 93.2297 48.3629C93.1852 43.7399 93.2181 39.1121 93.2222 34.4829ZM46.9811 36.6291C46.9639 36.3247 47.0421 36.1985 47.3774 36.2177C47.9321 36.2472 48.4903 36.2143 49.0471 36.23C49.3214 36.2383 49.4064 36.1423 49.4009 35.8666C49.3852 34.9752 49.416 34.0886 49.3865 33.2006C49.3735 32.8091 49.5086 32.7117 49.8741 32.7323C50.3849 32.7617 50.8979 32.7494 51.4087 32.7323C51.683 32.7254 51.7769 32.8296 51.7735 33.1032C51.7612 34.007 51.7811 34.9107 51.7619 35.8145C51.7557 36.1265 51.8407 36.2342 52.1637 36.2294C53.1868 36.2115 54.2099 36.2335 55.2323 36.217C55.5264 36.2122 55.6327 36.2945 55.6163 36.5955C55.594 37.0169 55.594 37.4392 55.6163 37.8606C55.6293 38.1281 55.5257 38.1905 55.2782 38.1877C54.2702 38.1774 53.2615 38.2062 52.2549 38.174C51.8393 38.1596 51.7557 38.3002 51.7612 38.6849C51.7811 40.2812 51.7852 41.8789 51.7646 43.4752C51.7413 45.2087 52.8583 45.88 54.5136 45.4459C55.3173 45.2354 55.3077 45.1991 55.704 45.9554C55.7671 46.0747 55.8318 46.1931 55.8981 46.3106C56.2835 46.9867 56.2835 46.986 55.582 47.2987C54.1817 47.922 52.763 48.0214 51.3587 47.3515C50.0366 46.7206 49.5011 45.5577 49.4201 44.1698C49.3653 43.2386 49.4092 42.3026 49.4092 41.3687H49.3961C49.3961 40.4348 49.3865 39.5002 49.4016 38.5662C49.4071 38.2769 49.3276 38.1658 49.0231 38.1781C48.467 38.2001 47.9095 38.1658 47.3534 38.1905C47.0441 38.2049 46.9639 38.0931 46.9811 37.803C47.003 37.412 47.003 37.0201 46.9811 36.6291ZM66.3916 37.0735C66.4334 36.2232 66.4327 36.2232 67.3056 36.2232C67.6978 36.2232 68.0887 36.2232 68.4802 36.2232C68.5769 36.2232 68.7031 36.182 68.7168 36.3466C68.7329 36.4498 68.7437 36.5537 68.7491 36.6579C68.7491 40.1322 68.7491 43.6037 68.7491 47.0724C68.7438 47.1767 68.733 47.2806 68.7168 47.3837C68.6702 47.5305 68.5468 47.4777 68.4515 47.4797C68.1052 47.4838 67.7589 47.4859 67.4133 47.4797C67.0985 47.4742 66.7173 47.5641 66.4876 47.4187C66.2469 47.2672 66.4334 46.8605 66.3916 46.5684C66.382 46.4998 66.3758 46.3984 66.3312 46.3703C66.2051 46.2914 66.1523 46.4326 66.0796 46.493C64.416 47.8706 62.5139 48.1428 60.5253 47.4962C58.5813 46.8633 57.3497 45.4391 56.9177 43.4464C56.4117 41.1095 56.8581 38.9831 58.6931 37.3004C60.0021 36.0984 61.5587 35.7233 63.2873 35.9798C64.3365 36.1334 65.2821 36.5167 66.0851 37.2236C66.1481 37.2799 66.2016 37.3848 66.3045 37.3477C66.4444 37.2997 66.3861 37.1688 66.3916 37.0735ZM78.1721 42.2924C79.4236 43.9833 80.6599 45.6839 81.9737 47.4804C81.0137 47.4804 80.1586 47.4804 79.3063 47.4804C79.1006 47.4804 79.032 47.3234 78.9346 47.1938C78.1022 46.0507 77.2622 44.9131 76.4462 43.7584C76.246 43.4752 76.1417 43.4807 75.9463 43.7529C75.1351 44.8912 74.3006 46.0157 73.4921 47.1547C73.3132 47.4077 73.1225 47.4976 72.8194 47.4866C72.0686 47.466 71.3157 47.4797 70.536 47.4797C70.571 47.1849 70.7774 47.0134 70.9173 46.8201C72.0034 45.3232 73.0951 43.8311 74.2087 42.3513C74.4288 42.0578 74.4144 41.8638 74.2039 41.5676C73.021 39.9178 71.8622 38.2501 70.6972 36.5859C70.6286 36.4906 70.5765 36.3843 70.4722 36.2074C71.3966 36.2074 72.262 36.1978 73.126 36.2136C73.3468 36.2184 73.4229 36.4529 73.5305 36.6079C74.3445 37.7825 75.1577 38.9578 75.9545 40.1434C76.1458 40.4279 76.2329 40.4396 76.4345 40.1399C77.245 38.931 78.096 37.7461 78.9113 36.54C79.0876 36.2794 79.2802 36.1923 79.5806 36.2019C80.1676 36.2225 80.7545 36.2019 81.3415 36.2115C81.5157 36.2115 81.7687 36.1162 81.8469 36.2712C81.9381 36.4522 81.7029 36.6037 81.5973 36.7553C80.4583 38.401 79.318 40.0412 78.1577 41.6697C77.9801 41.9166 78.0028 42.0633 78.1721 42.2924ZM83.544 40.6213C83.544 39.2965 83.5543 37.971 83.5365 36.6442C83.5324 36.3089 83.6236 36.1937 83.9678 36.2143C84.4785 36.2403 84.9903 36.2403 85.501 36.2143C85.8206 36.1992 85.9125 36.3096 85.9125 36.6257C85.9001 38.3729 85.9063 40.1228 85.9063 41.8659C85.9063 43.5973 85.8974 45.3287 85.9138 47.0601C85.9138 47.4029 85.813 47.5051 85.4784 47.4866C84.9829 47.4564 84.486 47.4564 83.9904 47.4866C83.6242 47.512 83.5358 47.3851 83.5378 47.0333C83.5536 44.898 83.544 42.76 83.544 40.6213ZM84.659 34.5754C84.2719 34.5771 83.9 34.4249 83.6251 34.1525C83.3502 33.88 83.1947 33.5095 83.1929 33.1224C83.197 32.2996 83.8924 31.644 84.7488 31.653C84.944 31.6535 85.1371 31.6926 85.3172 31.7679C85.4973 31.8432 85.6607 31.9534 85.7981 32.092C85.9355 32.2306 86.0442 32.395 86.118 32.5757C86.1917 32.7564 86.2291 32.9499 86.2279 33.1451C86.2176 34.0029 85.5826 34.585 84.659 34.5754Z" fill="#020200"/>
<path d="M49.397 19.4371C49.397 17.7187 49.408 16.0003 49.3874 14.2826C49.3833 13.9124 49.4965 13.8136 49.8476 13.8335C50.3437 13.8592 50.8408 13.8592 51.3369 13.8335C51.6716 13.817 51.7957 13.922 51.7772 14.2669C51.7662 14.4726 51.64 14.7757 51.8615 14.884C52.0103 14.9526 52.1474 14.6701 52.2887 14.546C53.981 13.0545 57.4542 13.0573 58.9031 15.2762C59.0924 15.5663 59.1774 15.4545 59.344 15.2591C60.6983 13.6895 62.4393 13.2363 64.4025 13.6484C66.221 14.0303 67.5102 15.7178 67.5431 17.7228C67.5815 20.0583 67.5486 22.3952 67.5575 24.7314C67.5575 24.9879 67.4807 25.0784 67.2242 25.0743C66.7127 25.0606 66.1991 25.0468 65.6889 25.0784C65.32 25.101 65.2089 24.9982 65.2089 24.6114C65.2288 22.5468 65.2151 20.4821 65.2192 18.4174C65.2192 17.5432 64.9655 16.7772 64.2729 16.2163C63.0818 15.2563 61.107 15.6191 60.2629 16.9356C59.7829 17.6899 59.6526 18.5292 59.6457 19.3959C59.6368 21.1445 59.6348 22.893 59.6505 24.6409C59.654 24.9748 59.571 25.0969 59.2254 25.0777C58.7293 25.0506 58.2321 25.0506 57.736 25.0777C57.3932 25.0955 57.2752 25.0091 57.2786 24.6361C57.2992 22.5564 57.2951 20.4766 57.2862 18.3962C57.2807 17.0556 56.4839 15.9489 55.4032 15.7439C53.728 15.425 52.3861 16.2732 51.9335 17.9279C51.7964 18.4284 51.7662 18.9372 51.7648 19.4494C51.7648 21.1829 51.7538 22.9164 51.7717 24.6491C51.7758 24.9968 51.6681 25.0928 51.3369 25.077C50.8258 25.0489 50.3135 25.0489 49.8023 25.077C49.445 25.099 49.3833 24.9625 49.3861 24.6382C49.4053 22.9033 49.397 21.1699 49.397 19.4371Z" fill="#020200"/>
<path d="M66.3877 41.842C66.3952 43.4747 65.6773 44.6994 64.2003 45.3721C62.8192 46.0002 61.4485 45.8424 60.2814 44.8386C59.0937 43.8182 58.8633 42.451 59.1157 40.9726C59.39 39.381 60.638 38.1913 62.1644 38.0391C63.9088 37.865 65.5107 38.7598 66.1189 40.2553C66.3158 40.7603 66.4073 41.3003 66.3877 41.842Z" fill="#020200"/>
</svg>
