<svg width="214" height="47" viewBox="0 0 214 47" fill="none" xmlns="http://www.w3.org/2000/svg">
<g clip-path="url(#clip0_1_631)">
<path d="M0 13.785C0 13.4669 0.14314 13.3079 0.424119 13.3079H1.82371C1.91914 13.3079 2.01457 13.3344 2.10469 13.3821C2.20012 13.4351 2.27964 13.5306 2.34856 13.679L8.75276 26.3018L9.16628 27.5212L9.03904 26.2859L8.93831 13.7797C8.93831 13.6419 8.97542 13.5306 9.04965 13.4404C9.12387 13.3503 9.2299 13.3079 9.37834 13.3079H10.8203C10.9423 13.3079 11.0377 13.345 11.1172 13.4192C11.1967 13.4934 11.2339 13.6101 11.2339 13.7744V31.1792C11.2339 31.4867 11.0854 31.6404 10.7832 31.6404H9.42075C9.32532 31.6404 9.2299 31.6192 9.12387 31.5715C9.02314 31.5238 8.93831 31.4284 8.88 31.2799L2.50761 18.8373L2.05698 17.5756L2.20012 18.848L2.27964 31.1633C2.27964 31.4814 2.1418 31.6404 1.86612 31.6404H0.424119C0.14314 31.6404 0 31.4814 0 31.1633V13.785Z" fill="black"/>
<path d="M26.6082 31.1527C26.6612 31.3012 26.6559 31.4178 26.587 31.5079C26.5234 31.598 26.4279 31.6404 26.2954 31.6404H24.636C24.5406 31.6404 24.4505 31.6139 24.3551 31.5609C24.2596 31.5079 24.196 31.4125 24.1642 31.264L23.3054 27.8817H17.7494L16.9012 31.264C16.8693 31.4125 16.8057 31.5079 16.7103 31.5609C16.6149 31.6139 16.5195 31.6404 16.4293 31.6404H14.77C14.6427 31.6404 14.5473 31.5927 14.489 31.5079C14.4307 31.4178 14.4201 31.3012 14.4625 31.1527L19.3611 13.6949C19.4035 13.5518 19.4671 13.4457 19.5466 13.3874C19.6261 13.3291 19.7216 13.2973 19.8223 13.2973H21.2484C21.3491 13.2973 21.4445 13.3291 21.5294 13.3874C21.6142 13.4457 21.6778 13.5518 21.7202 13.6949L26.6029 31.1527H26.6082ZM18.3061 25.7293H22.7646L20.7341 17.6816L20.5433 16.3191L20.3524 17.6816L18.3114 25.7293H18.3061Z" fill="black"/>
<path d="M34.5233 13.7744C34.5233 13.6048 34.5657 13.4828 34.6506 13.4139C34.7354 13.345 34.8255 13.3132 34.9209 13.3132H36.4637C36.6333 13.3132 36.75 13.3556 36.8189 13.4457C36.8825 13.5358 36.9143 13.6631 36.9143 13.8274L36.8984 27.4152C36.8984 28.099 36.7818 28.7246 36.5432 29.2813C36.3099 29.8379 35.9865 30.3098 35.5836 30.7021C35.1807 31.0944 34.7036 31.3966 34.1575 31.6086C33.6115 31.8207 33.023 31.932 32.3974 31.932C31.7294 31.932 31.088 31.8048 30.4783 31.5503C29.8686 31.2958 29.365 30.9566 28.9674 30.5271C28.8825 30.4423 28.8136 30.331 28.7606 30.1931C28.7076 30.0553 28.7447 29.9281 28.8613 29.8061L29.699 28.8307C29.8209 28.7087 29.9375 28.661 30.0542 28.6875C30.1708 28.714 30.2768 28.7776 30.367 28.8784C30.5525 29.0586 30.8123 29.2336 31.1463 29.3979C31.475 29.5623 31.8567 29.6471 32.2808 29.6471C32.6095 29.6471 32.9064 29.5835 33.182 29.4615C33.4577 29.3396 33.691 29.1646 33.8871 28.942C34.0833 28.7193 34.237 28.4489 34.3484 28.1309C34.4597 27.8128 34.5127 27.4682 34.5127 27.0918V13.7744H34.5233Z" fill="black"/>
<path d="M40.4451 19.2244C40.4451 18.3761 40.567 17.5756 40.8056 16.8175C41.0441 16.0647 41.4046 15.402 41.8818 14.8294C42.3589 14.2569 42.9474 13.8115 43.6578 13.4775C44.3629 13.1488 45.1846 12.9845 46.1177 12.9845C47.0507 12.9845 47.8619 13.1488 48.567 13.4775C49.2721 13.8062 49.8711 14.2569 50.3536 14.8188C50.836 15.3861 51.2018 16.0435 51.4457 16.7963C51.6895 17.5491 51.8115 18.3496 51.8115 19.1978V25.7399C51.8115 26.5881 51.6895 27.3886 51.4457 28.1415C51.2018 28.8943 50.8413 29.557 50.3589 30.1189C49.8764 30.6862 49.2827 31.1315 48.5723 31.4602C47.8619 31.7889 47.0401 31.9532 46.1177 31.9532C45.1952 31.9532 44.3788 31.7889 43.6737 31.4602C42.9686 31.1315 42.3801 30.6809 41.8977 30.1189C41.4205 29.5517 41.0547 28.8943 40.8109 28.1415C40.567 27.3886 40.4451 26.5881 40.4451 25.7399V19.2084V19.2244ZM42.8254 25.9095C42.8254 26.4397 42.8944 26.938 43.0375 27.3993C43.1806 27.8605 43.3874 28.2634 43.6684 28.6027C43.9494 28.942 44.2886 29.2071 44.6969 29.4085C45.1051 29.6047 45.5769 29.7054 46.1177 29.7054C46.6584 29.7054 47.1356 29.61 47.5438 29.4085C47.9573 29.2124 48.3019 28.942 48.5882 28.6027C48.8691 28.2634 49.0812 27.8658 49.2243 27.4046C49.3675 26.9486 49.4364 26.4503 49.4364 25.9201V19.0441C49.4364 18.5193 49.3622 18.0315 49.219 17.5703C49.0759 17.1091 48.8638 16.7114 48.5829 16.3668C48.3019 16.0223 47.9573 15.7519 47.5491 15.5504C47.1409 15.349 46.6637 15.2482 46.123 15.2482C45.5822 15.2482 45.121 15.349 44.7075 15.5451C44.294 15.7413 43.9494 16.0116 43.6737 16.3562C43.3927 16.7008 43.1859 17.1038 43.0428 17.565C42.8997 18.0262 42.8307 18.5193 42.8307 19.0441V25.9095H42.8254Z" fill="black"/>
<path d="M53.9957 13.7479C53.9957 13.6048 54.0328 13.4934 54.107 13.4192C54.1812 13.345 54.2714 13.3079 54.3827 13.3079H64.6941C64.7948 13.3079 64.885 13.345 64.9592 13.4192C65.0334 13.4934 65.0705 13.5995 65.0705 13.7479V15.174C65.0705 15.3225 65.0334 15.4232 64.9592 15.4868C64.885 15.5504 64.8001 15.5822 64.6941 15.5822H60.7233V31.2004C60.7233 31.3489 60.6862 31.4549 60.6173 31.5291C60.5483 31.6033 60.4582 31.6404 60.3469 31.6404H58.7299C58.608 31.6404 58.5179 31.6033 58.449 31.5291C58.38 31.4549 58.3429 31.3489 58.3429 31.2004V15.5822H54.3827C54.2714 15.5822 54.1812 15.5504 54.107 15.4868C54.0328 15.4232 53.9957 15.3172 53.9957 15.174V13.7479Z" fill="black"/>
<path d="M145.765 13.7479C145.765 13.6048 145.802 13.4934 145.876 13.4192C145.95 13.345 146.04 13.3079 146.152 13.3079H156.463C156.564 13.3079 156.654 13.345 156.728 13.4192C156.802 13.4934 156.839 13.5995 156.839 13.7479V15.174C156.839 15.3225 156.802 15.4232 156.728 15.4868C156.654 15.5504 156.569 15.5822 156.463 15.5822H152.492V31.2004C152.492 31.3489 152.46 31.4549 152.391 31.5291C152.322 31.6033 152.232 31.6404 152.121 31.6404H150.504C150.382 31.6404 150.292 31.6033 150.223 31.5291C150.154 31.4549 150.122 31.3489 150.122 31.2004V15.5822H146.162C146.051 15.5822 145.961 15.5504 145.886 15.4868C145.812 15.4232 145.775 15.3172 145.775 15.174V13.7479H145.765Z" fill="black"/>
<path d="M169.664 31.1527C169.717 31.3012 169.706 31.4178 169.642 31.5079C169.579 31.598 169.483 31.6404 169.351 31.6404H167.691C167.596 31.6404 167.506 31.6139 167.411 31.5609C167.315 31.5079 167.251 31.4125 167.22 31.264L166.361 27.8817H160.805L159.957 31.264C159.925 31.4125 159.856 31.5079 159.766 31.5609C159.67 31.6139 159.58 31.6404 159.485 31.6404H157.825C157.698 31.6404 157.603 31.5927 157.544 31.5079C157.486 31.4178 157.476 31.3012 157.518 31.1527L162.416 13.6949C162.459 13.5518 162.523 13.4457 162.602 13.3874C162.682 13.3291 162.777 13.2973 162.878 13.2973H164.304C164.405 13.2973 164.5 13.3291 164.585 13.3874C164.67 13.4457 164.733 13.5518 164.776 13.6949L169.658 31.1527H169.664ZM161.362 25.7293H165.82L163.79 17.6816L163.599 16.3191L163.408 17.6816L161.367 25.7293H161.362Z" fill="black"/>
<path d="M172.548 13.8751C172.548 13.7108 172.59 13.5836 172.67 13.4828C172.749 13.3821 172.871 13.3344 173.035 13.3344H174.679C175.002 13.3344 175.167 13.5146 175.167 13.8751V16.0753C175.167 16.3509 175.119 16.5842 175.023 16.7751C174.928 16.9659 174.801 17.125 174.647 17.2522C174.488 17.3741 174.308 17.4696 174.101 17.5279C173.894 17.5862 173.682 17.618 173.47 17.618C173.205 17.618 173.072 17.512 173.072 17.2946V16.7698C173.072 16.669 173.11 16.5948 173.189 16.5524C173.269 16.51 173.359 16.4888 173.459 16.4888C173.576 16.4888 173.661 16.457 173.709 16.3987C173.756 16.3403 173.778 16.2502 173.778 16.1389C173.778 16.0276 173.756 15.948 173.719 15.9003C173.682 15.8526 173.608 15.8314 173.507 15.8314H172.982C172.86 15.8314 172.76 15.7943 172.675 15.7148C172.59 15.6352 172.548 15.5133 172.548 15.3437V13.8804V13.8751Z" fill="black"/>
<path d="M179.673 13.785C179.673 13.4669 179.816 13.3079 180.097 13.3079H181.629C181.91 13.3079 182.053 13.4669 182.053 13.785V29.3767H188.054C188.171 29.3767 188.272 29.4085 188.341 29.4721C188.415 29.5358 188.452 29.6418 188.452 29.7849V31.2004C188.452 31.3489 188.415 31.4549 188.341 31.5291C188.267 31.6033 188.171 31.6404 188.054 31.6404H180.097C179.816 31.6404 179.673 31.4814 179.673 31.1633V13.785Z" fill="black"/>
<path d="M192.259 13.785C192.259 13.4669 192.402 13.3079 192.693 13.3079H194.225C194.501 13.3079 194.639 13.4669 194.639 13.785V31.1633C194.639 31.4814 194.501 31.6404 194.225 31.6404H192.693C192.402 31.6404 192.259 31.4814 192.259 31.1633V13.785Z" fill="black"/>
<path d="M202.459 18.9275L201.997 17.2575L202.151 18.9169L202.252 31.1792C202.268 31.4867 202.141 31.6404 201.865 31.6404H200.359C200.221 31.6404 200.126 31.598 200.078 31.5132C200.025 31.4284 199.999 31.3117 199.999 31.1686V13.7214C200.009 13.5942 200.041 13.4881 200.11 13.4139C200.174 13.3344 200.264 13.2973 200.386 13.2973H202.199C202.31 13.2973 202.39 13.3291 202.437 13.398C202.485 13.4669 202.528 13.5624 202.575 13.679L206.801 24.8863L207.007 25.9519L207.214 24.8704L211.461 13.6737C211.503 13.5517 211.551 13.4616 211.598 13.3927C211.646 13.3238 211.726 13.292 211.837 13.292H213.624C213.74 13.292 213.836 13.3291 213.899 13.4086C213.963 13.4881 214 13.5889 214.005 13.7161V31.1633C214.021 31.4814 213.91 31.6404 213.661 31.6404H212.155C211.901 31.6404 211.773 31.4867 211.773 31.1792L211.89 18.9275L212.033 17.3052L211.598 18.9275L207.999 28.4012C207.956 28.5497 207.903 28.6504 207.845 28.7034C207.787 28.7617 207.702 28.7882 207.601 28.7882H206.445C206.35 28.7882 206.276 28.7617 206.212 28.7034C206.154 28.6504 206.101 28.5497 206.058 28.4012L202.475 18.9275H202.459Z" fill="black"/>
<path d="M139.641 14.3205L137.828 14.6333C134.128 15.2747 130.687 16.2555 127.554 17.4059V7.48685L126.584 7.92157C124.389 8.90765 122.305 9.93614 120.317 11.0229L120.248 0.632021L119.199 1.30531C114.083 4.57103 109.396 8.28207 105.208 12.3695C101.174 8.55775 96.6303 4.85201 91.6363 1.32122L90.5548 0.5578V11.3304C88.3918 10.1164 86.1757 9.00838 83.912 8.017L82.9471 7.59288L82.9948 16.8175C79.6814 15.6777 76.3468 14.9354 73.0386 14.6014L71.4111 14.4371L84.4315 30.7074L84.3732 18.7949C86.6104 19.6697 88.6833 20.6664 90.5548 21.6895V32.0009L90.6926 32.1812C94.5203 37.3342 104.593 45.7159 105.017 46.0711L105.452 46.4316L105.892 46.0711C106.321 45.7212 116.394 37.4244 120.227 32.0699L120.455 31.6829L120.392 22.0819C122.152 21.1541 124.087 20.2422 126.181 19.394V30.7498L139.641 14.3099V14.3205ZM127.554 18.8692C130.221 17.8672 133.115 16.9871 136.217 16.3403L127.554 26.9168V18.8692ZM74.5549 16.1654C77.5449 16.5948 80.3759 17.3476 82.9948 18.2807L83.0372 26.7684L74.5549 16.1654ZM118.891 3.14493L118.907 11.8235C115.843 13.5836 113.012 15.4868 110.351 17.5915C109.773 16.9553 109.174 16.3191 108.564 15.683C107.795 14.8877 107.005 14.0978 106.194 13.3079C110.017 9.58094 114.237 6.20389 118.891 3.14493ZM95.8244 23.3012C94.5415 22.4371 93.2426 21.6312 91.9278 20.8837V13.7161C94.4726 15.2535 96.9325 16.95 99.2969 18.7896C98.0935 20.2422 96.9378 21.7479 95.8244 23.2959M100.363 19.6326C101.704 20.7141 103.008 21.8433 104.275 23.0149C103.05 24.2502 101.852 25.549 100.675 26.9168C99.5885 26.0209 98.3427 25.056 96.9431 24.0699C98.0352 22.5431 99.175 21.064 100.357 19.6326M109.285 18.4397C107.896 19.5849 106.555 20.783 105.25 22.05C103.952 20.8466 102.616 19.6909 101.243 18.5829C102.515 17.0932 103.84 15.6511 105.224 14.2622C106.655 15.6458 108.007 17.0401 109.285 18.445M109.078 27.8658C107.239 29.3396 105.971 30.5324 105.314 31.1792C104.683 30.5165 103.464 29.2972 101.725 27.8022C102.881 26.4556 104.063 25.1779 105.272 23.9586C106.581 25.2097 107.848 26.5139 109.073 27.8658M100.834 28.8519C103.353 31.0202 104.763 32.6 104.784 32.6265L105.282 33.1885L105.797 32.6371C105.797 32.6371 107.292 31.0573 109.99 28.889C110.849 29.8697 111.687 30.877 112.503 31.9002L105.494 38.5271L98.3745 31.9479C99.1856 30.877 100.002 29.8432 100.834 28.8466M106.247 22.9884C107.525 21.7532 108.84 20.5762 110.202 19.4576C111.596 21.0375 112.89 22.6226 114.083 24.2131C113.956 24.2979 113.828 24.3827 113.706 24.4622C112.386 25.3476 111.199 26.2064 110.16 27.0016C108.903 25.6126 107.599 24.2714 106.252 22.9831M111.262 18.5988C113.653 16.7114 116.182 14.9885 118.902 13.3927L118.912 21.3131C117.576 22.0394 116.347 22.771 115.228 23.4708C114.014 21.8486 112.688 20.221 111.257 18.5988M91.9278 3.21915C96.4659 6.49017 100.59 9.87782 104.243 13.3291C103.528 14.0501 102.828 14.7817 102.144 15.5239C101.476 16.2502 100.824 16.9871 100.177 17.7452C97.5421 15.6883 94.7853 13.8115 91.9225 12.1257V3.21915H91.9278ZM86.3454 18.1163C85.688 17.8354 85.0253 17.5703 84.3626 17.3211L84.3255 9.71348C86.4461 10.6783 88.5243 11.7492 90.5548 12.9156V20.1362C89.1605 19.394 87.7556 18.7207 86.3454 18.1163ZM95.0345 24.4304C93.953 25.9891 92.9139 27.5954 91.9278 29.2389V22.4795C93.0465 23.1315 94.0856 23.7942 95.0345 24.4304ZM105.457 44.6662C103.506 43.0174 95.517 36.1785 92.0604 31.7306C93.3433 29.4668 94.7111 27.2932 96.1531 25.2044C97.505 26.1587 98.7244 27.1024 99.7847 27.9771C98.8092 29.1487 97.8549 30.3628 96.9059 31.6351L96.5348 32.1282L105.505 40.4197L114.358 32.054L113.977 31.5609C113.038 30.3628 112.074 29.1912 111.077 28.0513C112.079 27.2826 113.208 26.4662 114.47 25.6232C114.608 25.5278 114.751 25.4324 114.899 25.3423C116.405 27.4417 117.73 29.5411 118.859 31.6351C115.419 36.2262 107.414 43.028 105.457 44.6715M118.928 28.9844C118.059 27.5265 117.099 26.0686 116.05 24.6054C116.935 24.0487 117.895 23.4761 118.923 22.9036L118.934 28.9844H118.928ZM120.381 20.5656L120.328 12.6028C122.189 11.5637 124.129 10.5723 126.181 9.62865V17.9414C124.092 18.7631 122.157 19.6538 120.381 20.5656Z" fill="#AE8C5E"/>
</g>
<defs>
<clipPath id="clip0_1_631">
<rect width="214" height="45.8844" fill="white" transform="translate(0 0.5578)"/>
</clipPath>
</defs>
</svg>
