<svg width="136" height="69" viewBox="0 0 136 69" fill="none" xmlns="http://www.w3.org/2000/svg">
<mask id="mask0_1_286" style="mask-type:luminance" maskUnits="userSpaceOnUse" x="36" y="14" width="64" height="41">
<path d="M99.9719 14.5H36.0215V54.5H99.9719V14.5Z" fill="white"/>
</mask>
<g mask="url(#mask0_1_286)">
<path d="M44.2263 47.4154V50.6056C44.2263 53.2101 43.2023 54.2564 40.3541 54.2564H36.0215V34.708H40.0859C42.9117 34.708 43.9334 35.7297 43.9334 38.3588V40.8918C43.9334 42.4992 43.5444 43.5209 42.5697 44.0798C43.7389 44.5918 44.2263 45.638 44.2263 47.4154ZM38.9681 37.0442V43.1565H40.0859C40.6224 43.1565 40.9801 42.9329 40.9801 42.1571V38.0436C40.9801 37.2633 40.6157 37.0442 40.0859 37.0442H38.9681ZM41.2797 46.4697C41.2797 45.6917 40.8907 45.4972 40.3541 45.4972H38.9681V51.9246H40.3541C40.8907 51.9246 41.2797 51.7011 41.2797 50.9499V46.4697Z" fill="#FCCB6A"/>
<path d="M49.8825 34.4639H49.9317C52.8671 34.4639 53.9067 35.4856 53.9067 38.1169V50.8466C53.9067 53.4534 52.8604 54.4996 49.9161 54.4996H49.8825C46.936 54.4996 45.8897 53.4757 45.8897 50.8466V38.1169C45.8808 35.5146 46.9516 34.4639 49.8825 34.4639ZM48.8363 37.8732V51.0903C48.8363 51.8705 49.2968 52.0896 49.8825 52.0896H49.9317C50.5398 52.0896 50.978 51.8661 50.978 51.0903V37.8732C50.978 37.1176 50.5644 36.8739 49.9317 36.8739H49.8825C49.2879 36.8739 48.8273 37.093 48.8273 37.8732H48.8363Z" fill="#FCCB6A"/>
<path d="M62.0689 51.9202V54.2564H55.4961V34.708H58.4427V51.9224L62.0689 51.9202Z" fill="#FCCB6A"/>
<path d="M69.0307 50.7509H66.8398L66.5491 54.2564H63.3097L65.9634 34.708H69.9071L72.5608 54.2564H69.3325L69.0307 50.7509ZM68.8362 48.4147L68.1543 40.3798L67.9307 37.8737L67.7072 40.3798L67.0253 48.4147H68.8362Z" fill="#FCCB6A"/>
<path d="M80.3273 51.9202V54.2564H73.7545V34.708H76.71V51.9224L80.3273 51.9202Z" fill="#FCCB6A"/>
<path d="M87.2891 50.7509H85.0982L84.8053 54.2564H81.5681L84.2218 34.708H88.1655L90.8192 54.2564H87.582L87.2891 50.7509ZM87.0946 48.4147L86.4239 40.3798L86.2004 37.8737L85.9768 40.3798L85.2949 48.4147H87.0946Z" fill="#FCCB6A"/>
<path d="M99.9718 54.2564H97.0543L96.9336 47.2946C96.909 46.3691 96.4865 46.1254 95.8627 46.1254H94.9685V54.2564H92.0107V34.708H96.0774C98.901 34.708 99.9227 35.7297 99.9227 38.3588V41.5513C99.9227 43.2548 99.4599 44.3011 98.3577 44.8377C99.4755 45.325 99.8198 46.4451 99.8444 48.4147L99.9718 54.2564ZM94.9573 37.042V43.7869H96.0751C96.6094 43.7869 96.9694 43.5634 96.9694 42.8122V38.0436C96.9694 37.2633 96.6027 37.0442 96.0751 37.0442L94.9573 37.042Z" fill="#FCCB6A"/>
<path d="M74.792 21.0566H74.251V28.669H74.7987C75.0737 28.669 75.2727 28.5572 75.2727 28.1704V21.5686C75.266 21.1707 75.0782 21.0566 74.792 21.0566Z" fill="black"/>
<path d="M64.7896 20.9697H64.765C64.4655 20.9697 64.2307 21.0837 64.2307 21.4817V28.2445C64.2307 28.6447 64.4543 28.7564 64.765 28.7564H64.7896C65.1026 28.7564 65.3262 28.6447 65.3262 28.2445V21.4817C65.3262 21.0949 65.1138 20.9697 64.7896 20.9697Z" fill="black"/>
<path d="M47.962 20.9697H47.9374C47.6379 20.9697 47.4009 21.0837 47.4009 21.4817V28.2445C47.4009 28.6447 47.6379 28.7564 47.9374 28.7564H47.962C48.2728 28.7564 48.4986 28.6447 48.4986 28.2445V21.4817C48.4986 21.0949 48.2862 20.9697 47.962 20.9697Z" fill="black"/>
<path d="M79.6878 21.4814L79.5761 22.7647L79.2273 26.8738H80.1484L79.7996 22.7647L79.6878 21.4814Z" fill="black"/>
<path d="M89.6878 18.2247H44.8991C44.7527 18.2229 44.6075 18.2502 44.4718 18.3051C44.3361 18.3599 44.2127 18.4412 44.1087 18.5442C44.0046 18.6471 43.9221 18.7697 43.8659 18.9049C43.8097 19.04 43.7809 19.185 43.7813 19.3313V30.5095C43.7813 30.806 43.899 31.0903 44.1087 31.2999C44.3183 31.5096 44.6026 31.6273 44.8991 31.6273H89.6878C89.9843 31.6273 90.2686 31.5096 90.4782 31.2999C90.6879 31.0903 90.8056 30.806 90.8056 30.5095V19.3313C90.8027 19.0368 90.6836 18.7554 90.4743 18.5481C90.265 18.3409 89.9823 18.2247 89.6878 18.2247ZM50.0053 28.1219C50.0053 29.4632 49.4687 29.9886 47.9619 29.9886H47.9373C46.4305 29.9886 45.8939 29.4655 45.8939 28.1219V21.6072C45.8939 20.2658 46.4417 19.7382 47.9373 19.7382H47.9619C49.4687 19.7382 50.0053 20.2614 50.0053 21.6072V28.1219ZM54.8633 28.1219C54.8633 29.4632 54.3402 29.9886 52.8512 29.9886H52.7529C51.2952 29.9886 50.7721 29.4543 50.7721 28.1219V27.3103L52.2722 27.2432V28.2515C52.2722 28.6517 52.4578 28.7635 52.7462 28.7635H52.8445C52.9143 28.7746 52.9857 28.769 53.0529 28.7472C53.1201 28.7255 53.1812 28.688 53.2311 28.6381C53.2811 28.5881 53.3185 28.5271 53.3402 28.4599C53.362 28.3927 53.3676 28.3213 53.3565 28.2515V27.1002C53.3478 26.7858 53.2433 26.4816 53.0569 26.2283L51.4629 24.0239C51.063 23.5114 50.836 22.8852 50.8146 22.2354V21.6072C50.8146 20.2658 51.3511 19.7382 52.7953 19.7382H52.8199C54.2776 19.7382 54.8007 20.2614 54.8007 21.6072V22.3539L53.2939 22.4277V21.482C53.2939 21.0952 53.1061 20.9701 52.8199 20.9701H52.7886C52.5136 20.9701 52.3147 21.0841 52.3147 21.482V22.1907C52.3317 22.4925 52.4357 22.7829 52.6143 23.0268L54.215 25.2312C54.622 25.7561 54.8493 26.3981 54.8633 27.0622V28.1219ZM61.9123 29.8656H60.4189L60.5552 25.2178L60.629 23.1386L60.2445 25.2178L59.2474 29.8276H58.3777L57.3784 25.2178L56.9804 23.1252L57.0676 25.2178L57.204 29.8656H55.7106V19.8656H57.4991L58.6169 25.5084L58.8405 26.7291L59.0395 25.5084L60.1573 19.8656H61.9458L61.9123 29.8656ZM66.8307 28.1219C66.8307 29.4632 66.2963 29.9886 64.7873 29.9886H64.7627C63.2559 29.9886 62.7193 29.4655 62.7193 28.1219V21.6072C62.7193 20.2658 63.2693 19.7382 64.7627 19.7382H64.7873C66.2963 19.7382 66.8307 20.2614 66.8307 21.6072V28.1219ZM71.8631 29.8656H70.5686L69.2586 25.2558L68.9612 24.0597L69.0104 25.2558L69.1468 29.8656H67.64V19.8656H68.9366L70.1819 24.2989L70.5418 25.732L70.4926 24.2989L70.3585 19.8656H71.8653L71.8631 29.8656ZM76.7591 27.9967C76.7591 29.338 76.236 29.8656 74.7895 29.8656H72.735V19.8656H74.7895C76.236 19.8656 76.7591 20.3888 76.7591 21.7324V27.9967ZM80.3943 29.8656L80.2467 28.0771H79.1289L78.9791 29.8656H77.3225L78.6795 19.8656H80.6916L82.0509 29.8679L80.3943 29.8656ZM86.4305 29.8656H85.496L85.136 29.1055C84.8365 29.6287 84.4139 29.9998 83.8394 29.9998H83.7902C82.9675 29.9998 82.3572 29.4275 82.3572 28.095V21.6117C82.3572 20.2703 82.9049 19.7427 84.3513 19.7427H84.3759C85.8447 19.7427 86.3679 20.2658 86.3679 21.6117V22.5954L84.8611 22.658V21.482C84.8611 21.0952 84.6733 20.9701 84.3759 20.9701H84.3513C84.0764 20.9701 83.864 21.0841 83.864 21.482V28.0838C83.864 28.6562 84.1144 28.7545 84.3625 28.7545C84.6733 28.7545 84.9237 28.531 84.9237 27.8938V25.5933H84.4139V24.3973H86.426L86.4305 29.8656ZM88.6348 29.8656H87.128V19.8656H88.6348V29.8656Z" fill="black"/>
<path d="M78.2549 17.0352H90.685C91.0246 17.0358 91.3501 17.171 91.5902 17.4111C91.8303 17.6512 91.9654 17.9767 91.966 18.3162V31.6116L94.3559 14.5L78.2549 17.0352Z" fill="#FCCB6A"/>
</g>
</svg>
