<svg width="136" height="69" viewBox="0 0 136 69" fill="none" xmlns="http://www.w3.org/2000/svg">
<mask id="mask0_1_383" style="mask-type:luminance" maskUnits="userSpaceOnUse" x="17" y="19" width="103" height="31">
<path d="M17 19.5H120V49.5H17V19.5Z" fill="white"/>
</mask>
<g mask="url(#mask0_1_383)">
<path d="M120 45.2309C119.2 45.8595 118.305 46.357 117.349 46.7049C116.585 46.9839 115.797 47.1749 115 47.3209C113.831 47.5341 112.64 47.6063 111.454 47.5359C110.104 47.4559 108.791 47.1959 107.533 46.6879C105.798 45.9879 104.412 44.8559 103.352 43.3209C102.476 42.0509 101.9 40.6479 101.535 39.1549C101.273 38.0482 101.117 36.9191 101.069 35.7829C101.031 35.119 101.021 34.4537 101.041 33.7889C101.105 32.1139 101.312 30.4629 101.894 28.8789C102.416 27.4589 103.132 26.1449 104.15 25.0159C105.431 23.5792 107.092 22.5334 108.942 21.9989C109.999 21.686 111.091 21.5037 112.192 21.4559C113.2 21.4129 114.202 21.4599 115.201 21.5639C116.466 21.7015 117.713 21.9699 118.922 22.3649C118.968 22.3799 119.011 22.4029 119.057 22.4189C119.113 22.4389 119.129 22.4839 119.122 22.5329C119.112 22.6029 119.089 22.6729 119.072 22.7429L118.183 26.4089L118.176 26.4439C118.144 26.5599 118.111 26.5799 117.994 26.5369C117.415 26.3227 116.818 26.1601 116.21 26.0509C115.314 25.8879 114.408 25.8429 113.498 25.8319C112.868 25.8208 112.238 25.872 111.618 25.9849C110.629 26.1709 109.709 26.5229 108.916 27.1599C108.189 27.7486 107.605 28.4951 107.209 29.3429C106.793 30.2119 106.539 31.1279 106.393 32.0779C106.198 33.3409 106.193 34.6099 106.273 35.8779C106.347 37.0669 106.585 38.2259 107.057 39.3279C107.443 40.2299 107.964 41.0339 108.699 41.6939C109.515 42.4279 110.476 42.8469 111.543 43.0549C111.938 43.1319 112.339 43.1719 112.735 43.1679C113.659 43.1569 114.57 43.0349 115.422 42.6399C115.597 42.5589 115.76 42.4519 115.929 42.3599C115.995 42.3297 116.05 42.2796 116.086 42.2166C116.121 42.1536 116.137 42.081 116.129 42.0089C116.116 41.6819 116.125 41.3549 116.125 41.0289V37.8329C116.125 37.4709 116.118 37.5279 115.809 37.4889C115.256 37.4189 114.701 37.3689 114.148 37.3109L111.692 37.0509C111.415 37.0209 111.138 36.9909 110.862 36.9579C110.694 36.9379 110.693 36.9319 110.686 36.7529V36.6429V34.2479C110.686 34.1879 110.688 34.1269 110.69 34.0669C110.693 33.9939 110.736 33.9609 110.806 33.9569C110.854 33.9539 110.902 33.9529 110.951 33.9529H119.821C119.881 33.9529 119.941 33.9639 120.001 33.9709V45.2289L120 45.2309ZM62.82 34.6069C62.82 30.6129 62.82 26.6179 62.822 22.6239C62.822 22.1839 62.738 22.2039 63.26 22.1149C65.1003 21.809 66.9607 21.6389 68.826 21.6059C69.006 21.6049 69.188 21.5829 69.37 21.5809C70.68 21.5729 71.983 21.6589 73.28 21.8519C74.575 22.0459 75.808 22.4239 76.92 23.1289C78.585 24.1819 79.662 25.6569 80.083 27.5929C80.233 28.2819 80.298 28.9779 80.304 29.6809C80.311 30.4089 80.278 31.1309 80.154 31.8509C79.8996 33.3658 79.1853 34.7658 78.108 35.8609C76.998 37.0049 75.641 37.7159 74.111 38.1149C72.9496 38.4201 71.7527 38.5688 70.552 38.5569C70.092 38.5529 69.632 38.5599 69.172 38.5429C68.76 38.5269 68.35 38.4859 67.939 38.4549C67.747 38.4399 67.741 38.4429 67.737 38.6449C67.736 38.7299 67.737 38.8149 67.737 38.8999V46.8169C67.733 47.0529 67.733 47.0569 67.494 47.0569H62.986C62.843 47.0499 62.828 47.0349 62.824 46.8819C62.821 46.7729 62.822 46.6639 62.822 46.5559V34.6089L62.82 34.6069ZM67.735 30.0709V33.6999C67.735 33.7959 67.733 33.8929 67.736 33.9899C67.74 34.0939 67.778 34.1369 67.883 34.1619C67.93 34.1729 67.978 34.1799 68.027 34.1859C69.26 34.3259 70.491 34.3229 71.717 34.1079C72.2666 34.0149 72.7957 33.826 73.28 33.5499C73.6827 33.325 74.036 33.0213 74.3188 32.6569C74.6016 32.2925 74.8081 31.8748 74.926 31.4289C75.1022 30.786 75.1645 30.1173 75.11 29.4529C75.075 28.9809 74.992 28.5179 74.785 28.0859C74.345 27.1629 73.62 26.5589 72.67 26.2109C72.028 25.9759 71.355 25.8909 70.678 25.8489C69.903 25.8009 69.129 25.8529 68.358 25.9249C68.189 25.9409 68.022 25.9699 67.854 25.9949C67.787 26.0049 67.746 26.0489 67.742 26.1169C67.7372 26.2135 67.7352 26.3102 67.736 26.4069V30.0719L67.735 30.0709ZM98.977 42.0219C99.072 42.3919 99.17 42.7639 99.264 43.1389C99.4868 44.03 99.7088 44.9213 99.93 45.8129C99.973 46.0179 99.972 46.0269 99.8 46.1399C99.158 46.5639 98.453 46.8469 97.712 47.0449C97.022 47.2299 96.317 47.3409 95.607 47.4289C94.597 47.5567 93.5774 47.5918 92.561 47.5339C91.039 47.4459 89.567 47.1279 88.176 46.4819C87.3201 46.0796 86.532 45.5465 85.84 44.9019C84.686 43.8399 83.885 42.5419 83.288 41.1079C82.778 39.8819 82.482 38.6039 82.318 37.2879C82.14 35.8669 82.123 34.4399 82.2 33.0149C82.277 31.5859 82.5 30.1779 82.985 28.8229C83.378 27.7249 83.892 26.6849 84.578 25.7379C85.908 23.9049 87.654 22.6459 89.831 21.9949C90.8514 21.6868 91.9062 21.5064 92.971 21.4579C93.905 21.4179 94.834 21.4679 95.762 21.5409C96.817 21.6239 97.845 21.8429 98.857 22.1409C99.054 22.1989 99.247 22.2709 99.439 22.3449C99.595 22.4039 99.61 22.4269 99.576 22.5829C99.506 22.9139 99.426 23.2429 99.35 23.5729C99.13 24.5269 98.908 25.4799 98.686 26.4329C98.658 26.5559 98.618 26.5799 98.511 26.5329C97.59 26.1269 96.613 25.9729 95.619 25.8949C95.0156 25.8472 94.4102 25.8275 93.805 25.8359C92.961 25.8469 92.142 25.9879 91.364 26.3219C89.968 26.9189 88.959 27.9199 88.302 29.2809C87.931 30.0489 87.708 30.8629 87.563 31.7009C87.359 32.8859 87.3 34.0809 87.359 35.2789C87.419 36.5279 87.614 37.7549 88.069 38.9289C88.387 39.7489 88.821 40.4989 89.424 41.1459C90.3007 42.097 91.4601 42.7408 92.731 42.9819C93.678 43.1719 94.631 43.1549 95.588 43.0689C96.6022 42.9722 97.5899 42.6899 98.502 42.2359C98.642 42.1669 98.782 42.0939 98.922 42.0239C98.93 42.0189 98.944 42.0239 98.975 42.0239L98.977 42.0219ZM58.136 34.4959V49.0209C58.136 49.5739 58.202 49.4919 57.651 49.4999C57.578 49.4999 57.506 49.4999 57.433 49.4969C57.363 49.4949 57.319 49.4569 57.314 49.3869C57.308 49.3029 57.309 49.2189 57.309 49.1339V19.8669C57.309 19.4629 57.276 19.5009 57.685 19.5029C58.197 19.5059 58.136 19.4349 58.136 19.9359C58.138 24.7899 58.137 29.6439 58.137 34.4969L58.136 34.4959ZM32.073 43.6239V42.8979C32.073 42.5439 32.129 42.1979 32.243 41.8639C32.463 41.2129 32.907 40.8169 33.596 40.6999C33.949 40.6399 34.297 40.6529 34.64 40.7429C35.07 40.8559 35.395 41.1129 35.61 41.5049C35.752 41.7649 35.81 42.0479 35.842 42.3379C35.852 42.4279 35.816 42.4639 35.716 42.4679C35.619 42.4719 35.522 42.4699 35.425 42.4699C35.133 42.4669 35.114 42.5079 35.049 42.1779C34.922 41.5259 34.46 41.2079 33.723 41.3539C33.324 41.4319 33.09 41.6869 32.96 42.0519C32.854 42.3519 32.824 42.6659 32.816 42.9799C32.806 43.4159 32.806 43.8509 32.816 44.2869C32.822 44.5889 32.862 44.8899 32.967 45.1769C33.0314 45.357 33.1356 45.5203 33.2719 45.6546C33.4081 45.7889 33.5728 45.8908 33.7539 45.9527C33.9349 46.0146 34.1275 46.0349 34.3175 46.0121C34.5074 45.9892 34.6898 45.9239 34.851 45.8209C35.031 45.7109 35.128 45.5739 35.111 45.3479C35.091 45.0719 35.109 44.7919 35.106 44.5139C35.104 44.3219 35.083 44.3019 34.903 44.2989C34.673 44.2949 34.443 44.2989 34.213 44.2959C34.049 44.2939 34.036 44.2839 34.036 44.1379C34.039 43.6019 33.962 43.6619 34.481 43.6589C34.881 43.6569 35.281 43.6569 35.68 43.6609C35.826 43.6619 35.852 43.6879 35.853 43.8309C35.855 44.4479 35.853 45.0639 35.857 45.6809C35.8596 45.79 35.819 45.8957 35.744 45.9749C35.5081 46.2542 35.1928 46.4552 34.84 46.5509C34.4416 46.6613 34.0231 46.6784 33.617 46.6009C32.99 46.4759 32.555 46.0979 32.301 45.5169C32.152 45.1713 32.0744 44.7992 32.073 44.4229C32.069 44.1569 32.073 43.8899 32.073 43.6239ZM49.71 32.8619C49.77 32.5879 49.922 32.4519 50.165 32.4549C50.213 32.4549 50.262 32.4549 50.31 32.4569C50.38 32.4579 50.423 32.4919 50.426 32.5639C50.429 32.6489 50.431 32.7339 50.431 32.8179V36.8119C50.431 37.1049 50.406 37.3899 50.284 37.6619C50.2141 37.8307 50.1083 37.9823 49.974 38.1061C49.8396 38.2299 49.6799 38.323 49.506 38.3789C48.846 38.5949 48.24 38.4529 47.687 38.0539C47.535 37.9439 47.559 37.8959 47.633 37.7829C47.686 37.7009 47.729 37.6149 47.781 37.5329C47.834 37.4509 47.872 37.4429 47.953 37.5109C48.243 37.7579 48.574 37.8789 48.958 37.8419C49.358 37.8039 49.608 37.5839 49.678 37.1929C49.706 37.0269 49.713 36.8569 49.725 36.6889C49.728 36.6299 49.74 36.5569 49.685 36.5219C49.623 36.4819 49.578 36.5449 49.534 36.5839C49.227 36.8519 48.866 36.9039 48.479 36.8379C48.3109 36.8109 48.1505 36.7484 48.0084 36.6546C47.8664 36.5608 47.7459 36.4378 47.655 36.2939C47.5264 36.1023 47.438 35.8866 47.395 35.6599C47.2482 34.9223 47.2594 34.1619 47.428 33.4289C47.464 33.2749 47.53 33.1319 47.608 32.9939C48.036 32.2289 49.138 32.2069 49.585 32.6969C49.617 32.7319 49.643 32.7739 49.71 32.8619ZM49.73 34.5919C49.73 34.3159 49.727 34.0369 49.733 33.7599C49.7377 33.6268 49.6979 33.4959 49.62 33.3879C49.41 33.0879 49.119 32.9819 48.768 33.0339C48.6219 33.0499 48.4844 33.1108 48.3745 33.2082C48.2645 33.3057 48.1875 33.4348 48.154 33.5779C47.9687 34.2562 47.9663 34.9714 48.147 35.6509C48.234 35.9909 48.472 36.1809 48.822 36.2159C49.18 36.2529 49.456 36.1119 49.648 35.8059C49.7061 35.7143 49.7353 35.6073 49.732 35.4989C49.728 35.1969 49.73 34.8949 49.73 34.5939V34.5919ZM48.189 46.2899C48.133 46.3599 48.162 46.4469 48.162 46.5259C48.159 47.0339 48.162 47.5419 48.159 48.0499C48.159 48.2049 48.146 48.2189 47.991 48.2169C47.349 48.2089 47.448 48.3169 47.446 47.6959C47.441 46.0259 47.445 44.3559 47.445 42.6849C47.445 42.5749 47.445 42.4669 47.447 42.3579C47.447 42.2879 47.482 42.2449 47.553 42.2379C47.601 42.2329 47.649 42.2329 47.698 42.2319C47.954 42.2259 48.111 42.3429 48.168 42.5839C48.263 42.5719 48.302 42.4869 48.364 42.4339C48.932 41.9489 49.882 42.0979 50.272 42.7339C50.433 42.9979 50.514 43.2899 50.545 43.5919C50.5983 44.1222 50.5989 44.6565 50.547 45.1869C50.519 45.4769 50.441 45.7569 50.295 46.0139C50.088 46.3739 49.783 46.5849 49.365 46.6289C48.977 46.6709 48.617 46.6189 48.315 46.3429C48.283 46.3129 48.253 46.2659 48.189 46.2899ZM48.159 44.3999V45.3429C48.159 45.4259 48.155 45.5099 48.203 45.5879C48.373 45.8699 48.619 46.0279 48.948 46.0229C49.273 46.0179 49.531 45.8879 49.683 45.5809C49.791 45.3507 49.8457 45.0991 49.843 44.8449C49.847 44.5549 49.847 44.2649 49.843 43.9749C49.8419 43.7811 49.8115 43.5886 49.753 43.4039C49.578 42.8609 49.16 42.7419 48.693 42.8419C48.383 42.9079 48.163 43.2069 48.159 43.5299C48.156 43.8199 48.159 44.1099 48.159 44.3999ZM28.16 24.0869V21.6179V21.3279C28.16 21.2439 28.195 21.1899 28.287 21.1879C28.347 21.1859 28.407 21.1849 28.468 21.1849H30.031C30.214 21.1849 30.393 21.2049 30.571 21.2499C31.091 21.3849 31.447 21.7099 31.635 22.2029C31.835 22.7319 31.82 23.2739 31.62 23.8009C31.439 24.2789 31.065 24.5529 30.577 24.6709C30.3886 24.7173 30.195 24.7388 30.001 24.7349C29.687 24.7269 29.371 24.7319 29.056 24.7359C28.94 24.7379 28.91 24.7699 28.909 24.8929C28.906 25.4369 28.909 25.9819 28.906 26.5259C28.901 27.0889 28.976 26.9879 28.422 26.9989C28.373 26.9989 28.324 26.9989 28.276 26.9959C28.206 26.9909 28.166 26.9519 28.163 26.8819C28.159 26.7859 28.159 26.6879 28.159 26.5919L28.16 24.0869ZM28.904 22.9599V23.9359C28.904 24.0149 28.928 24.0869 29.019 24.0869C29.405 24.0869 29.793 24.1049 30.177 24.0739C30.573 24.0409 30.849 23.8139 30.955 23.4219C31.0428 23.1182 31.0368 22.7951 30.938 22.4949C30.811 22.1199 30.559 21.8729 30.153 21.8479C29.78 21.8249 29.405 21.8419 29.031 21.8429C28.943 21.8429 28.904 21.8999 28.904 21.9829V22.9599ZM17 34.5699C17.024 34.0999 17.022 33.6289 17.002 33.1579C17.004 33.0949 17.006 33.0319 17.01 32.9679L17.02 32.8769C17.039 32.5069 17.144 32.1619 17.32 31.8409C17.689 31.1699 18.277 30.8759 19.027 30.8829C19.183 30.8849 19.343 30.9069 19.494 30.9429C20.013 31.0659 20.374 31.3829 20.583 31.8699C20.631 31.9799 20.672 32.0969 20.693 32.2149C20.821 32.9699 20.888 32.8299 20.207 32.8409C20.034 32.8449 20.03 32.8369 20.006 32.6609C19.9836 32.4807 19.9424 32.3034 19.883 32.1319C19.766 31.8049 19.54 31.6199 19.198 31.5609C18.641 31.4639 18.19 31.6939 17.953 32.2069C17.8337 32.4592 17.769 32.7339 17.763 33.0129C17.755 33.5929 17.753 34.1729 17.763 34.7529C17.769 35.0569 17.84 35.3529 17.977 35.6269C18.0465 35.7652 18.1443 35.8873 18.264 35.9853C18.3838 36.0833 18.5228 36.1551 18.6721 36.1959C18.8213 36.2367 18.9775 36.2457 19.1305 36.2223C19.2834 36.1989 19.4298 36.1435 19.56 36.0599C19.7032 35.9665 19.8116 35.8283 19.868 35.6669C19.954 35.4389 19.995 35.2019 20.022 34.9719C20.107 34.9069 20.195 34.9219 20.278 34.9239C20.876 34.9359 20.808 34.8149 20.706 35.4829C20.675 35.6839 20.593 35.8759 20.487 36.0559C20.301 36.3865 19.9971 36.6347 19.636 36.7509C19.3133 36.8589 18.9703 36.8918 18.633 36.8469C18.053 36.7689 17.623 36.4609 17.34 35.9549C17.1478 35.6171 17.0372 35.239 17.017 34.8509L17.007 34.7589L16.998 34.5689L17 34.5699ZM44.035 25.9939C44.144 26.0419 44.187 26.1189 44.239 26.1839C44.443 26.4339 44.504 26.4089 44.189 26.6989C44.109 26.7719 44.014 26.8309 43.918 26.8789C43.6575 27.0104 43.3713 27.0827 43.0796 27.0906C42.788 27.0986 42.4982 27.042 42.231 26.9249C41.741 26.7239 41.504 26.3049 41.399 25.8089C41.3519 25.5962 41.3301 25.3787 41.334 25.1609C41.345 24.7989 41.318 24.4359 41.38 24.0749C41.4189 23.8234 41.4994 23.5801 41.618 23.3549C41.7247 23.1428 41.8845 22.9619 42.0818 22.8298C42.2791 22.6977 42.5072 22.6188 42.744 22.6009C42.949 22.5809 43.154 22.5899 43.358 22.6329C43.751 22.7169 44.038 22.9349 44.219 23.2929C44.307 23.4659 44.361 23.6499 44.399 23.8419C44.469 24.2099 44.489 24.7069 44.429 25.0479H42.4C42.316 25.0479 42.23 25.0479 42.147 25.0559C42.094 25.0589 42.055 25.0949 42.056 25.1479C42.064 25.4509 42.089 25.7529 42.244 26.0249C42.3021 26.1317 42.3842 26.2236 42.4838 26.2933C42.5834 26.3631 42.6978 26.4088 42.818 26.4269C43.222 26.4949 43.588 26.4239 43.891 26.1269C43.934 26.0849 43.981 26.0439 44.035 25.9939ZM42.908 24.4399H43.56C43.703 24.4329 43.74 24.3999 43.734 24.2739C43.729 24.0931 43.6994 23.9137 43.646 23.7409C43.541 23.4229 43.33 23.2429 43.023 23.2229C42.683 23.1999 42.409 23.3049 42.24 23.6249C42.13 23.8339 42.106 24.0599 42.07 24.2849C42.054 24.3829 42.11 24.4369 42.221 24.4389C42.451 24.4419 42.68 24.4389 42.909 24.4389L42.908 24.4399ZM35.172 25.9809C35.242 26.0579 35.301 26.1179 35.353 26.1829C35.571 26.4439 35.569 26.4559 35.331 26.6749C35.1415 26.8461 34.9105 26.9647 34.661 27.0189C34.2957 27.1082 33.9136 27.1027 33.551 27.0029C33.085 26.8739 32.775 26.5709 32.607 26.1249C32.5134 25.8884 32.4622 25.6372 32.456 25.3829C32.45 24.9129 32.416 24.4409 32.514 23.9729C32.576 23.6729 32.681 23.3939 32.867 23.1479C33.08 22.8659 33.359 22.6909 33.708 22.6259C33.9585 22.5794 34.2157 22.5825 34.465 22.6349C34.886 22.7199 35.183 22.9599 35.363 23.3499C35.476 23.5939 35.535 23.8539 35.558 24.1179C35.581 24.3819 35.573 24.6489 35.58 24.9149C35.582 25.0049 35.54 25.0479 35.45 25.0479H33.488C33.416 25.0479 33.343 25.0479 33.271 25.0559C33.219 25.0619 33.187 25.1009 33.184 25.1539C33.164 25.4609 33.211 25.7569 33.361 26.0289C33.471 26.2299 33.645 26.3639 33.865 26.4129C34.262 26.5029 34.635 26.4509 34.955 26.1749L35.172 25.9809ZM34.012 24.4359V24.4409H34.483C34.871 24.4409 34.881 24.4809 34.829 24.0309C34.8142 23.9232 34.7884 23.8173 34.752 23.7149C34.655 23.4249 34.459 23.2469 34.146 23.2229C33.822 23.1969 33.546 23.2869 33.375 23.5859C33.245 23.8119 33.207 24.0619 33.183 24.3149C33.176 24.3829 33.215 24.4329 33.286 24.4349C33.528 24.4369 33.77 24.4349 34.011 24.4349L34.012 24.4359ZM39.248 44.4029C39.252 44.0629 39.26 43.7249 39.356 43.3949C39.49 42.9359 39.742 42.5599 40.173 42.3319C40.369 42.2278 40.5843 42.1653 40.8056 42.1482C41.0268 42.1311 41.2492 42.1598 41.4589 42.2326C41.6685 42.3053 41.8609 42.4205 42.0241 42.5709C42.1872 42.7213 42.3175 42.9038 42.407 43.1069C42.442 43.1829 42.472 43.2629 42.493 43.3449C42.684 44.0749 42.691 44.8079 42.47 45.5279C42.313 46.0409 41.978 46.4259 41.445 46.5699C40.553 46.8099 39.758 46.4759 39.415 45.5799C39.3344 45.3774 39.2868 45.1634 39.274 44.9459L39.249 44.4019L39.248 44.4029ZM39.98 44.3919C39.989 44.5849 39.992 44.7779 40.008 44.9699C40.028 45.2009 40.101 45.4189 40.226 45.6149C40.3356 45.7986 40.5108 45.9339 40.7161 45.9937C40.9215 46.0534 41.1419 46.0331 41.333 45.9369C41.608 45.8069 41.747 45.5669 41.808 45.2889C41.9306 44.7335 41.9333 44.1584 41.816 43.6019C41.7725 43.3873 41.6676 43.1899 41.514 43.0339C41.184 42.6979 40.684 42.6889 40.353 43.0319C40.2214 43.1741 40.1254 43.3454 40.073 43.5319C39.983 43.8129 39.987 44.1019 39.98 44.3919ZM24.862 34.6729C24.879 34.8859 24.847 35.1369 24.81 35.3889C24.776 35.6179 24.705 35.8369 24.592 36.0369C24.255 36.6319 23.737 36.9049 23.058 36.8609C22.404 36.8189 21.954 36.4759 21.692 35.8859C21.6239 35.7309 21.5755 35.568 21.548 35.4009C21.4653 34.8761 21.4663 34.3414 21.551 33.8169C21.5824 33.6258 21.6439 33.4408 21.733 33.2689C21.9156 32.8881 22.2412 32.5948 22.639 32.4528C23.0368 32.3109 23.4745 32.3318 23.857 32.5109C24.303 32.7109 24.575 33.0709 24.729 33.5229C24.822 33.7989 24.854 34.0879 24.862 34.3789C24.865 34.4629 24.862 34.5479 24.862 34.6729ZM24.132 34.6899C24.132 34.5419 24.139 34.4329 24.132 34.3259C24.11 34.0119 24.055 33.7089 23.895 33.4269C23.582 32.8729 22.771 32.8689 22.465 33.4219C22.376 33.5819 22.301 33.7449 22.271 33.9239C22.1916 34.3882 22.1916 34.8626 22.271 35.3269C22.304 35.5179 22.383 35.6929 22.486 35.8589C22.823 36.4039 23.703 36.3609 23.964 35.7489C24.016 35.6259 24.062 35.5029 24.083 35.3709C24.12 35.1309 24.147 34.8929 24.132 34.6909V34.6899ZM45.663 46.3199C45.597 46.3189 45.554 46.3649 45.506 46.3999C45.146 46.6629 44.742 46.6899 44.327 46.5999C44.009 46.5319 43.799 46.3159 43.666 46.0279C43.5751 45.8292 43.5202 45.6158 43.504 45.3979C43.4945 45.2654 43.4902 45.1327 43.491 44.9999V42.6069C43.491 42.5109 43.491 42.4139 43.501 42.3169C43.504 42.2899 43.54 42.2659 43.564 42.2419C43.572 42.2349 43.587 42.2349 43.599 42.2349C43.791 42.2369 43.985 42.2049 44.175 42.2569C44.274 42.4249 44.217 42.6089 44.218 42.7829C44.225 43.5449 44.223 44.3059 44.22 45.0679C44.22 45.2629 44.233 45.4539 44.31 45.6369C44.424 45.9089 44.615 46.0199 44.913 45.9839C45.021 45.9719 45.131 45.9649 45.229 45.9119C45.512 45.7549 45.692 45.5429 45.688 45.1939C45.679 44.3359 45.685 43.4779 45.685 42.6199C45.685 42.5229 45.685 42.4259 45.69 42.3299C45.693 42.2749 45.73 42.2469 45.783 42.2379C45.8067 42.2336 45.8308 42.2316 45.855 42.2319C46.512 42.2419 46.398 42.1329 46.402 42.7489C46.408 43.8839 46.403 45.0209 46.403 46.1569L46.402 46.4469C46.4 46.5169 46.364 46.5609 46.292 46.5639C46.1834 46.5686 46.0747 46.5706 45.966 46.5699C45.742 46.5679 45.742 46.5669 45.664 46.3189L45.663 46.3199ZM44.239 32.8159C44.336 32.7369 44.406 32.6729 44.482 32.6189C44.634 32.5075 44.8085 32.4306 44.9933 32.3935C45.1781 32.3563 45.3687 32.3599 45.552 32.4039C45.883 32.4739 46.116 32.6759 46.249 32.9839C46.339 33.1959 46.397 33.4189 46.403 33.6519C46.41 33.9169 46.413 34.1839 46.413 34.4489C46.415 35.1019 46.413 35.7549 46.413 36.4089C46.413 36.4929 46.415 36.5779 46.411 36.6619C46.407 36.7509 46.354 36.7889 46.269 36.7889H46.233C45.59 36.7789 45.689 36.8799 45.684 36.2659C45.679 35.4919 45.684 34.7179 45.682 33.9439C45.682 33.7989 45.683 33.6539 45.644 33.5129C45.518 33.0509 45.034 32.8629 44.643 33.1409C44.379 33.3289 44.206 33.5689 44.214 33.9289C44.232 34.7509 44.22 35.5739 44.22 36.3959C44.22 36.4919 44.218 36.5889 44.212 36.6849C44.209 36.7369 44.176 36.7719 44.122 36.7809C44.11 36.7819 44.098 36.7869 44.086 36.7869C43.398 36.7809 43.506 36.8909 43.504 36.2639C43.498 35.1279 43.502 33.9909 43.502 32.8539C43.502 32.7579 43.502 32.6599 43.507 32.5639C43.51 32.5129 43.534 32.4649 43.59 32.4639C43.759 32.4579 43.928 32.4589 44.097 32.4609C44.156 32.4609 44.177 32.5129 44.19 32.5579C44.21 32.6339 44.22 32.7119 44.24 32.8149L44.239 32.8159ZM26.489 32.7899C26.587 32.7659 26.643 32.6799 26.719 32.6229C27.031 32.3929 27.379 32.3289 27.753 32.3959C27.9096 32.4195 28.0577 32.4823 28.1836 32.5784C28.3095 32.6746 28.409 32.801 28.473 32.9459C28.593 33.2029 28.653 33.4759 28.655 33.7539C28.663 34.6979 28.658 35.6429 28.658 36.5859C28.6574 36.6221 28.6544 36.6581 28.649 36.6939C28.642 36.7509 28.603 36.7739 28.551 36.7819C28.5272 36.7862 28.5031 36.7886 28.479 36.7889C27.837 36.7789 27.935 36.8859 27.931 36.2679C27.925 35.4929 27.929 34.7179 27.93 33.9439C27.93 33.7869 27.925 33.6309 27.877 33.4779C27.755 33.0929 27.379 32.9029 27.014 33.0779C26.694 33.2309 26.471 33.4659 26.476 33.8629C26.486 34.6989 26.479 35.5329 26.478 36.3689C26.478 36.4529 26.481 36.5389 26.477 36.6229C26.471 36.7639 26.45 36.7899 26.299 36.7889C25.655 36.7809 25.753 36.8889 25.749 36.2689C25.745 35.1319 25.748 33.9939 25.748 32.8559C25.748 32.7599 25.748 32.6629 25.753 32.5659C25.756 32.4959 25.799 32.4599 25.87 32.4579C26.003 32.4559 26.136 32.4539 26.27 32.4559C26.409 32.4589 26.411 32.4639 26.433 32.5939C26.444 32.6599 26.409 32.7409 26.489 32.7899ZM35.57 36.5349C35.501 36.5299 35.463 36.5839 35.417 36.6179C35.092 36.8519 34.73 36.9009 34.345 36.8419C33.965 36.7839 33.707 36.5639 33.56 36.2159C33.4545 35.9707 33.3991 35.7068 33.397 35.4399C33.392 34.5099 33.394 33.5769 33.396 32.6459C33.396 32.4789 33.418 32.4599 33.583 32.4559C33.716 32.4529 33.85 32.4559 33.983 32.4559C34.073 32.4559 34.111 32.5099 34.111 32.5949C34.113 32.6909 34.113 32.7889 34.113 32.8849V35.0259C34.113 35.2679 34.123 35.5069 34.18 35.7459C34.258 36.0699 34.52 36.3059 34.956 36.1909C35.075 36.1655 35.187 36.1143 35.284 36.0409C35.467 35.8899 35.585 35.7159 35.581 35.4539C35.568 34.6079 35.576 33.7609 35.576 32.9139C35.576 32.8299 35.578 32.7449 35.576 32.6599C35.573 32.4879 35.6 32.4509 35.786 32.4549C36.392 32.4679 36.303 32.3579 36.306 32.9659C36.31 34.1029 36.306 35.2399 36.306 36.3759C36.306 36.4729 36.308 36.5699 36.304 36.6659C36.3 36.7329 36.267 36.7809 36.194 36.7849C36.0974 36.7886 36.0007 36.7899 35.904 36.7889C35.671 36.7889 35.672 36.7879 35.598 36.5559C35.595 36.5459 35.58 36.5409 35.571 36.5339L35.57 36.5349ZM32.462 33.6929H31.997C31.791 33.6899 31.79 33.6899 31.712 33.4729C31.537 32.9899 31.073 32.9349 30.73 33.0729C30.378 33.2159 30.276 33.7699 30.634 33.9929C30.81 34.1029 30.994 34.1909 31.184 34.2709C31.442 34.3789 31.694 34.4939 31.934 34.6359C32.397 34.9069 32.578 35.3159 32.501 35.8309C32.426 36.3409 32.103 36.6489 31.624 36.7919C31.2613 36.8995 30.8748 36.8963 30.514 36.7829C30.256 36.7083 30.0267 36.5571 29.8567 36.3492C29.6867 36.1413 29.5839 35.8866 29.562 35.6189C29.554 35.5319 29.593 35.4829 29.686 35.4799C29.843 35.4759 30 35.4799 30.159 35.4769C30.229 35.4769 30.275 35.5049 30.294 35.5709C30.314 35.6409 30.324 35.7139 30.348 35.7809C30.409 35.9459 30.516 36.0759 30.678 36.1499C30.933 36.2659 31.198 36.2719 31.453 36.1649C31.833 36.0049 31.904 35.5499 31.596 35.2749C31.432 35.1289 31.233 35.0349 31.036 34.9429C30.849 34.8549 30.66 34.7749 30.473 34.6879C30.407 34.6579 30.344 34.6219 30.281 34.5859C29.878 34.3559 29.662 34.0179 29.686 33.5449C29.711 33.0799 29.941 32.7369 30.349 32.5339C30.5709 32.4187 30.8172 32.3584 31.0672 32.3581C31.3173 32.3577 31.5637 32.4173 31.786 32.5319C32.236 32.7549 32.458 33.1399 32.462 33.6929ZM48.27 24.1639H47.603C47.577 24.0489 47.556 23.9339 47.525 23.8209C47.415 23.4229 47.185 23.2319 46.811 23.2209C46.397 23.2109 46.106 23.4039 45.98 23.7859C45.939 23.9109 45.91 24.0439 45.9 24.1759C45.865 24.6089 45.866 25.0449 45.898 25.4779C45.907 25.6099 45.935 25.7419 45.973 25.8679C46.081 26.2319 46.303 26.4099 46.677 26.4429C46.761 26.4509 46.847 26.4479 46.929 26.4389C47.0564 26.4283 47.1781 26.381 47.2793 26.3028C47.3804 26.2245 47.4567 26.1186 47.499 25.9979C47.543 25.8869 47.565 25.7669 47.6 25.6399C47.81 25.5979 48.022 25.6179 48.235 25.6219C48.244 26.4069 47.698 27.0149 46.95 27.0719C46.7207 27.0925 46.4896 27.0733 46.267 27.0149C45.827 26.8959 45.526 26.6199 45.344 26.2109C45.2456 25.9895 45.1863 25.7526 45.169 25.5109C45.1333 25.0532 45.1343 24.5934 45.172 24.1359C45.197 23.8449 45.28 23.5669 45.425 23.3109C45.633 22.9429 45.947 22.7179 46.363 22.6349C46.5292 22.6019 46.6987 22.5885 46.868 22.5949C47.582 22.6159 48.102 23.0659 48.225 23.7699C48.245 23.8879 48.253 24.0079 48.272 24.1649L48.27 24.1639ZM40.847 20.8439C40.897 20.9739 40.874 21.0939 40.867 21.2139C40.856 21.4009 40.871 21.4809 40.616 21.4429C40.568 21.4359 40.519 21.4399 40.471 21.4429C40.241 21.4549 40.091 21.5729 40.005 21.7839C39.902 22.0409 39.932 22.3069 39.938 22.5719C39.938 22.6249 39.978 22.6579 40.032 22.6609C40.202 22.6659 40.371 22.6679 40.54 22.6729C40.61 22.6759 40.654 22.7149 40.655 22.7859C40.655 22.9289 40.675 23.0749 40.636 23.2229C40.459 23.2829 40.276 23.2449 40.098 23.2569C39.958 23.2669 39.938 23.2849 39.933 23.4329C39.929 23.5169 39.931 23.6019 39.931 23.6869V26.5869C39.931 26.6839 39.931 26.7809 39.927 26.8769C39.925 26.9469 39.888 26.9869 39.817 26.9949C39.794 26.9969 39.77 26.9999 39.746 26.9989C39.106 26.9859 39.206 27.1029 39.203 26.4769C39.197 25.5349 39.201 24.5919 39.201 23.6489C39.201 23.5529 39.201 23.4559 39.195 23.3589C39.1938 23.3344 39.1837 23.3112 39.1666 23.2937C39.1494 23.2762 39.1264 23.2656 39.102 23.2639C39.005 23.2569 38.908 23.2599 38.812 23.2549C38.649 23.2469 38.637 23.2339 38.632 23.0569C38.6305 22.9969 38.6305 22.9369 38.632 22.8769C38.637 22.6869 38.649 22.6769 38.841 22.6669C38.948 22.6609 39.079 22.7079 39.157 22.6329C39.249 22.5449 39.198 22.4029 39.2 22.2849C39.203 22.0669 39.21 21.8519 39.274 21.6399C39.442 21.0709 39.86 20.7629 40.501 20.7799C40.549 20.7819 40.597 20.7899 40.645 20.7999C40.715 20.8129 40.783 20.8299 40.849 20.8439H40.847ZM50.647 26.4129C50.647 26.5969 50.645 26.7409 50.647 26.8839C50.647 26.9739 50.595 27.0099 50.519 27.0309C50.341 27.0819 50.16 27.0939 49.979 27.0649C49.8585 27.0478 49.7442 27.0004 49.6468 26.9274C49.5495 26.8543 49.4721 26.7578 49.422 26.6469C49.312 26.4239 49.291 26.1859 49.291 25.9419V23.6569C49.29 23.2579 49.337 23.2469 48.906 23.2529L48.76 23.2509C48.69 23.2509 48.649 23.2149 48.64 23.1449C48.637 23.1219 48.637 23.0969 48.637 23.0729C48.639 22.6219 48.599 22.6689 49.008 22.6649C49.287 22.6619 49.288 22.6589 49.291 22.3829C49.294 22.1429 49.295 21.9029 49.297 21.6529C49.534 21.6159 49.747 21.6249 49.967 21.6469C50.017 21.8949 49.987 22.1369 49.993 22.3769C50.001 22.6589 49.998 22.6589 50.269 22.6669H50.342C50.649 22.6669 50.652 22.6409 50.648 22.9929C50.648 23.0419 50.648 23.0909 50.645 23.1379C50.639 23.2069 50.603 23.2479 50.531 23.2489C50.398 23.2529 50.265 23.2499 50.131 23.2569C50.051 23.2609 49.998 23.3059 49.997 23.3949C49.997 23.4429 49.994 23.4909 49.994 23.5399C49.994 24.2889 49.993 25.0389 49.996 25.7879C49.996 25.8959 50.007 26.0059 50.028 26.1109C50.077 26.3509 50.163 26.4189 50.398 26.4219C50.468 26.4219 50.54 26.4159 50.648 26.4109L50.647 26.4129ZM40.161 31.4379C40.161 31.7229 40.159 32.0009 40.161 32.2779C40.163 32.4299 40.18 32.4479 40.323 32.4529C40.433 32.4569 40.541 32.4529 40.65 32.4559C40.78 32.4599 40.812 32.4809 40.81 32.5949C40.81 33.0999 40.884 33.0349 40.412 33.0389L40.303 33.0409C40.219 33.0409 40.166 33.0769 40.162 33.1659C40.159 33.2149 40.159 33.2629 40.159 33.3119C40.159 34.0739 40.158 34.8359 40.161 35.5969C40.161 35.7059 40.169 35.8159 40.193 35.9209C40.244 36.1389 40.356 36.2159 40.585 36.2099C40.645 36.2079 40.705 36.1949 40.779 36.1849C40.841 36.3619 40.812 36.5399 40.803 36.7169C40.801 36.7439 40.768 36.7749 40.743 36.7969C40.726 36.8109 40.698 36.8119 40.674 36.8169C40.005 36.9919 39.554 36.6969 39.469 36.0469C39.4535 35.9272 39.4455 35.8066 39.445 35.6859C39.442 34.9599 39.444 34.2349 39.444 33.5089V33.2919C39.439 33.0459 39.438 33.0449 39.208 33.0419C39.123 33.0399 39.038 33.0429 38.953 33.0399C38.789 33.0339 38.779 33.0229 38.775 32.8429C38.773 32.7829 38.775 32.7229 38.775 32.6609C38.772 32.4879 38.8 32.4579 38.985 32.4529C39.126 32.4489 39.299 32.5189 39.403 32.4149C39.506 32.3109 39.427 32.1379 39.443 31.9969C39.466 31.8109 39.394 31.6159 39.496 31.4369C39.71 31.3899 39.924 31.4009 40.16 31.4389L40.161 31.4379ZM37.408 33.6799V31.0339C37.408 30.9369 37.411 30.8409 37.415 30.7439C37.418 30.6909 37.449 30.6569 37.503 30.6469C37.5267 30.6422 37.5508 30.6398 37.575 30.6399C38.219 30.6509 38.121 30.5349 38.123 31.1559C38.128 32.8839 38.125 34.6109 38.125 36.3389C38.125 36.4349 38.127 36.5319 38.123 36.6289C38.118 36.7529 38.09 36.7869 37.979 36.7889C37.834 36.7929 37.689 36.7919 37.544 36.7889C37.457 36.7879 37.411 36.7379 37.41 36.6529C37.408 36.5559 37.408 36.4589 37.408 36.3629V33.6779V33.6799ZM36.928 44.4079V42.5939C36.928 42.5089 36.928 42.4239 36.931 42.3399C36.934 42.2659 36.981 42.2349 37.049 42.2339C37.17 42.2329 37.291 42.2309 37.412 42.2329C37.578 42.2339 37.578 42.2359 37.64 42.4219C37.665 42.4969 37.706 42.5109 37.767 42.4479C37.865 42.3394 37.9887 42.2571 38.1267 42.2085C38.2646 42.1599 38.4126 42.1467 38.557 42.1699C38.687 42.1869 38.715 42.2179 38.721 42.3589C38.725 42.4189 38.725 42.4799 38.721 42.5399C38.716 42.6479 38.76 42.7699 38.696 42.8599C38.622 42.9619 38.494 42.8859 38.392 42.8899C37.947 42.9119 37.662 43.2049 37.662 43.6659C37.657 44.5119 37.662 45.3589 37.66 46.2059C37.66 46.5869 37.703 46.5729 37.282 46.5719C36.894 46.5709 36.928 46.5959 36.927 46.2219V44.4079H36.928ZM36.39 24.8359V23.0219C36.39 22.9369 36.392 22.8519 36.398 22.7689C36.399 22.7445 36.4093 22.7214 36.4268 22.7043C36.4442 22.6872 36.4676 22.6774 36.492 22.6769C36.625 22.6689 36.758 22.6669 36.89 22.6669C37.056 22.6689 37.056 22.6709 37.11 22.8649C37.13 22.9419 37.18 22.9599 37.236 22.8989C37.3268 22.7926 37.4417 22.7095 37.5711 22.6565C37.7005 22.6034 37.8407 22.582 37.98 22.5939C38.151 22.6059 38.192 22.6439 38.196 22.8119C38.2 22.9319 38.2 23.0529 38.196 23.1739C38.192 23.3189 38.176 23.3319 38.026 23.3329C37.965 23.3329 37.905 23.3269 37.845 23.3309C37.6554 23.3389 37.4759 23.4185 37.3427 23.5536C37.2095 23.6887 37.1324 23.8692 37.127 24.0589C37.116 24.3359 37.125 24.6149 37.125 24.8929V26.6349C37.125 26.7189 37.124 26.8039 37.12 26.8879C37.117 26.9589 37.074 26.9939 37.003 26.9969C36.9547 26.9983 36.9063 26.999 36.858 26.9989C36.333 26.9929 36.392 27.0649 36.391 26.5409C36.388 25.9719 36.39 25.4039 36.39 24.8359ZM42.415 34.5899V36.4719C42.415 36.5439 42.413 36.6159 42.407 36.6879C42.402 36.7399 42.371 36.7809 42.316 36.7819C42.146 36.7869 41.978 36.7879 41.809 36.7859C41.742 36.7859 41.696 36.7479 41.689 36.6779C41.6849 36.618 41.6833 36.5579 41.684 36.4979V32.7349C41.684 32.6749 41.687 32.6149 41.691 32.5549C41.695 32.4989 41.731 32.4709 41.784 32.4629C41.796 32.4609 41.808 32.4579 41.819 32.4579C42.522 32.4709 42.404 32.3359 42.412 32.9989C42.419 33.5289 42.414 34.0609 42.414 34.5909L42.415 34.5899ZM42.474 31.3369C42.4742 31.4125 42.4542 31.4867 42.4159 31.552C42.3777 31.6172 42.3227 31.671 42.2567 31.7077C42.1906 31.7445 42.1159 31.7628 42.0403 31.7609C41.9648 31.759 41.8911 31.7369 41.827 31.6969C41.7531 31.6543 41.6992 31.5842 41.677 31.5019C41.6622 31.4437 41.6548 31.3839 41.655 31.3239C41.653 31.0459 41.811 30.8769 42.064 30.8829C42.304 30.8879 42.479 31.0829 42.474 31.3369Z" fill="#0E1DB0"/>
</g>
</svg>
