<svg width="49" height="49" viewBox="0 0 49 49" fill="none" xmlns="http://www.w3.org/2000/svg">
<g clip-path="url(#clip0_1_85)">
<mask id="mask0_1_85" style="mask-type:luminance" maskUnits="userSpaceOnUse" x="0" y="1" width="48" height="47">
<path d="M0.478729 1.21997H47.5364V47.6487H0.478729V1.21997Z" fill="white"/>
</mask>
<g mask="url(#mask0_1_85)">
<path d="M33.1726 17.9838C34.6926 20.0218 35.5132 22.4965 35.5119 25.0388C35.5119 31.6383 30.0634 37.0075 23.3669 37.0075C16.6694 37.0075 11.2219 31.6383 11.2219 25.0388C11.2219 18.4383 16.6694 13.0692 23.3669 13.0692C26.0706 13.0692 28.5705 13.944 30.5904 15.4222L34.0895 11.974C31.0452 9.5427 27.263 8.22174 23.3669 8.22903C13.9618 8.22903 6.30927 15.7699 6.30927 25.0388C6.30927 34.3077 13.9618 41.8486 23.3669 41.8486C32.772 41.8486 40.4236 34.3077 40.4236 25.0388C40.4236 21.0666 39.0188 17.4127 36.6737 14.5327L33.1726 17.9838Z" fill="#607987" fill-opacity="0.1"/>
<path d="M23.7627 24.7038C24.4559 22.5674 25.5869 20.599 27.0835 18.9242C25.9583 18.2581 24.6744 17.9079 23.3669 17.9103C19.378 17.9103 16.1336 21.1077 16.1336 25.0388C16.1336 28.9689 19.378 32.1673 23.3669 32.1673C27.3558 32.1673 30.6002 28.9699 30.6002 25.0388C30.6014 23.7731 30.2599 22.5308 29.6118 21.4437C27.9054 22.9181 25.9151 24.0276 23.7636 24.7038H23.7627Z" fill="#607987" fill-opacity="0.1"/>
<path d="M47.267 10.0677C47.389 9.94788 47.4742 9.79575 47.5127 9.62916C47.5513 9.46258 47.5415 9.28846 47.4844 9.12727C47.4264 8.96527 47.324 8.82287 47.1889 8.71633C47.0538 8.60979 46.8914 8.54343 46.7204 8.52482L43.0048 8.10849L40.6008 5.73984L40.1786 2.07813C40.1584 1.90777 40.0903 1.74663 39.9823 1.61333C39.8743 1.48003 39.7308 1.38 39.5684 1.32482C39.4053 1.26837 39.2296 1.25855 39.0613 1.29644C38.8929 1.33434 38.7384 1.41847 38.6152 1.53935L34.979 5.1227C34.8791 5.22262 34.7831 5.32645 34.6949 5.43421C31.2349 3.49403 27.3337 2.47724 23.3669 2.48172C17.2542 2.48172 11.506 4.82784 7.18306 9.08809C2.86012 13.3483 0.478729 19.0133 0.478729 25.0388C0.478729 31.0633 2.85914 36.7282 7.18306 40.9895C11.506 45.2497 17.2533 47.5958 23.3669 47.5958C29.4795 47.5958 35.2278 45.2497 39.5507 40.9895C43.8737 36.7282 46.2551 31.0642 46.2551 25.0388C46.2551 21.1351 45.2353 17.3167 43.2996 13.9439C43.4142 13.8528 43.5249 13.7558 43.6307 13.651L47.267 10.0677ZM42.3318 12.3678C42.1001 12.5965 41.8199 12.7703 41.512 12.8763C41.2041 12.9823 40.8763 13.0177 40.5528 12.98L39.6516 12.8791L42.6786 9.89723L44.6182 10.1147L42.3318 12.3678ZM29.744 20.0801C28.476 21.3263 27.0044 22.3467 25.3927 23.0972C26.1587 21.503 27.194 20.0528 28.4529 18.8105L39.8583 7.5707L41.1475 8.84221L29.744 20.0801ZM22.9594 24.2159L22.9535 24.2208L21.9729 25.1877C21.8877 25.2712 21.8199 25.371 21.7736 25.481C21.7273 25.5911 21.7034 25.7092 21.7033 25.8286C21.7032 25.948 21.7269 26.0662 21.7731 26.1763C21.8192 26.2865 21.8868 26.3863 21.972 26.47C22.1453 26.6408 22.3791 26.7362 22.6224 26.7354C22.8575 26.7354 23.0926 26.6473 23.2719 26.4709L24.2524 25.5041L24.2583 25.4982C26.8073 24.6589 29.129 23.2444 31.044 21.3643L33.0286 19.4081C34.0555 21.1065 34.597 23.054 34.594 25.0388C34.594 31.1387 29.5589 36.1013 23.3679 36.1013C17.1768 36.1013 12.1417 31.1387 12.1417 25.0388C12.1417 18.9389 17.1768 13.9762 23.3679 13.9762C25.427 13.9762 27.4087 14.5209 29.1514 15.5602L27.155 17.5273C25.2556 19.4004 23.8191 21.6906 22.9594 24.2159ZM38.5672 4.14996L38.7876 6.06213L35.7607 9.04596L35.6578 8.15747C35.6205 7.83747 35.6571 7.51317 35.7647 7.20952C35.8724 6.90586 36.0483 6.63096 36.2789 6.40596L38.5672 4.14996ZM44.4164 25.0388C44.4164 36.4765 34.9731 45.7816 23.3669 45.7816C11.7597 45.7816 2.31742 36.4765 2.31742 25.0388C2.31742 13.6001 11.7607 4.29494 23.3669 4.29494C27.0795 4.29494 30.706 5.25396 33.8955 7.07209C33.8044 7.48939 33.7809 7.92433 33.8309 8.36221L34.0993 10.6829L30.4846 14.2447C28.3625 12.8786 25.8907 12.1553 23.3669 12.162C16.163 12.162 10.3021 17.9387 10.3021 25.0388C10.3021 32.1389 16.163 37.9145 23.3669 37.9145C30.5708 37.9145 36.4317 32.1389 36.4317 25.0388C36.4317 22.5565 35.7176 20.1663 34.3628 18.0915L37.9893 14.5189L40.3452 14.7825C40.775 14.8301 41.2096 14.8103 41.6333 14.7237C43.4576 17.8551 44.418 21.4147 44.4164 25.0388Z" fill="#4E6575"/>
</g>
</g>
<defs>
<clipPath id="clip0_1_85">
<rect width="48" height="48" fill="white" transform="translate(0.369995 0.5)"/>
</clipPath>
</defs>
</svg>
