<svg width="136" height="69" viewBox="0 0 136 69" fill="none" xmlns="http://www.w3.org/2000/svg">
<mask id="mask0_1_114" style="mask-type:luminance" maskUnits="userSpaceOnUse" x="20" y="25" width="96" height="19">
<path d="M116 25.5H20V43.5H116V25.5Z" fill="white"/>
</mask>
<g mask="url(#mask0_1_114)">
<path d="M99.2431 43.2256C98.6755 43.2256 98.1077 43.2177 97.5404 43.2302C97.3645 43.2343 97.2915 43.1771 97.2388 43.0124C96.8937 41.9319 96.5331 40.8544 96.189 39.7727C96.1374 39.6101 96.0647 39.5666 95.8999 39.5683C93.7433 39.574 91.5864 39.574 89.4294 39.5683C89.2467 39.5683 89.1796 39.6317 89.1295 39.7964C88.807 40.8593 88.4664 41.9173 88.1486 42.982C88.0885 43.1832 87.9985 43.234 87.7983 43.2323C86.6793 43.2226 85.5603 43.2276 84.4416 43.2276C84.1696 43.2276 84.1693 43.2276 84.259 42.9753L88.9911 29.7121C89.3404 28.7339 89.6895 27.7558 90.0385 26.7779C90.3443 25.9206 90.9318 25.5065 91.8382 25.5062C92.7303 25.5062 93.6221 25.5117 94.5139 25.5015C94.6921 25.4995 94.761 25.5599 94.8196 25.7211C96.913 31.4713 99.0096 37.2203 101.11 42.968C101.203 43.2247 101.203 43.225 100.921 43.225L99.2431 43.2256ZM92.6717 29.1211C92.6374 29.1795 92.6321 29.1859 92.6295 29.1932C91.8342 31.593 91.0386 33.9927 90.2426 36.3923C90.1696 36.6122 90.3191 36.5675 90.4308 36.5675C91.9145 36.5675 93.3978 36.5652 94.8815 36.5719C95.0811 36.5719 95.128 36.5407 95.0591 36.3342C94.4318 34.4557 93.8156 32.5733 93.1953 30.6927C93.0276 30.182 92.8561 29.6742 92.6717 29.1211Z" fill="#EC1D25"/>
<path d="M74.1277 31.2766C74.4059 30.8678 74.67 30.5265 75.0033 30.2449C75.9866 29.4139 77.1501 29.1645 78.4016 29.2097C80.6123 29.2918 83.0276 31.1771 83.3351 33.8552C83.3939 34.327 83.4258 34.8018 83.4307 35.2773C83.4307 37.8437 83.4324 40.41 83.4357 42.9761C83.4357 43.1668 83.4064 43.2339 83.1932 43.2313C82.1877 43.2179 81.1822 43.2196 80.177 43.2313C79.9896 43.2333 79.9547 43.1814 79.955 43.005C79.9615 40.705 79.9668 38.4051 79.955 36.1052C79.9509 35.3392 79.8932 34.5753 79.5232 33.8736C79.0668 33.008 78.4142 32.4027 77.3896 32.3305C75.8239 32.2202 74.758 32.9852 74.33 34.5061C74.1947 34.9879 74.1265 35.486 74.1274 35.9863C74.1274 38.3187 74.1245 40.651 74.1327 42.9831C74.1327 43.1834 74.0878 43.2339 73.8844 43.2316C72.8548 43.2196 71.8247 43.2225 70.7951 43.2298C70.6374 43.2298 70.5952 43.1907 70.5955 43.0318C70.5996 37.2618 70.5996 31.4917 70.5955 25.7216C70.5955 25.5572 70.633 25.4988 70.8086 25.5032C71.2946 25.5151 71.7813 25.5072 72.2679 25.5072C73.3799 25.5072 74.1227 26.2425 74.1262 27.3557C74.13 28.5661 74.1262 29.7766 74.1262 30.9873L74.1277 31.2766Z" fill="#010101"/>
<path d="M51.062 37.308C49.6507 37.308 48.2395 37.3118 46.8282 37.3037C46.621 37.3037 46.5735 37.3515 46.5996 37.56C46.6488 37.9525 46.6896 38.3447 46.8247 38.7194C47.3014 40.0407 48.272 40.5135 49.4754 40.4849C49.9628 40.4783 50.4416 40.3567 50.8726 40.1301C51.0872 40.0162 51.2763 39.8696 51.4041 39.6801C51.7409 39.1807 52.2138 38.988 52.7922 38.9877C53.5951 38.9877 54.3981 38.9924 55.2011 38.9836C55.3854 38.9816 55.3711 39.0566 55.333 39.1843C54.6614 41.4354 53.1616 42.8135 50.8679 43.3131C49.6164 43.585 48.3512 43.5718 47.1155 43.2077C45.4618 42.7203 44.2619 41.6623 43.6237 40.0854C42.6103 37.5822 42.5827 35.0224 43.6293 32.5274C44.4428 30.584 46.0124 29.5298 48.1081 29.2732C49.3535 29.1213 50.5856 29.2028 51.7726 29.6344C53.6473 30.3157 54.7176 31.7077 55.2436 33.5725C55.566 34.7196 55.6062 35.8941 55.5863 37.0747C55.583 37.2619 55.5077 37.3136 55.3195 37.3124C53.9009 37.3042 52.4803 37.308 51.062 37.308ZM49.2312 34.983H51.3235C51.8629 34.983 51.8702 34.983 51.7858 34.4588C51.6949 33.8952 51.5293 33.357 51.1212 32.931C50.2837 32.0567 48.6367 31.9489 47.6359 32.6956C46.9405 33.2142 46.6825 33.9457 46.5978 34.7689C46.5788 34.9532 46.6312 34.9859 46.7983 34.9844C47.6092 34.9792 48.4201 34.983 49.2312 34.983Z" fill="#010101"/>
<path d="M36.6737 35.9373C36.6737 33.605 36.6705 31.2723 36.679 28.94C36.679 28.7151 36.6383 28.6433 36.3941 28.6453C34.821 28.6582 33.2479 28.6491 31.6743 28.6555C31.4951 28.6555 31.4257 28.6263 31.4283 28.424C31.4409 27.5202 31.4386 26.6161 31.4298 25.7123C31.4298 25.5394 31.4799 25.4997 31.6476 25.5C35.7023 25.5047 39.7569 25.5062 43.8115 25.5047C44.8038 25.5047 45.6112 26.3247 45.6276 27.3377C45.6332 27.6925 45.6159 28.0484 45.6332 28.4027C45.6431 28.6018 45.5901 28.6582 45.3846 28.6567C43.9979 28.6474 42.6113 28.6518 41.2247 28.6518C40.9902 28.6518 40.7556 28.6585 40.5193 28.6494C40.3889 28.6442 40.3435 28.6921 40.3558 28.8162C40.3587 28.8726 40.3587 28.9291 40.3558 28.9855C40.3558 33.6424 40.3576 38.2992 40.3613 42.9557C40.3613 43.1811 40.2995 43.2299 40.0828 43.2275C39.0288 43.2163 37.9747 43.2163 36.9203 43.2275C36.7242 43.2296 36.6667 43.1908 36.6673 42.9831C36.6772 40.6344 36.6737 38.2857 36.6737 35.9373Z" fill="#010101"/>
<path d="M67.3024 33.692C66.7996 33.692 66.2963 33.6817 65.7941 33.6966C65.5848 33.7031 65.4649 33.6505 65.3646 33.4522C64.5584 31.8587 62.1546 31.9004 61.2209 32.938C60.7612 33.4481 60.5416 34.0684 60.4329 34.7263C60.2206 36.0112 60.2016 37.299 60.6017 38.5558C61.2358 40.5486 63.102 40.7906 64.5197 40.2311C64.8463 40.1021 65.1043 39.8883 65.3189 39.6211C65.6727 39.1805 66.1242 38.9743 66.6926 38.9836C67.4709 38.9962 68.2496 38.9915 69.0279 38.9836C69.2135 38.9816 69.2442 39.0274 69.1906 39.2026C68.4612 41.5829 66.8424 42.9551 64.3981 43.3709C63.2354 43.5689 62.0713 43.5403 60.9347 43.1928C59.1318 42.6417 57.9235 41.4313 57.3152 39.6924C56.5424 37.4815 56.521 35.2245 57.2888 33.0028C58.1037 30.6459 60.1063 29.265 62.6116 29.2171C63.6901 29.1961 64.7452 29.2915 65.7598 29.6799C67.4056 30.3098 68.3953 31.5413 68.9666 33.1526C69.1575 33.6905 69.1513 33.6928 68.5917 33.6928L67.3024 33.692Z" fill="#010101"/>
<path d="M110.294 33.294C110.294 30.7847 110.297 28.2753 110.289 25.7663C110.289 25.5517 110.341 25.4933 110.556 25.5006C111.066 25.5175 111.577 25.5059 112.088 25.5061C113.096 25.5061 113.87 26.2695 113.878 27.2766C113.884 27.9544 113.891 28.6325 113.873 29.3097C113.867 29.5433 113.946 29.5845 114.157 29.5792C114.699 29.5652 115.241 29.5792 115.786 29.571C115.943 29.5687 115.995 29.6093 115.991 29.7719C115.981 30.2801 115.958 30.7905 115.993 31.2966C116.067 32.3382 115.28 33.19 114.174 33.1705C113.925 33.1658 113.871 33.2329 113.873 33.4741C113.884 35.3784 113.879 37.2824 113.879 39.1866C113.879 39.8504 114.157 40.1348 114.832 40.1657C114.994 40.173 115.158 40.1684 115.316 40.1982C115.749 40.2805 115.961 40.5013 115.975 40.9393C115.996 41.6568 115.981 42.3752 115.99 43.0932C115.99 43.2299 115.915 43.2258 115.822 43.2319C114.778 43.2982 113.734 43.2643 112.691 43.196C112.417 43.1779 112.14 43.1709 111.87 43.1084C110.984 42.9022 110.451 42.2674 110.334 41.2792C110.305 41.039 110.291 40.7972 110.292 40.5553C110.294 38.1349 110.295 35.7144 110.294 33.294Z" fill="#EC1D25"/>
<path d="M105.265 39.3549C105.265 40.5735 105.262 41.7924 105.269 43.011C105.269 43.1754 105.235 43.2306 105.058 43.2294C103.979 43.221 102.901 43.221 101.822 43.2294C101.667 43.2294 101.619 43.1938 101.619 43.032C101.628 40.7075 101.605 38.3828 101.639 36.0589C101.662 34.4852 102.063 33.0123 103.089 31.7633C103.927 30.7413 105.038 30.1692 106.3 29.8427C107.264 29.593 108.244 29.5025 109.237 29.5165C109.36 29.5183 109.405 29.5478 109.404 29.6783C109.4 30.7921 109.4 31.9059 109.404 33.0199C109.404 33.1895 109.324 33.1922 109.197 33.1951C108.638 33.2056 108.076 33.1475 107.52 33.2322C106.071 33.4532 105.345 34.2618 105.272 35.7245C105.269 35.7727 105.265 35.8212 105.265 35.8706C105.265 37.0312 105.265 38.1927 105.265 39.3549Z" fill="#EC1D25"/>
<path d="M25.7311 36.6774C25.7311 34.5869 25.7343 32.4966 25.7258 30.406C25.7258 30.194 25.776 30.1397 25.9897 30.1432C27.0925 30.1552 28.1957 30.1514 29.2985 30.1456C29.4492 30.1456 29.5037 30.1733 29.5037 30.34C29.4994 34.5694 29.4996 38.7983 29.5043 43.0268C29.5043 43.1815 29.4685 43.2297 29.3061 43.2286C28.1872 43.2213 27.0679 43.2195 25.9486 43.2286C25.7563 43.2306 25.727 43.1669 25.7273 42.9949C25.733 40.8903 25.7342 38.7844 25.7311 36.6774Z" fill="#EC1D25"/>
<path d="M23.8146 32.0583C23.8146 32.6149 23.8093 33.1718 23.8178 33.7281C23.8202 33.8857 23.7944 33.9538 23.6126 33.9526C22.4778 33.9439 21.3427 33.9456 20.2079 33.9526C20.0546 33.9526 19.9983 33.919 20 33.7543C20.0088 33.0205 19.9953 32.2861 20.0062 31.5519C20.0203 30.6204 20.4873 30.1611 21.4251 30.1503C22.1547 30.1424 22.8844 30.1552 23.6138 30.1441C23.7955 30.1415 23.8219 30.2069 23.819 30.3652C23.8093 30.9288 23.8146 31.4935 23.8146 32.0583Z" fill="#EC1D25"/>
<path d="M21.9093 43.2257C21.3417 43.2257 20.7739 43.2213 20.2066 43.2286C20.0574 43.2301 19.9988 43.2024 19.9988 43.0342C20.007 41.9286 20.007 40.8231 19.9988 39.7177C19.9988 39.5548 20.0513 39.5171 20.206 39.5171C21.3411 39.5229 22.4763 39.5229 23.6116 39.5171C23.7655 39.5171 23.8198 39.5524 23.8186 39.716C23.8116 40.8215 23.8116 41.9271 23.8186 43.0327C23.8186 43.2 23.76 43.2292 23.6113 43.2272C23.0444 43.2205 22.4768 43.2257 21.9093 43.2257Z" fill="#EC1D25"/>
<path d="M27.5967 28.6539H25.9207C25.8249 28.6539 25.7243 28.6767 25.7264 28.519C25.7343 27.9145 25.7053 27.3083 25.7445 26.7061C25.795 25.9303 26.2359 25.527 27.0209 25.5089C27.7893 25.4928 28.5591 25.5086 29.3287 25.5039C29.4556 25.5039 29.4961 25.5427 29.4955 25.6695C29.4911 26.6127 29.4896 27.5559 29.4955 28.4991C29.4955 28.6624 29.4075 28.6557 29.297 28.6554C28.7306 28.6539 28.1637 28.6539 27.5967 28.6539Z" fill="#EC1D25"/>
</g>
</svg>
