<svg width="25" height="26" viewBox="0 0 25 26" fill="none" xmlns="http://www.w3.org/2000/svg">
<path fill-rule="evenodd" clip-rule="evenodd" d="M24.58 12.7801C24.58 19.656 19.2074 25.2301 12.58 25.2301C5.95257 25.2301 0.579987 19.656 0.579987 12.7801C0.579987 5.90413 5.95257 0.330078 12.58 0.330078C19.2074 0.330078 24.58 5.90413 24.58 12.7801ZM12.9546 9.3203C11.7903 9.83328 9.46333 10.8951 5.97367 12.5057C5.40701 12.7444 5.11016 12.9779 5.08314 13.2062C5.03747 13.5921 5.49368 13.7441 6.11491 13.951C6.19941 13.9792 6.28696 14.0083 6.37672 14.0392C6.98792 14.2497 7.81008 14.4959 8.23749 14.5057C8.6252 14.5146 9.05791 14.3452 9.53565 13.9977C12.7962 11.6663 14.4792 10.4879 14.5849 10.4625C14.6594 10.4445 14.7628 10.422 14.8327 10.4879C14.9027 10.5538 14.8959 10.6786 14.8884 10.7121C14.8433 10.9162 13.0525 12.6798 12.1258 13.5924C11.8369 13.8769 11.6319 14.0788 11.59 14.1249C11.4962 14.2281 11.4006 14.3258 11.3086 14.4196C10.7408 14.9995 10.315 15.4343 11.3322 16.1444C11.821 16.4856 12.2122 16.7678 12.6024 17.0493C13.0286 17.3567 13.4537 17.6634 14.0036 18.0453C14.1438 18.1426 14.2776 18.2436 14.4079 18.3421C14.9039 18.7166 15.3495 19.0531 15.8999 18.9994C16.2198 18.9683 16.5502 18.6496 16.718 17.6994C17.1146 15.4537 17.8941 10.5879 18.0742 8.58277C18.09 8.4071 18.0701 8.18227 18.0542 8.08358C18.0383 7.98489 18.0049 7.84427 17.8838 7.74018C17.7404 7.6169 17.519 7.5909 17.42 7.59266C16.9697 7.60115 16.279 7.85559 12.9546 9.3203Z" fill="#BA8D5B"/>
</svg>
