<svg width="136" height="69" viewBox="0 0 136 69" fill="none" xmlns="http://www.w3.org/2000/svg">
<path d="M9.86948 43.0496V37.6593H8.5116V34.9017H9.86948V31.9951H13.0948V34.9017H15.7682V37.6593H13.0948V42.5195C13.0948 43.2623 13.4129 43.6229 14.1346 43.6229C14.6907 43.6254 15.2384 43.4868 15.7264 43.2199V45.8084C15.0465 46.2114 14.2618 46.4659 13.179 46.4659C11.2068 46.4659 9.86948 45.6805 9.86948 43.0496Z" fill="black"/>
<path d="M25.1892 39.6963C25.0021 38.2536 24.15 37.2775 22.7922 37.2775C21.4567 37.2775 20.5835 38.2324 20.334 39.6963H25.1892ZM17.1692 40.6089C17.1692 37.3623 19.482 34.689 22.7922 34.689C26.5901 34.689 28.3297 37.6386 28.3297 40.864C28.3297 41.1178 28.3085 41.4147 28.2873 41.7129H20.3727C20.6914 43.1768 21.71 43.9403 23.1514 43.9403C24.2336 43.9403 25.0183 43.6009 25.9096 42.7732L27.7565 44.4074C26.6961 45.7223 25.1674 46.5282 23.109 46.5282C19.6934 46.5282 17.1679 44.1305 17.1679 40.6082L17.1692 40.6089Z" fill="black"/>
<path d="M32.8462 40.5032L29.0052 34.9014H32.4639L34.5858 38.2115L36.729 34.9014H40.1022L36.2618 40.4395L40.2725 46.2746H36.8138L34.5222 42.7312L32.2306 46.2746H28.8568L32.8462 40.5032Z" fill="black"/>
<path d="M41.7325 34.9017H44.9578V36.514C45.7001 35.5585 46.655 34.689 48.2886 34.689C50.7293 34.689 52.1508 36.302 52.1508 38.9117V46.2718H48.9254V39.9302C48.9254 38.4021 48.2037 37.6174 46.9744 37.6174C45.745 37.6174 44.9584 38.4021 44.9584 39.9302V46.273H41.7325V34.9017Z" fill="black"/>
<path d="M63.2471 40.6089C63.2471 38.9329 62.0376 37.4683 60.2531 37.4683C58.4062 37.4683 57.3035 38.8905 57.3035 40.6089C57.3035 42.2849 58.5129 43.7494 60.2974 43.7494C62.1399 43.7494 63.2471 42.3273 63.2471 40.6089ZM54.123 40.6089C54.123 37.3411 56.7539 34.689 60.298 34.689C63.8203 34.689 66.43 37.2987 66.43 40.6089C66.43 43.876 63.7991 46.5288 60.255 46.5288C56.7321 46.5288 54.1211 43.9191 54.1211 40.6089H54.123Z" fill="black"/>
<path d="M68.4923 34.9017H71.7171V36.514C72.4599 35.5585 73.4361 34.689 75.0697 34.689C76.5554 34.689 77.68 35.3464 78.2738 36.4922C79.2718 35.3252 80.4569 34.689 82.0088 34.689C84.4064 34.689 85.8485 36.1317 85.8485 38.868V46.273H82.6238V39.9302C82.6238 38.4021 81.9439 37.6174 80.7351 37.6174C79.5263 37.6174 78.7846 38.4021 78.7846 39.9302V46.273H75.5581V39.9302C75.5581 38.4021 74.8782 37.6174 73.6687 37.6174C72.4593 37.6174 71.7183 38.4021 71.7183 39.9302V46.273H68.4923V34.9017Z" fill="black"/>
<path d="M95.1582 42.2644V41.6918C94.5098 41.4062 93.8083 41.2614 93.0998 41.267C91.7207 41.267 90.8718 41.8191 90.8718 42.88C90.8718 43.7533 91.5929 44.2591 92.6327 44.2591C94.1402 44.2591 95.1582 43.432 95.1582 42.2632V42.2644ZM87.7531 42.9642C87.7531 40.4818 89.6412 39.336 92.3345 39.336C93.2813 39.3275 94.2223 39.4854 95.1145 39.8025V39.6116C95.1145 38.275 94.2868 37.5327 92.6738 37.5327C91.4438 37.5327 90.5737 37.766 89.5339 38.1477L88.7305 35.6865C89.9824 35.1344 91.213 34.7739 93.1435 34.7739C94.9049 34.7739 96.178 35.2405 96.9839 36.047C97.8328 36.8959 98.2151 38.1477 98.2151 39.6759V46.2732H95.0964V45.0438C94.3111 45.917 93.2289 46.4871 91.659 46.4871C89.5158 46.4871 87.755 45.2559 87.755 42.9642H87.7531Z" fill="black"/>
<path d="M100.802 34.9022H104.028V37.1932C104.686 35.6226 105.747 34.6047 107.656 34.6895V38.0633H107.486C105.343 38.0633 104.028 39.3576 104.028 42.0733V46.2736H100.802V34.9022Z" fill="black"/>
<path d="M110.13 43.0496V37.6593H108.771V34.9017H110.13V31.9951H113.356V34.9017H116.029V37.6593H113.356V42.5195C113.356 43.2623 113.673 43.6229 114.395 43.6229C114.951 43.6255 115.499 43.4869 115.987 43.2199V45.8084C115.307 46.2114 114.522 46.4659 113.44 46.4659C111.467 46.4659 110.129 45.6812 110.129 43.0503L110.13 43.0496Z" fill="black"/>
<path d="M128.254 31.0133L126.936 28.7305L124.199 30.3104V27.1499H121.562V30.3104L118.825 28.7305L117.506 31.0133L120.244 32.5939L117.506 34.1744L118.825 36.458L121.562 34.8774V38.0379H124.199V34.8774L126.936 36.458L128.254 34.1744L125.517 32.5939L128.254 31.0133Z" fill="black"/>
<mask id="mask0_1_192" style="mask-type:luminance" maskUnits="userSpaceOnUse" x="0" y="23" width="136" height="30">
<path d="M136 23.5H0V52.5132H136V23.5Z" fill="white"/>
</mask>
<g mask="url(#mask0_1_192)">
<path d="M136 23.5H0V52.5132H136V23.5Z" fill="#FDC100"/>
<path d="M9.86948 43.0496V37.6593H8.5116V34.9017H9.86948V31.9951H13.0948V34.9017H15.7682V37.6593H13.0948V42.5195C13.0948 43.2623 13.4129 43.6229 14.1346 43.6229C14.6907 43.6254 15.2384 43.4868 15.7264 43.2199V45.8084C15.0465 46.2114 14.2618 46.4659 13.179 46.4659C11.2068 46.4659 9.86948 45.6805 9.86948 43.0496Z" fill="black"/>
<path d="M25.1892 39.6963C25.0021 38.2536 24.15 37.2775 22.7922 37.2775C21.4567 37.2775 20.5835 38.2324 20.334 39.6963H25.1892ZM17.1692 40.6089C17.1692 37.3623 19.482 34.689 22.7922 34.689C26.5901 34.689 28.3297 37.6386 28.3297 40.864C28.3297 41.1178 28.3085 41.4147 28.2873 41.7129H20.3727C20.6914 43.1768 21.71 43.9403 23.1514 43.9403C24.2336 43.9403 25.0183 43.6009 25.9096 42.7732L27.7565 44.4074C26.6961 45.7223 25.1674 46.5282 23.109 46.5282C19.6934 46.5282 17.1679 44.1305 17.1679 40.6082L17.1692 40.6089Z" fill="black"/>
<path d="M32.8462 40.5032L29.0052 34.9014H32.4639L34.5858 38.2115L36.729 34.9014H40.1022L36.2618 40.4395L40.2725 46.2746H36.8138L34.5222 42.7312L32.2306 46.2746H28.8568L32.8462 40.5032Z" fill="black"/>
<path d="M41.7325 34.9017H44.9578V36.514C45.7001 35.5585 46.655 34.689 48.2886 34.689C50.7293 34.689 52.1508 36.302 52.1508 38.9117V46.2718H48.9254V39.9302C48.9254 38.4021 48.2037 37.6174 46.9744 37.6174C45.745 37.6174 44.9584 38.4021 44.9584 39.9302V46.273H41.7325V34.9017Z" fill="black"/>
<path d="M63.2471 40.6089C63.2471 38.9329 62.0376 37.4683 60.2531 37.4683C58.4062 37.4683 57.3035 38.8905 57.3035 40.6089C57.3035 42.2849 58.5129 43.7494 60.2974 43.7494C62.1399 43.7494 63.2471 42.3273 63.2471 40.6089ZM54.123 40.6089C54.123 37.3411 56.7539 34.689 60.298 34.689C63.8203 34.689 66.43 37.2987 66.43 40.6089C66.43 43.876 63.7991 46.5288 60.255 46.5288C56.7321 46.5288 54.1211 43.9191 54.1211 40.6089H54.123Z" fill="black"/>
<path d="M68.4923 34.9017H71.7171V36.514C72.4599 35.5585 73.4361 34.689 75.0697 34.689C76.5554 34.689 77.68 35.3464 78.2738 36.4922C79.2718 35.3252 80.4569 34.689 82.0088 34.689C84.4064 34.689 85.8485 36.1317 85.8485 38.868V46.273H82.6238V39.9302C82.6238 38.4021 81.9439 37.6174 80.7351 37.6174C79.5263 37.6174 78.7846 38.4021 78.7846 39.9302V46.273H75.5581V39.9302C75.5581 38.4021 74.8782 37.6174 73.6687 37.6174C72.4593 37.6174 71.7183 38.4021 71.7183 39.9302V46.273H68.4923V34.9017Z" fill="black"/>
<path d="M95.1582 42.2644V41.6918C94.5098 41.4062 93.8083 41.2614 93.0998 41.267C91.7207 41.267 90.8718 41.8191 90.8718 42.88C90.8718 43.7533 91.5929 44.2591 92.6327 44.2591C94.1402 44.2591 95.1582 43.432 95.1582 42.2632V42.2644ZM87.7531 42.9642C87.7531 40.4818 89.6412 39.336 92.3345 39.336C93.2813 39.3275 94.2223 39.4854 95.1145 39.8025V39.6116C95.1145 38.275 94.2868 37.5327 92.6738 37.5327C91.4438 37.5327 90.5737 37.766 89.5339 38.1477L88.7305 35.6865C89.9824 35.1344 91.213 34.7739 93.1435 34.7739C94.9049 34.7739 96.178 35.2405 96.9839 36.047C97.8328 36.8959 98.2151 38.1477 98.2151 39.6759V46.2732H95.0964V45.0438C94.3111 45.917 93.2289 46.4871 91.659 46.4871C89.5158 46.4871 87.755 45.2559 87.755 42.9642H87.7531Z" fill="black"/>
<path d="M100.802 34.9022H104.028V37.1932C104.686 35.6226 105.747 34.6047 107.656 34.6895V38.0633H107.486C105.343 38.0633 104.028 39.3576 104.028 42.0733V46.2736H100.802V34.9022Z" fill="black"/>
<path d="M110.13 43.0496V37.6593H108.771V34.9017H110.13V31.9951H113.356V34.9017H116.029V37.6593H113.356V42.5195C113.356 43.2623 113.673 43.6229 114.395 43.6229C114.951 43.6255 115.499 43.4869 115.987 43.2199V45.8084C115.307 46.2114 114.522 46.4659 113.44 46.4659C111.467 46.4659 110.129 45.6812 110.129 43.0503L110.13 43.0496Z" fill="black"/>
<path d="M128.254 31.0133L126.936 28.7305L124.199 30.3104V27.1499H121.562V30.3104L118.825 28.7305L117.506 31.0133L120.244 32.5939L117.506 34.1744L118.825 36.458L121.562 34.8774V38.0379H124.199V34.8774L126.936 36.458L128.254 34.1744L125.517 32.5939L128.254 31.0133Z" fill="black"/>
</g>
</svg>
