<svg width="136" height="69" viewBox="0 0 136 69" fill="none" xmlns="http://www.w3.org/2000/svg">
<mask id="mask0_1_225" style="mask-type:luminance" maskUnits="userSpaceOnUse" x="49" y="13" width="38" height="43">
<path d="M86.5295 13.5H49.4707V55.5H86.5295V13.5Z" fill="white"/>
</mask>
<g mask="url(#mask0_1_225)">
<path d="M61.4799 13.5C62.0146 13.712 62.1943 14.1071 62.1936 14.6647C62.1843 22.0914 62.1843 29.5182 62.1936 36.945C62.1953 38.4568 62.3892 39.9438 62.9606 41.3627C63.6227 43.0075 64.7389 44.1866 66.5103 44.6784C68.6927 45.2841 71.6448 44.6225 72.947 41.5863C73.4208 40.4816 73.6631 39.3268 73.7506 38.1383C73.8756 36.4364 73.7912 34.7313 73.8042 33.0277C73.8059 32.792 73.8734 32.7441 74.0995 32.7446C78.145 32.7513 82.1905 32.7513 86.236 32.7446C86.4619 32.7446 86.5316 32.7928 86.5294 33.0267C86.505 34.6891 86.5639 36.3516 86.469 38.0128C86.3133 40.7449 85.8627 43.4176 84.848 45.982C83.3311 49.8152 80.6278 52.4735 76.7379 53.9568C74.5619 54.7849 72.3091 55.2547 69.987 55.4246C66.9046 55.6503 63.8733 55.3798 60.9051 54.5122C59.0645 53.9742 57.3327 53.2059 55.7723 52.0913C53.4985 50.467 52.0366 48.2559 51.0503 45.7066C50.3041 43.785 49.8953 41.7853 49.6723 39.7443C49.5031 38.1973 49.4725 36.6452 49.4735 35.0905C49.4782 28.282 49.4766 21.4734 49.4686 14.6649C49.4686 14.1064 49.6488 13.7135 50.1813 13.5H61.4799Z" fill="#1F3E79"/>
<path d="M76.5954 13.5C76.5401 14.1467 76.6355 14.782 76.7619 15.4118C77.5876 19.5245 81.003 22.671 85.2284 23.2126C85.5816 23.2573 85.9372 23.2807 86.2932 23.2825C86.491 23.284 86.5267 23.3473 86.5262 23.5278C86.5199 25.6994 86.5199 27.871 86.5262 30.0425C86.5262 30.2579 86.4812 30.3189 86.2521 30.3182C82.9106 30.3098 79.5698 30.3079 76.2296 30.3124C75.5005 30.3124 74.7712 30.3088 74.0421 30.3153C73.8797 30.317 73.8034 30.2941 73.8034 30.1028C73.8091 24.9077 73.8106 19.7125 73.8078 14.5172C73.8078 13.9985 74.0951 13.6867 74.5585 13.5H76.5954Z" fill="#1F3E79"/>
<path d="M85.6293 13.5001C85.7053 13.4984 85.7807 13.5144 85.8493 13.5469C85.8738 13.5596 85.9056 13.5637 85.9307 13.5758C86.3183 13.7618 86.521 14.0649 86.5212 14.4913C86.5212 16.544 86.5193 18.597 86.5266 20.6497C86.5266 20.8425 86.4532 20.8627 86.2894 20.8596C82.9816 20.7977 79.9676 18.3713 79.2439 15.1866C79.1214 14.6322 79.0527 14.0674 79.0388 13.5001H85.6293Z" fill="#EE7F1B"/>
</g>
</svg>
