<svg width="25" height="25" viewBox="0 0 25 25" fill="none" xmlns="http://www.w3.org/2000/svg">
<g clip-path="url(#clip0_1_605)">
<path fill-rule="evenodd" clip-rule="evenodd" d="M12.58 0.580078C5.95257 0.580078 0.579987 5.95266 0.579987 12.5801C0.579987 19.2075 5.95257 24.5801 12.58 24.5801C19.2074 24.5801 24.58 19.2075 24.58 12.5801C24.58 5.95266 19.2074 0.580078 12.58 0.580078ZM17.5808 8.45474C18.1316 8.60588 18.5653 9.05119 18.7125 9.61669C18.98 10.6416 18.98 12.7801 18.98 12.7801C18.98 12.7801 18.98 14.9185 18.7125 15.9435C18.5653 16.509 18.1316 16.9543 17.5808 17.1055C16.5827 17.3801 12.58 17.3801 12.58 17.3801C12.58 17.3801 8.5773 17.3801 7.57912 17.1055C7.02835 16.9543 6.59461 16.509 6.44741 15.9435C6.17999 14.9185 6.17999 12.7801 6.17999 12.7801C6.17999 12.7801 6.17999 10.6416 6.44741 9.61669C6.59461 9.05119 7.02835 8.60588 7.57912 8.45474C8.5773 8.18008 12.58 8.18008 12.58 8.18008C12.58 8.18008 16.5827 8.18008 17.5808 8.45474Z" fill="#BA8D5B"/>
<path d="M11.38 14.9805V10.9805L14.58 12.9806L11.38 14.9805Z" fill="#BA8D5B"/>
</g>
<defs>
<clipPath id="clip0_1_605">
<rect width="24" height="24" fill="white" transform="translate(0.579987 0.580078)"/>
</clipPath>
</defs>
</svg>
